<svg xmlns="http://www.w3.org/2000/svg" width="300.004" height="300.003" viewBox="0 0 300.004 300.003"><defs><style>.a{fill:#928237}.a,.b,.c,.d,.e,.f,.g{fill-rule:evenodd}.b{fill:#aaa35f}.c{fill:#f88c4f}.d{fill:#b64c4e}.e{fill:#f15f12}.f{fill:#eb4825}.g{fill:#444329}</style></defs><path class="a" d="M207.465 46.32a2.733 2.733 0 11-2.665 2.733 2.7 2.7 0 012.665-2.733z"/><path class="a" d="M189.214 54.102a3.229 3.229 0 11-3.149 3.228 3.189 3.189 0 013.149-3.228z"/><path class="a" d="M153.841 78.935a3.229 3.229 0 11-3.15 3.228 3.189 3.189 0 013.15-3.228z"/><path class="a" d="M171.123 71.485a4.885 4.885 0 11-4.764 4.883 4.825 4.825 0 014.764-4.883z"/><path class="a" d="M137.851 56.751a4.885 4.885 0 11-4.766 4.883 4.824 4.824 0 014.766-4.883z"/><path class="a" d="M192.444 61.386a3.892 3.892 0 11-3.8 3.891 3.844 3.844 0 013.8-3.891z"/><path class="a" d="M124.282 73.968a6.21 6.21 0 11-6.056 6.208 6.133 6.133 0 016.056-6.208z"/><path class="a" d="M119.359 121.498a5.893 5.893 0 11-5.747 5.891 5.821 5.821 0 015.747-5.891z"/><path class="a" d="M108.058 122.274a3.48 3.48 0 11-3.394 3.479 3.438 3.438 0 013.394-3.479z"/><path class="a" d="M122.003 113.144a1.653 1.653 0 11-1.611 1.652 1.632 1.632 0 011.611-1.652z"/><path class="a" d="M123.56 133.065a2.272 2.272 0 11-2.215 2.271 2.244 2.244 0 012.215-2.271z"/><path class="a" d="M148.803 113.829a4.622 4.622 0 11-4.508 4.62 4.565 4.565 0 014.508-4.62z"/><path class="a" d="M151.142 123.413a4.965 4.965 0 11-4.842 4.964 4.9 4.9 0 014.842-4.964z"/><path class="a" d="M180.755 131.858a5.42 5.42 0 11-5.289 5.42 5.355 5.355 0 015.289-5.42z"/><path class="a" d="M178.64 153.309a4.622 4.622 0 11-4.508 4.621 4.567 4.567 0 014.508-4.621z"/><path class="a" d="M173.212 150.572a1.653 1.653 0 11-1.612 1.652 1.632 1.632 0 011.612-1.652z"/><path class="a" d="M194.893 153.081a3.481 3.481 0 11-3.394 3.481 3.439 3.439 0 013.394-3.481z"/><path class="a" d="M192.22 179.782a3.481 3.481 0 11-3.394 3.479 3.438 3.438 0 013.394-3.479z"/><path class="a" d="M109.061 194.387a4.965 4.965 0 11-4.842 4.964 4.9 4.9 0 014.842-4.964z"/><path class="a" d="M108.946 180.01a4.166 4.166 0 11-4.063 4.164 4.115 4.115 0 014.063-4.164z"/><path class="a" d="M89.356 181.38a4.166 4.166 0 11-4.064 4.164 4.113 4.113 0 014.064-4.164z"/><path class="a" d="M179.669 192.857a2.728 2.728 0 11-2.661 2.727 2.7 2.7 0 012.661-2.727z"/><path class="a" d="M182.758 200.093a5.421 5.421 0 11-5.287 5.42 5.354 5.354 0 015.287-5.42z"/><path class="a" d="M164.084 211.113a2.271 2.271 0 11-2.217 2.271 2.244 2.244 0 012.217-2.271z"/><path class="a" d="M152.283 213.786a1.653 1.653 0 11-1.613 1.652 1.632 1.632 0 011.613-1.652z"/><path class="a" d="M129.99 218.807a4.964 4.964 0 11-4.842 4.962 4.9 4.9 0 014.842-4.962z"/><path class="a" d="M96.815 216.752a5.421 5.421 0 11-5.287 5.42 5.355 5.355 0 015.287-5.42z"/><path class="a" d="M113.318 228.891a2.066 2.066 0 11-2.02 2.068 2.041 2.041 0 012.015-2.065z"/><path class="a" d="M171.208 219.558a2.728 2.728 0 11-2.661 2.727 2.694 2.694 0 012.661-2.727z"/><path class="a" d="M139.368 230.902a1.653 1.653 0 11-1.611 1.652 1.632 1.632 0 011.611-1.652z"/><path class="b" d="M181.342 55.14a3.077 3.077 0 11-3 3.077 3.039 3.039 0 013-3.077z"/><path class="b" d="M179.653 73.02a2.5 2.5 0 11-2.439 2.5 2.47 2.47 0 012.439-2.5z"/><path class="b" d="M163.145 77.827a3.078 3.078 0 11-3 3.077 3.04 3.04 0 013-3.077z"/><path class="b" d="M147.201 57.255a3.269 3.269 0 11-3.188 3.268 3.229 3.229 0 013.188-3.268z"/><path class="b" d="M132.195 83.018a3.078 3.078 0 11-3 3.077 3.039 3.039 0 013-3.077z"/><path class="b" d="M136.134 74.943a3.654 3.654 0 11-3.563 3.653 3.609 3.609 0 013.563-3.653z"/><path class="b" d="M126.005 62.448a5.385 5.385 0 11-5.252 5.383 5.317 5.317 0 015.252-5.383z"/><path class="b" d="M198.974 47.834a5.77 5.77 0 11-5.627 5.768 5.7 5.7 0 015.627-5.768z"/><path class="b" d="M156.581 60.908a8.462 8.462 0 11-8.254 8.459 8.359 8.359 0 018.254-8.459z"/><path class="b" d="M114.375 111.282a5 5 0 11-4.877 5 4.938 4.938 0 014.877-5z"/><path class="b" d="M106.684 116.665a2.115 2.115 0 11-2.064 2.115 2.09 2.09 0 012.064-2.115z"/><path class="b" d="M166.147 119.742a8.462 8.462 0 11-8.254 8.459 8.358 8.358 0 018.254-8.459z"/><path class="b" d="M117.032 134.375a3.588 3.588 0 11-3.5 3.588 3.544 3.544 0 013.5-3.588z"/><path class="b" d="M129.903 127.507a3.588 3.588 0 11-3.5 3.588 3.545 3.545 0 013.5-3.588z"/><path class="b" d="M176.904 163.639a3.588 3.588 0 11-3.5 3.587 3.545 3.545 0 013.5-3.587z"/><path class="b" d="M187.227 160.57a5.693 5.693 0 11-5.553 5.692 5.624 5.624 0 015.553-5.692z"/><path class="b" d="M188.989 187.067a5.091 5.091 0 11-4.965 5.089 5.028 5.028 0 014.965-5.089z"/><path class="b" d="M99.646 176.585a3.588 3.588 0 11-3.5 3.588 3.545 3.545 0 013.5-3.588z"/><path class="b" d="M101.155 184.658a5.091 5.091 0 11-4.965 5.089 5.028 5.028 0 014.965-5.089z"/><path class="b" d="M166.959 198.507a4.79 4.79 0 11-4.673 4.789 4.732 4.732 0 014.673-4.789z"/><path class="b" d="M174.249 197.094a2.678 2.678 0 11-2.612 2.678 2.646 2.646 0 012.612-2.678z"/><path class="b" d="M145.807 215.428a8.045 8.045 0 11-7.846 8.042 7.946 7.946 0 017.846-8.042z"/><path class="b" d="M110.85 216.214a5.751 5.751 0 11-5.609 5.75 5.68 5.68 0 015.609-5.75z"/><path class="b" d="M90.835 207.298a3.588 3.588 0 11-3.5 3.587 3.545 3.545 0 013.5-3.587z"/><path class="b" d="M104.922 204.023a2.075 2.075 0 11-2.024 2.074 2.049 2.049 0 012.024-2.074z"/><path class="b" d="M181.299 211.249a2.678 2.678 0 11-2.612 2.677 2.645 2.645 0 012.612-2.677z"/><path class="c" d="M131.42 0a3.556 3.556 0 11-3.469 3.554A3.513 3.513 0 01131.42 0z"/><path class="c" d="M120.642 12.189a2.667 2.667 0 11-2.6 2.666 2.634 2.634 0 012.6-2.666z"/><path class="c" d="M100.078 22.474a2.667 2.667 0 11-2.6 2.666 2.635 2.635 0 012.6-2.666z"/><path class="c" d="M132.039 29.963a2.667 2.667 0 11-2.6 2.666 2.634 2.634 0 012.6-2.666z"/><path class="c" d="M160.407 28.821a2.286 2.286 0 11-2.23 2.286 2.258 2.258 0 012.23-2.286z"/><path class="c" d="M149.878 34.665a2.286 2.286 0 11-2.23 2.284 2.259 2.259 0 012.23-2.284z"/><path class="c" d="M154.831 19.427a2.031 2.031 0 11-1.981 2.031 2.007 2.007 0 011.981-2.031z"/><path class="c" d="M107.265 18.664a3.556 3.556 0 11-3.469 3.556 3.512 3.512 0 013.469-3.556z"/><path class="c" d="M165.858 30.98a2.667 2.667 0 11-2.6 2.666 2.635 2.635 0 012.6-2.666z"/><path class="c" d="M167.22 14.348a2.666 2.666 0 11-2.6 2.665 2.634 2.634 0 012.6-2.665z"/><path class="c" d="M141.825.254a6.35 6.35 0 11-6.194 6.349 6.273 6.273 0 016.194-6.349z"/><path class="c" d="M125.103 19.553a6.351 6.351 0 11-6.193 6.349 6.273 6.273 0 016.193-6.349z"/><path class="c" d="M152.355 23.997a5.08 5.08 0 11-4.955 5.079 5.018 5.018 0 014.955-5.079z"/><path class="c" d="M176.386 25.393a6.351 6.351 0 11-6.194 6.349 6.272 6.272 0 016.194-6.349z"/><path class="c" d="M187.535 29.079a3.556 3.556 0 11-3.468 3.556 3.513 3.513 0 013.468-3.556z"/><path class="c" d="M193.481 10.031a3.556 3.556 0 11-3.468 3.554 3.511 3.511 0 013.468-3.554z"/><path class="c" d="M185.43 6.729a3.3 3.3 0 11-3.221 3.3 3.261 3.261 0 013.221-3.3z"/><path class="c" d="M201.781 15.871a6.351 6.351 0 11-6.194 6.349 6.273 6.273 0 016.194-6.349z"/><path class="c" d="M212.31 36.313a4.064 4.064 0 11-3.964 4.063 4.015 4.015 0 013.964-4.063z"/><path class="c" d="M224.822 21.584a3.3 3.3 0 11-3.222 3.3 3.26 3.26 0 013.222-3.3z"/><path class="c" d="M231.015 26.409a3.175 3.175 0 11-3.1 3.175 3.136 3.136 0 013.1-3.175z"/><path class="c" d="M212.929 45.709a2.286 2.286 0 11-2.23 2.284 2.257 2.257 0 012.23-2.284z"/><path class="c" d="M165.858 49.137a2.667 2.667 0 11-2.6 2.666 2.635 2.635 0 012.6-2.666z"/><path class="c" d="M152.85 39.106a3.175 3.175 0 11-3.1 3.174 3.136 3.136 0 013.1-3.174z"/><path class="c" d="M146.657 39.613a2.286 2.286 0 11-2.23 2.286 2.259 2.259 0 012.23-2.286z"/><path class="c" d="M137.49 39.232a3.175 3.175 0 11-3.1 3.175 3.136 3.136 0 013.1-3.175z"/><path class="c" d="M134.767 50.407a2.666 2.666 0 11-2.6 2.666 2.633 2.633 0 012.6-2.666z"/><path class="c" d="M113.211 38.852a2.286 2.286 0 11-2.23 2.286 2.258 2.258 0 012.23-2.286z"/><path class="c" d="M99.585 50.152a2.286 2.286 0 11-2.23 2.286 2.258 2.258 0 012.23-2.286z"/><path class="c" d="M86.33 46.721a2.286 2.286 0 11-2.23 2.284 2.258 2.258 0 012.23-2.284z"/><path class="c" d="M78.774 18.283a8.383 8.383 0 11-8.176 8.38 8.279 8.279 0 018.176-8.38z"/><path class="c" d="M105.779 50.279a3.175 3.175 0 11-3.1 3.175 3.136 3.136 0 013.1-3.175z"/><path class="c" d="M67.872 40.502a3.175 3.175 0 11-3.1 3.174 3.136 3.136 0 013.1-3.174z"/><path class="c" d="M51.521 40.502a3.81 3.81 0 11-3.716 3.809 3.764 3.764 0 013.716-3.809z"/><path class="c" d="M59.077 38.979a2.413 2.413 0 11-2.353 2.412 2.383 2.383 0 012.353-2.412z"/><path class="c" d="M82.118 55.1a2.922 2.922 0 11-2.849 2.921 2.886 2.886 0 012.849-2.921z"/><path class="c" d="M36.408 54.087a2.414 2.414 0 11-2.353 2.414 2.383 2.383 0 012.353-2.414z"/><path class="c" d="M42.696 57.562a6.351 6.351 0 11-6.193 6.349 6.272 6.272 0 016.193-6.349z"/><path class="c" d="M50.837 66.319a2.413 2.413 0 11-2.353 2.412 2.384 2.384 0 012.353-2.412z"/><path class="c" d="M68.068 64.008a6.351 6.351 0 11-6.193 6.349 6.273 6.273 0 016.193-6.349z"/><path class="c" d="M76.138 71.619a2.286 2.286 0 11-2.23 2.286 2.258 2.258 0 012.23-2.286z"/><path class="c" d="M88.598 60.895a5.08 5.08 0 11-4.955 5.079 5.018 5.018 0 014.955-5.079z"/><path class="c" d="M90.186 73.308a2.667 2.667 0 11-2.6 2.666 2.635 2.635 0 012.6-2.666z"/><path class="c" d="M63.012 76.54a4 4 0 11-3.906 4 3.954 3.954 0 013.906-4z"/><path class="c" d="M37.86 84.319a4 4 0 11-3.906 4 3.954 3.954 0 013.906-4z"/><path class="c" d="M44.547 86.259a2.037 2.037 0 11-1.987 2.036 2.012 2.012 0 011.987-2.036z"/><path class="c" d="M117.629 64.318a2.413 2.413 0 11-2.353 2.412 2.384 2.384 0 012.353-2.412z"/><path class="c" d="M115.461 76.474a2.037 2.037 0 11-1.987 2.037 2.013 2.013 0 011.987-2.037z"/><path class="c" d="M139.753 82.858a2.667 2.667 0 11-2.6 2.666 2.634 2.634 0 012.6-2.666z"/><path class="c" d="M20.944 78.734a3.81 3.81 0 11-3.716 3.809 3.764 3.764 0 013.716-3.809z"/><path class="c" d="M176.619 80.192a2.667 2.667 0 11-2.6 2.665 2.634 2.634 0 012.6-2.665z"/><path class="d" d="M195.47 70.667a5.976 5.976 0 11-5.828 5.975 5.9 5.9 0 015.828-5.975z"/><path class="c" d="M205.61 74.005a2.286 2.286 0 11-2.23 2.286 2.258 2.258 0 012.23-2.286z"/><path class="c" d="M230.703 79.116a3.175 3.175 0 11-3.1 3.174 3.135 3.135 0 013.1-3.174z"/><path class="c" d="M204.03 89.562a3.175 3.175 0 11-3.1 3.174 3.136 3.136 0 013.1-3.174z"/><path class="c" d="M230.677 50.48a3.3 3.3 0 11-3.221 3.3 3.261 3.261 0 013.221-3.3z"/><path class="c" d="M232.231 58.378a2.286 2.286 0 11-2.23 2.286 2.258 2.258 0 012.23-2.286z"/><path class="c" d="M221.799 52.858a3.556 3.556 0 11-3.468 3.556 3.513 3.513 0 013.468-3.556z"/><path class="c" d="M251.508 61.346a3.738 3.738 0 11-3.645 3.737 3.691 3.691 0 013.645-3.737z"/><path class="c" d="M240.577 51.552a5.754 5.754 0 11-5.611 5.752 5.683 5.683 0 015.611-5.752z"/><path class="c" d="M261.652 57.337a5.081 5.081 0 11-4.955 5.079 5.018 5.018 0 014.955-5.079z"/><path class="c" d="M265.314 67.965a2.667 2.667 0 11-2.6 2.668 2.635 2.635 0 012.6-2.668z"/><path class="c" d="M260.454 75.813a4.574 4.574 0 11-4.46 4.573 4.518 4.518 0 014.46-4.573z"/><path class="c" d="M252.288 83.559a6.2 6.2 0 11-6.046 6.2 6.123 6.123 0 016.046-6.2z"/><path class="c" d="M241.737 86.933a3.3 3.3 0 11-3.221 3.3 3.262 3.262 0 013.221-3.3z"/><path class="c" d="M212.526 86.995a4.064 4.064 0 11-3.963 4.063 4.014 4.014 0 013.963-4.063z"/><path class="c" d="M280.479 94.451a7.977 7.977 0 11-7.78 7.974 7.878 7.878 0 017.78-7.974z"/><path class="c" d="M269.071 92.464a3.738 3.738 0 11-3.645 3.737 3.693 3.693 0 013.645-3.737z"/><path class="c" d="M252.18 96.514a1.714 1.714 0 11-1.671 1.714 1.693 1.693 0 011.671-1.714z"/><path class="c" d="M251.676 100.237a5.08 5.08 0 11-4.954 5.079 5.018 5.018 0 014.954-5.079z"/><path class="c" d="M216.887 97.121a2.286 2.286 0 11-2.23 2.286 2.258 2.258 0 012.23-2.286z"/><path class="c" d="M203.17 111.629a1.714 1.714 0 11-1.671 1.714 1.693 1.693 0 011.671-1.714z"/><path class="c" d="M208.088 102.016a5.08 5.08 0 11-4.955 5.079 5.019 5.019 0 014.955-5.079z"/><path class="c" d="M247.516 112.011a5.753 5.753 0 11-5.611 5.752 5.682 5.682 0 015.611-5.752z"/><path class="c" d="M286.985 111.122a5.754 5.754 0 11-5.612 5.752 5.682 5.682 0 015.612-5.752z"/><path class="c" d="M236.546 112.914a3.738 3.738 0 11-3.647 3.737 3.692 3.692 0 013.647-3.737z"/><path class="c" d="M217.244 120.916a3.738 3.738 0 11-3.643 3.737 3.693 3.693 0 013.645-3.737z"/><path class="c" d="M205.919 122.02a5.08 5.08 0 11-4.954 5.079 5.018 5.018 0 014.954-5.079z"/><path class="d" d="M186.361 115.122a6.2 6.2 0 11-6.044 6.2 6.123 6.123 0 016.044-6.2z"/><path class="c" d="M191.461 125.853a1.715 1.715 0 11-1.673 1.715 1.7 1.7 0 011.673-1.715z"/><path class="c" d="M189.509 136.972a1.715 1.715 0 11-1.673 1.715 1.695 1.695 0 011.673-1.715z"/><path class="d" d="M188.696 130.463a2.286 2.286 0 11-2.23 2.286 2.258 2.258 0 012.23-2.286z"/><path class="c" d="M184.499 107.357a3.738 3.738 0 11-3.645 3.737 3.691 3.691 0 013.645-3.737z"/><path class="c" d="M168.619 96.236a5.08 5.08 0 11-4.955 5.079 5.018 5.018 0 014.955-5.079z"/><path class="c" d="M266.919 122.237a3.175 3.175 0 11-3.1 3.174 3.136 3.136 0 013.1-3.174z"/><path class="c" d="M281.448 131.128a3.175 3.175 0 11-3.1 3.175 3.136 3.136 0 013.1-3.175z"/><path class="c" d="M286.219 125.793a3.175 3.175 0 11-3.1 3.174 3.136 3.136 0 013.1-3.174z"/><path class="c" d="M235.104 134.238a2.512 2.512 0 11-2.45 2.511 2.481 2.481 0 012.45-2.511z"/><path class="c" d="M223.393 140.24a2.511 2.511 0 11-2.45 2.511 2.481 2.481 0 012.45-2.511z"/><path class="c" d="M136.866 104.679a2.286 2.286 0 11-2.23 2.286 2.258 2.258 0 012.23-2.286z"/><path class="c" d="M154.164 110.958a1.714 1.714 0 11-1.673 1.714 1.693 1.693 0 011.673-1.714z"/><path class="c" d="M144.978 100.897a5.569 5.569 0 11-5.431 5.568 5.5 5.5 0 015.431-5.568z"/><path class="c" d="M129.863 102.232a3.175 3.175 0 11-3.1 3.175 3.137 3.137 0 013.1-3.175z"/><path class="d" d="M151.115 135.129a3.175 3.175 0 11-3.1 3.174 3.136 3.136 0 013.1-3.174z"/><path class="d" d="M105.257 90.229a5.976 5.976 0 11-5.83 5.975 5.9 5.9 0 015.83-5.975z"/><path class="c" d="M79.561 96.683a6.351 6.351 0 11-6.193 6.349 6.272 6.272 0 016.193-6.349z"/><path class="c" d="M62.317 88.004a5.976 5.976 0 11-5.828 5.974 5.9 5.9 0 015.828-5.974z"/><path class="c" d="M85.785 90.321a4 4 0 11-3.9 4 3.954 3.954 0 013.9-4z"/><path class="c" d="M54.179 97.787a3.175 3.175 0 11-3.1 3.174 3.136 3.136 0 013.1-3.174z"/><path class="c" d="M53.311 119.791a3.175 3.175 0 11-3.1 3.175 3.136 3.136 0 013.1-3.175z"/><path class="c" d="M47.801 97.591a2.037 2.037 0 11-1.986 2.036 2.012 2.012 0 011.986-2.036z"/><path class="c" d="M88.787 126.042a2.037 2.037 0 11-1.987 2.037 2.012 2.012 0 011.987-2.037z"/><path class="c" d="M88.787 136.934a2.037 2.037 0 11-1.987 2.036 2.012 2.012 0 011.987-2.036z"/><path class="c" d="M62.643 117.763a2.667 2.667 0 11-2.6 2.666 2.634 2.634 0 012.6-2.666z"/><path class="c" d="M48.983 113.984a2.667 2.667 0 11-2.6 2.666 2.635 2.635 0 012.6-2.666z"/><path class="c" d="M91.479 130.906a3.175 3.175 0 11-3.1 3.174 3.137 3.137 0 013.1-3.174z"/><path class="c" d="M102.972 140.241a3.175 3.175 0 11-3.1 3.175 3.136 3.136 0 013.1-3.175z"/><path class="c" d="M79.552 121.91a3.28 3.28 0 11-3.2 3.279 3.24 3.24 0 013.2-3.279z"/><path class="c" d="M62.203 135.246a3.28 3.28 0 11-3.2 3.279 3.24 3.24 0 013.2-3.279z"/><path class="c" d="M41.328 93.655a4 4 0 11-3.9 4 3.954 3.954 0 013.9-4z"/><path class="c" d="M97.45 119.346a5.976 5.976 0 11-5.83 5.974 5.9 5.9 0 015.83-5.974z"/><path class="c" d="M128.46 138.239a7.977 7.977 0 11-7.779 7.974 7.88 7.88 0 017.779-7.974z"/><path class="c" d="M28.32 93.433a4 4 0 11-3.906 4 3.954 3.954 0 013.906-4z"/><path class="c" d="M17.474 105.185a3.81 3.81 0 11-3.716 3.809 3.763 3.763 0 013.716-3.809z"/><path class="c" d="M5.979 122.329a4 4 0 11-3.906 4 3.954 3.954 0 013.906-4z"/><path class="c" d="M16.384 121.131a5.08 5.08 0 11-4.955 5.078 5.018 5.018 0 014.955-5.079z"/><path class="c" d="M24.163 137.378a2.037 2.037 0 11-1.986 2.037 2.012 2.012 0 011.986-2.037z"/><path class="c" d="M18.993 140.11a4 4 0 11-3.906 4 3.954 3.954 0 013.906-4z"/><path class="c" d="M10.054 145.574a7.977 7.977 0 11-7.78 7.974 7.879 7.879 0 017.78-7.974z"/><path class="c" d="M18.839 158.884a2.667 2.667 0 11-2.6 2.666 2.635 2.635 0 012.6-2.666z"/><path class="c" d="M17.972 173.999a2.667 2.667 0 11-2.6 2.665 2.634 2.634 0 012.6-2.665z"/><path class="c" d="M5.08 168.496a2.038 2.038 0 11-1.987 2.037 2.014 2.014 0 011.987-2.037z"/><path class="c" d="M35.907 158.337a4 4 0 11-3.9 4 3.955 3.955 0 013.9-4z"/><path class="c" d="M53.745 161.252a3.28 3.28 0 11-3.2 3.279 3.241 3.241 0 013.2-3.279z"/><path class="c" d="M66.107 150.688a3.175 3.175 0 11-3.1 3.175 3.137 3.137 0 013.1-3.175z"/><path class="c" d="M74.725 165.639a3.81 3.81 0 11-3.716 3.809 3.762 3.762 0 013.716-3.809z"/><path class="c" d="M46.812 153.131a5.643 5.643 0 11-5.5 5.642 5.573 5.573 0 015.5-5.642z"/><path class="c" d="M97.775 148.908a5.643 5.643 0 11-5.5 5.642 5.573 5.573 0 015.5-5.642z"/><path class="c" d="M90.102 154.687a1.606 1.606 0 11-1.567 1.607 1.587 1.587 0 011.567-1.607z"/><path class="c" d="M26.21 178.915a5.643 5.643 0 11-5.5 5.642 5.573 5.573 0 015.5-5.642z"/><path class="c" d="M139.994 169.587a5.081 5.081 0 11-4.955 5.079 5.018 5.018 0 014.955-5.079z"/><path class="c" d="M151.711 149.418a3.81 3.81 0 11-3.716 3.809 3.763 3.763 0 013.716-3.809z"/><path class="c" d="M167.319 147.417a3.81 3.81 0 11-3.716 3.809 3.762 3.762 0 013.716-3.809z"/><path class="c" d="M159.518 151.418a3.81 3.81 0 11-3.716 3.809 3.763 3.763 0 013.716-3.809z"/><path class="c" d="M160.169 168.533a3.81 3.81 0 11-3.716 3.81 3.764 3.764 0 013.716-3.81z"/><path class="c" d="M163.159 176.916a6.2 6.2 0 11-6.046 6.2 6.121 6.121 0 016.046-6.2z"/><path class="c" d="M202.574 157.355a2.511 2.511 0 11-2.45 2.511 2.48 2.48 0 012.45-2.511z"/><path class="c" d="M210.687 158.251a5.08 5.08 0 11-4.955 5.08 5.018 5.018 0 014.955-5.08z"/><path class="c" d="M217.909 144.02a3.174 3.174 0 11-3.1 3.174 3.136 3.136 0 013.1-3.174z"/><path class="c" d="M241.051 137.801a5.081 5.081 0 11-4.955 5.08 5.018 5.018 0 014.955-5.08z"/><path class="c" d="M235.846 148.693a5.08 5.08 0 11-4.955 5.079 5.018 5.018 0 014.955-5.079z"/><path class="c" d="M238.459 161.865a3.81 3.81 0 11-3.717 3.809 3.763 3.763 0 013.717-3.809z"/><path class="c" d="M270.333 158.531a3.81 3.81 0 11-3.717 3.809 3.763 3.763 0 013.717-3.809z"/><path class="c" d="M279.008 166.978a3.81 3.81 0 11-3.716 3.809 3.763 3.763 0 013.716-3.809z"/><path class="c" d="M279.875 177.424a3.81 3.81 0 11-3.716 3.809 3.763 3.763 0 013.716-3.809z"/><path class="c" d="M223.546 168.47a3.175 3.175 0 11-3.1 3.175 3.136 3.136 0 013.1-3.175z"/><path class="c" d="M262.799 176.25a3.175 3.175 0 11-3.1 3.174 3.136 3.136 0 013.1-3.174z"/><path class="c" d="M237.209 177.806a3.175 3.175 0 11-3.1 3.174 3.135 3.135 0 013.1-3.174z"/><path class="c" d="M248.207 159.362a5.081 5.081 0 11-4.955 5.08 5.018 5.018 0 014.955-5.08z"/><path class="c" d="M280.262 139.572a5.754 5.754 0 11-5.611 5.752 5.683 5.683 0 015.611-5.752z"/><path class="c" d="M295.049 145.581a5.08 5.08 0 11-4.955 5.079 5.018 5.018 0 014.955-5.079z"/><path class="c" d="M260.533 160.911a6.643 6.643 0 11-6.479 6.641 6.562 6.562 0 016.479-6.641z"/><path class="c" d="M276.687 160.974a1.714 1.714 0 11-1.673 1.714 1.692 1.692 0 011.673-1.714z"/><path class="c" d="M246.866 180.249a5.754 5.754 0 11-5.612 5.752 5.682 5.682 0 015.612-5.752z"/><path class="c" d="M263.565 192.251a5.754 5.754 0 11-5.612 5.752 5.683 5.683 0 015.612-5.752z"/><path class="c" d="M278.412 185.584a3.622 3.622 0 11-3.532 3.62 3.578 3.578 0 013.532-3.62z"/><path class="c" d="M232.553 184.473a7.977 7.977 0 11-7.78 7.974 7.879 7.879 0 017.78-7.974z"/><path class="c" d="M244.8 192.92a3.175 3.175 0 11-3.1 3.174 3.136 3.136 0 013.1-3.174z"/><path class="c" d="M221.441 193.586a2.511 2.511 0 11-2.45 2.511 2.48 2.48 0 012.45-2.511z"/><path class="c" d="M215.586 192.697a2.511 2.511 0 11-2.45 2.511 2.481 2.481 0 012.45-2.511z"/><path class="c" d="M199.203 192.979a3.81 3.81 0 11-3.716 3.809 3.764 3.764 0 013.716-3.809z"/><path class="c" d="M192.914 198.985a3.81 3.81 0 11-3.714 3.813 3.763 3.763 0 013.716-3.809z"/><path class="c" d="M205.926 196.985a3.81 3.81 0 11-3.717 3.809 3.763 3.763 0 013.717-3.809z"/><path class="c" d="M269.249 214.544a3.81 3.81 0 11-3.716 3.809 3.763 3.763 0 013.716-3.809z"/><path class="c" d="M247.13 209.905a4.226 4.226 0 11-4.122 4.225 4.173 4.173 0 014.122-4.225z"/><path class="c" d="M189.662 208.256a4.319 4.319 0 11-4.213 4.319 4.266 4.266 0 014.213-4.319z"/><path class="c" d="M204.144 215.369a6.642 6.642 0 11-6.479 6.64 6.56 6.56 0 016.479-6.64z"/><path class="c" d="M222.463 212.037a3.175 3.175 0 11-3.1 3.174 3.135 3.135 0 013.1-3.174z"/><path class="c" d="M251.522 217.369a2.955 2.955 0 11-2.881 2.953 2.917 2.917 0 012.881-2.953z"/><path class="c" d="M259.546 218.481a2.955 2.955 0 11-2.878 2.95 2.918 2.918 0 012.883-2.953z"/><path class="c" d="M265.619 221.815a2.955 2.955 0 11-2.883 2.953 2.919 2.919 0 012.883-2.953z"/><path class="c" d="M146.894 189.14a5.754 5.754 0 11-5.612 5.752 5.683 5.683 0 015.612-5.752z"/><path class="c" d="M146.026 201.587a5.754 5.754 0 11-5.611 5.752 5.683 5.683 0 015.611-5.752z"/><path class="d" d="M126.509 196.031a5.754 5.754 0 11-5.612 5.752 5.683 5.683 0 015.612-5.752z"/><path class="c" d="M112.361 187.806a2.512 2.512 0 11-2.45 2.511 2.481 2.481 0 012.45-2.511z"/><path class="c" d="M117.347 199.364a2.512 2.512 0 11-2.45 2.512 2.481 2.481 0 012.45-2.512z"/><path class="c" d="M190.864 232.707a2.511 2.511 0 11-2.449 2.511 2.481 2.481 0 012.449-2.511z"/><path class="c" d="M213.417 220.925a2.512 2.512 0 11-2.449 2.511 2.481 2.481 0 012.449-2.511z"/><path class="c" d="M239.224 231.15a2.512 2.512 0 11-2.45 2.511 2.481 2.481 0 012.45-2.511z"/><path class="c" d="M219.489 227.149a2.512 2.512 0 11-2.449 2.512 2.481 2.481 0 012.449-2.512z"/><path class="c" d="M103.84 227.152a3.175 3.175 0 11-3.1 3.174 3.135 3.135 0 013.1-3.174z"/><path class="c" d="M153.445 230.771a3.81 3.81 0 11-3.716 3.809 3.763 3.763 0 013.716-3.809z"/><path class="c" d="M169.23 225.594a5.754 5.754 0 11-5.607 5.752 5.682 5.682 0 015.611-5.752z"/><path class="c" d="M60.63 199.207a3.81 3.81 0 11-3.717 3.809 3.763 3.763 0 013.717-3.809z"/><path class="c" d="M68.067 200.005a2.667 2.667 0 11-2.6 2.666 2.634 2.634 0 012.6-2.666z"/><path class="c" d="M76.741 193.336a2.667 2.667 0 11-2.6 2.667 2.634 2.634 0 012.6-2.667z"/><path class="c" d="M38.79 219.344a2.666 2.666 0 11-2.6 2.665 2.635 2.635 0 012.6-2.665z"/><path class="c" d="M88.451 216.454a2.667 2.667 0 11-2.6 2.666 2.634 2.634 0 012.6-2.666z"/><path class="c" d="M39.777 198.059a2.037 2.037 0 11-1.987 2.037 2.012 2.012 0 011.987-2.037z"/><path class="c" d="M74.691 224.954a2.038 2.038 0 11-1.987 2.037 2.013 2.013 0 011.987-2.037z"/><path class="c" d="M89.004 233.4a2.038 2.038 0 11-1.987 2.037 2.013 2.013 0 011.987-2.037z"/><path class="c" d="M74.074 229.687a4.671 4.671 0 11-4.555 4.67 4.614 4.614 0 014.555-4.67z"/><path class="c" d="M48.331 197.809a5.642 5.642 0 11-5.5 5.64 5.572 5.572 0 015.5-5.64z"/><path class="c" d="M67.128 206.041a5.08 5.08 0 11-4.955 5.079 5.017 5.017 0 014.955-5.079z"/><path class="c" d="M13.41 199.04a3.28 3.28 0 11-3.2 3.279 3.241 3.241 0 013.2-3.279z"/><path class="c" d="M22.951 217.489a3.28 3.28 0 11-3.2 3.279 3.239 3.239 0 013.2-3.279z"/><path class="c" d="M61.057 240.938a5.08 5.08 0 11-4.954 5.079 5.017 5.017 0 014.954-5.079z"/><path class="c" d="M68.067 248.016a2.667 2.667 0 11-2.6 2.666 2.634 2.634 0 012.6-2.666z"/><path class="c" d="M56.569 258.242a2.667 2.667 0 11-2.6 2.667 2.634 2.634 0 012.6-2.667z"/><path class="c" d="M108.955 250.516a2.037 2.037 0 11-1.987 2.037 2.012 2.012 0 011.987-2.037z"/><path class="c" d="M133.558 254.018a2.667 2.667 0 11-2.6 2.666 2.634 2.634 0 012.6-2.666z"/><path class="c" d="M144.987 245.885a3.81 3.81 0 11-3.716 3.81 3.764 3.764 0 013.716-3.81z"/><path class="c" d="M110.941 255.377a4.32 4.32 0 11-4.213 4.319 4.267 4.267 0 014.213-4.319z"/><path class="c" d="M132.411 260.491a4.319 4.319 0 11-4.213 4.317 4.266 4.266 0 014.213-4.317z"/><path class="c" d="M160.882 257.8a2.666 2.666 0 11-2.6 2.666 2.635 2.635 0 012.6-2.666z"/><path class="c" d="M183.865 250.012a2.667 2.667 0 11-2.6 2.667 2.634 2.634 0 012.6-2.667z"/><path class="c" d="M194.494 239.126a2.667 2.667 0 11-2.6 2.667 2.634 2.634 0 012.6-2.667z"/><path class="c" d="M165.156 243.662a3.81 3.81 0 11-3.716 3.809 3.763 3.763 0 013.716-3.809z"/><path class="c" d="M167.108 259.889a3.81 3.81 0 11-3.717 3.809 3.763 3.763 0 013.717-3.809z"/><path class="c" d="M174.264 246.358a4.671 4.671 0 11-4.555 4.67 4.614 4.614 0 014.555-4.67z"/><path class="c" d="M245.082 237.818a2.512 2.512 0 11-2.45 2.512 2.482 2.482 0 012.45-2.512z"/><path class="c" d="M237.153 252.332a3.81 3.81 0 11-3.716 3.809 3.762 3.762 0 013.716-3.809z"/><path class="c" d="M237.835 236.486a3.62 3.62 0 11-3.531 3.619 3.576 3.576 0 013.531-3.619z"/><path class="c" d="M240.092 262.492a2.067 2.067 0 11-2.017 2.065 2.041 2.041 0 012.017-2.065z"/><path class="c" d="M182.19 266.491a2.067 2.067 0 11-2.017 2.067 2.042 2.042 0 012.017-2.067z"/><path class="c" d="M210.543 268.24a2.667 2.667 0 11-2.6 2.666 2.634 2.634 0 012.6-2.666z"/><path class="c" d="M199.636 283.45a3.81 3.81 0 11-3.716 3.809 3.764 3.764 0 013.716-3.809z"/><path class="c" d="M189.66 279.449a3.81 3.81 0 11-3.716 3.809 3.763 3.763 0 013.716-3.809z"/><path class="c" d="M168.362 276.418a6.052 6.052 0 11-5.9 6.05 5.977 5.977 0 015.9-6.05z"/><path class="c" d="M166.519 269.133a2.667 2.667 0 11-2.6 2.666 2.635 2.635 0 012.6-2.666z"/><path class="c" d="M154.53 279.477a5.338 5.338 0 11-5.206 5.337 5.274 5.274 0 015.206-5.337z"/><path class="c" d="M254.889 234.484a6.643 6.643 0 11-6.478 6.641 6.562 6.562 0 016.478-6.641z"/><path class="c" d="M122.868 276.81a4.671 4.671 0 11-4.555 4.67 4.613 4.613 0 014.555-4.67z"/><path class="c" d="M95.513 282.746a2.037 2.037 0 11-1.987 2.037 2.013 2.013 0 011.987-2.037z"/><path class="c" d="M98.533 269.75a6.275 6.275 0 11-6.119 6.272 6.2 6.2 0 016.119-6.272z"/><path class="c" d="M88.821 278.273a4.319 4.319 0 11-4.214 4.319 4.266 4.266 0 014.214-4.319z"/><path class="e" d="M128.868 6.736a5.1 5.1 0 11-4.971 5.095 5.034 5.034 0 014.971-5.095z"/><path class="e" d="M100.121 5.08A2.892 2.892 0 1197.3 7.971a2.857 2.857 0 012.821-2.891z"/><path class="e" d="M113.822 26.287a5.1 5.1 0 11-4.97 5.095 5.033 5.033 0 014.97-5.095z"/><path class="e" d="M140.957 28.491a5.1 5.1 0 11-4.97 5.093 5.033 5.033 0 014.97-5.093z"/><path class="e" d="M146.6 13.341a4.269 4.269 0 11-4.164 4.269 4.217 4.217 0 014.164-4.269z"/><path class="e" d="M92.872 27.936a6.2 6.2 0 11-6.044 6.2 6.121 6.121 0 016.044-6.2z"/><path class="e" d="M64.119 26.287a6.2 6.2 0 11-6.044 6.2 6.123 6.123 0 016.044-6.2z"/><path class="e" d="M110.33 60.705a2.066 2.066 0 11-2.014 2.065 2.041 2.041 0 012.014-2.065z"/><path class="e" d="M117.584 69.796a2.066 2.066 0 11-2.014 2.065 2.041 2.041 0 012.014-2.065z"/><path class="e" d="M100.662 55.473a6.2 6.2 0 11-6.046 6.2 6.121 6.121 0 016.046-6.2z"/><path class="e" d="M54.177 31.515a3.719 3.719 0 11-3.626 3.719 3.673 3.673 0 013.626-3.719z"/><path class="e" d="M52.298 52.444a3.719 3.719 0 11-3.626 3.717 3.673 3.673 0 013.626-3.717z"/><path class="e" d="M56.06 46.938a2.891 2.891 0 11-2.821 2.89 2.856 2.856 0 012.821-2.89z"/><path class="e" d="M184.749 36.197a8.4 8.4 0 11-8.193 8.4 8.3 8.3 0 018.193-8.4z"/><path class="e" d="M200.332 36.197a5.1 5.1 0 11-4.97 5.095 5.034 5.034 0 014.97-5.095z"/><path class="e" d="M199.257 28.491a2.892 2.892 0 11-2.821 2.891 2.856 2.856 0 012.821-2.891z"/><path class="e" d="M221.556 40.327a5.1 5.1 0 11-4.97 5.095 5.034 5.034 0 014.97-5.095z"/><path class="e" d="M214.84 60.705a5.1 5.1 0 11-4.97 5.095 5.034 5.034 0 014.97-5.095z"/><path class="e" d="M235.526 64.286a5.646 5.646 0 11-5.508 5.645 5.577 5.577 0 015.508-5.645z"/><path class="e" d="M247.348 43.082a4.269 4.269 0 11-4.164 4.267 4.216 4.216 0 014.164-4.267z"/><path class="e" d="M270.991 64.561a2.892 2.892 0 11-2.821 2.891 2.857 2.857 0 012.821-2.891z"/><path class="e" d="M195.226 100.909a6.2 6.2 0 11-6.044 6.2 6.122 6.122 0 016.044-6.2z"/><path class="d" d="M194.69 83.01a4.545 4.545 0 11-4.433 4.544 4.49 4.49 0 014.433-4.544z"/><path class="e" d="M90.449 79.705a5.1 5.1 0 11-4.97 5.095 5.033 5.033 0 014.97-5.095z"/><path class="e" d="M31.074 65.936a8.4 8.4 0 11-8.193 8.4 8.3 8.3 0 018.193-8.4z"/><path class="e" d="M43.97 101.735a6.2 6.2 0 11-6.044 6.2 6.122 6.122 0 016.044-6.2z"/><path class="e" d="M25.163 101.185a3.718 3.718 0 11-3.626 3.717 3.673 3.673 0 013.626-3.717z"/><path class="e" d="M23.015 109.17a2.066 2.066 0 11-2.014 2.065 2.042 2.042 0 012.014-2.065z"/><path class="e" d="M49.344 89.618a3.719 3.719 0 11-3.628 3.719 3.673 3.673 0 013.628-3.719z"/><path class="e" d="M7.165 113.851a3.719 3.719 0 11-3.628 3.717 3.673 3.673 0 013.628-3.717z"/><path class="e" d="M93.405 107.518a5.1 5.1 0 11-4.97 5.095 5.034 5.034 0 014.97-5.095z"/><path class="e" d="M104.419 108.897a3.719 3.719 0 11-3.626 3.717 3.673 3.673 0 013.626-3.717z"/><path class="e" d="M129.404 109.996a4.27 4.27 0 11-4.164 4.269 4.218 4.218 0 014.164-4.269z"/><path class="e" d="M60.359 122.939a5.1 5.1 0 11-4.971 5.095 5.034 5.034 0 014.971-5.095z"/><path class="e" d="M52.031 127.071a2.065 2.065 0 11-2.015 2.064 2.039 2.039 0 012.015-2.064z"/><path class="e" d="M27.045 120.46a4.27 4.27 0 11-4.164 4.269 4.218 4.218 0 014.164-4.269z"/><path class="e" d="M156.54 132.577a2.342 2.342 0 11-2.283 2.34 2.313 2.313 0 012.283-2.34z"/><path class="e" d="M169.435 82.46a6.2 6.2 0 11-6.044 6.2 6.123 6.123 0 016.044-6.2z"/><path class="e" d="M202.75 95.952a2.892 2.892 0 11-2.821 2.891 2.857 2.857 0 012.821-2.891z"/><path class="e" d="M216.183 129.547a5.647 5.647 0 11-5.508 5.646 5.578 5.578 0 015.508-5.646z"/><path class="e" d="M228.81 117.156a3.444 3.444 0 11-3.357 3.443 3.4 3.4 0 013.357-3.443z"/><path class="e" d="M257.826 108.069a3.443 3.443 0 11-3.359 3.443 3.4 3.4 0 013.359-3.443z"/><path class="e" d="M241.975 94.3a5.1 5.1 0 11-4.97 5.095 5.034 5.034 0 014.97-5.095z"/><path class="e" d="M272.333 109.446a6.2 6.2 0 11-6.044 6.2 6.121 6.121 0 016.044-6.2z"/><path class="e" d="M268.304 128.721a6.2 6.2 0 11-6.046 6.2 6.122 6.122 0 016.046-6.2z"/><path class="e" d="M260.243 126.243a2.892 2.892 0 11-2.821 2.891 2.858 2.858 0 012.821-2.891z"/><path class="e" d="M270.991 141.385a2.342 2.342 0 11-2.284 2.34 2.313 2.313 0 012.284-2.34z"/><path class="e" d="M247.348 147.447a4.545 4.545 0 11-4.433 4.544 4.489 4.489 0 014.433-4.544z"/><path class="e" d="M224.516 147.723a3.443 3.443 0 11-3.359 3.441 3.4 3.4 0 013.359-3.441z"/><path class="e" d="M222.094 114.678a2.892 2.892 0 11-2.821 2.891 2.857 2.857 0 012.821-2.891z"/><path class="e" d="M140.69 151.302a5.922 5.922 0 11-5.777 5.919 5.849 5.849 0 015.777-5.919z"/><path class="d" d="M120.271 153.506a5.1 5.1 0 11-4.97 5.093 5.033 5.033 0 014.97-5.093z"/><path class="e" d="M81.851 139.181a8.4 8.4 0 11-8.193 8.4 8.3 8.3 0 018.193-8.4z"/><path class="e" d="M32.417 133.128a6.2 6.2 0 11-6.044 6.2 6.121 6.121 0 016.044-6.2z"/><path class="e" d="M31.612 128.723a2.065 2.065 0 11-2.015 2.064 2.041 2.041 0 012.015-2.064z"/><path class="e" d="M25.971 163.14a3.719 3.719 0 11-3.628 3.717 3.674 3.674 0 013.628-3.717z"/><path class="e" d="M42.355 163.694a2.892 2.892 0 11-2.821 2.891 2.857 2.857 0 012.821-2.891z"/><path class="e" d="M35.104 166.723a5.922 5.922 0 11-5.775 5.921 5.849 5.849 0 015.775-5.921z"/><path class="e" d="M26.238 195.916a4.269 4.269 0 11-4.163 4.267 4.217 4.217 0 014.163-4.267z"/><path class="e" d="M35.373 201.419a4.545 4.545 0 11-4.433 4.544 4.49 4.49 0 014.433-4.544z"/><path class="e" d="M14.417 179.666a3.167 3.167 0 11-3.088 3.166 3.128 3.128 0 013.088-3.166z"/><path class="e" d="M56.867 183.52a3.719 3.719 0 11-3.628 3.717 3.674 3.674 0 013.628-3.717z"/><path class="e" d="M62.511 170.854a3.167 3.167 0 11-3.09 3.166 3.128 3.128 0 013.09-3.166z"/><path class="e" d="M64.121 179.39a3.719 3.719 0 11-3.628 3.717 3.673 3.673 0 013.628-3.717z"/><path class="e" d="M92.058 169.202a5.1 5.1 0 11-4.97 5.093 5.033 5.033 0 014.97-5.093z"/><path class="e" d="M97.433 161.215a4.269 4.269 0 11-4.164 4.269 4.217 4.217 0 014.164-4.269z"/><path class="e" d="M118.39 178.563a4.27 4.27 0 11-4.164 4.269 4.218 4.218 0 014.164-4.269z"/><path class="d" d="M149.018 179.115a4.269 4.269 0 11-4.164 4.269 4.217 4.217 0 014.164-4.269z"/><path class="e" d="M78.091 180.492a5.922 5.922 0 11-5.777 5.919 5.849 5.849 0 015.777-5.919z"/><path class="e" d="M253.795 172.231a4.544 4.544 0 11-4.433 4.544 4.489 4.489 0 014.433-4.544z"/><path class="e" d="M253.795 155.984a2.341 2.341 0 11-2.284 2.34 2.313 2.313 0 012.284-2.34z"/><path class="e" d="M242.514 155.708a2.342 2.342 0 11-2.284 2.342 2.312 2.312 0 012.284-2.342z"/><path class="e" d="M222.094 174.984a4.269 4.269 0 11-4.164 4.269 4.218 4.218 0 014.164-4.269z"/><path class="e" d="M203.558 173.332a6.2 6.2 0 11-6.044 6.2 6.123 6.123 0 016.044-6.2z"/><path class="e" d="M269.646 180.767a4.545 4.545 0 11-4.432 4.544 4.489 4.489 0 014.432-4.544z"/><path class="e" d="M285.498 188.753a5.371 5.371 0 11-5.239 5.37 5.305 5.305 0 015.239-5.37z"/><path class="e" d="M288.721 167.273a6.2 6.2 0 11-6.044 6.2 6.123 6.123 0 016.044-6.2z"/><path class="e" d="M248.959 199.217a4.269 4.269 0 11-4.164 4.267 4.217 4.217 0 014.164-4.267z"/><path class="e" d="M229.616 201.694a5.372 5.372 0 11-5.239 5.37 5.305 5.305 0 015.239-5.37z"/><path class="e" d="M276.633 216.565a2.892 2.892 0 11-2.821 2.891 2.856 2.856 0 012.821-2.891z"/><path class="e" d="M214.301 212.159a3.719 3.719 0 11-3.626 3.717 3.674 3.674 0 013.626-3.717z"/><path class="e" d="M245.736 244.378a3.719 3.719 0 11-3.626 3.717 3.673 3.673 0 013.626-3.717z"/><path class="e" d="M223.704 240.522a8.4 8.4 0 11-8.193 8.4 8.3 8.3 0 018.193-8.4z"/><path class="e" d="M210.809 237.493a3.719 3.719 0 11-3.626 3.716 3.674 3.674 0 013.626-3.717z"/><path class="e" d="M199.257 228.404a5.371 5.371 0 11-5.239 5.37 5.306 5.306 0 015.239-5.37z"/><path class="e" d="M194.152 246.856a5.371 5.371 0 11-5.239 5.37 5.3 5.3 0 015.239-5.37z"/><path class="e" d="M109.255 232.261a8.4 8.4 0 11-8.193 8.4 8.3 8.3 0 018.193-8.4z"/><path class="d" d="M113.553 204.724a5.371 5.371 0 11-5.237 5.37 5.305 5.305 0 015.237-5.37z"/><path class="e" d="M42.359 224.275a8.4 8.4 0 11-8.195 8.4 8.3 8.3 0 018.195-8.4z"/><path class="e" d="M51.224 216.84a5.1 5.1 0 11-4.97 5.095 5.033 5.033 0 014.97-5.095z"/><path class="e" d="M29.463 222.348a4.545 4.545 0 11-4.433 4.544 4.489 4.489 0 014.433-4.544z"/><path class="e" d="M30.807 233.087a3.168 3.168 0 11-3.09 3.166 3.129 3.129 0 013.09-3.166z"/><path class="e" d="M66.27 257.87a5.922 5.922 0 11-5.777 5.921 5.85 5.85 0 015.777-5.921z"/><path class="e" d="M73.255 239.145a4.545 4.545 0 11-4.433 4.545 4.489 4.489 0 014.433-4.545z"/><path class="e" d="M70.299 216.565a3.719 3.719 0 11-3.626 3.717 3.673 3.673 0 013.626-3.717z"/><path class="e" d="M88.031 249.609a5.371 5.371 0 11-5.239 5.37 5.305 5.305 0 015.239-5.37z"/><path class="e" d="M109.524 264.755a4.545 4.545 0 11-4.433 4.544 4.49 4.49 0 014.433-4.544z"/><path class="e" d="M121.345 262.277a5.922 5.922 0 11-5.777 5.919 5.849 5.849 0 015.777-5.919z"/><path class="e" d="M100.927 262.001a3.168 3.168 0 11-3.09 3.168 3.13 3.13 0 013.09-3.168z"/><path class="e" d="M155.196 246.03a5.922 5.922 0 11-5.775 5.919 5.85 5.85 0 015.775-5.919z"/><path class="e" d="M208.122 246.305a6.473 6.473 0 11-6.313 6.471 6.395 6.395 0 016.313-6.471z"/><path class="e" d="M201.137 270.813a4.545 4.545 0 11-4.432 4.544 4.489 4.489 0 014.432-4.544z"/><path class="e" d="M216.183 272.19a5.371 5.371 0 11-5.239 5.37 5.305 5.305 0 015.239-5.37z"/><path class="e" d="M144.718 286.509a6.473 6.473 0 11-6.313 6.471 6.394 6.394 0 016.313-6.471z"/><path class="e" d="M111.404 287.335a4.545 4.545 0 11-4.432 4.544 4.489 4.489 0 014.432-4.544z"/><path class="e" d="M122.958 287.886a5.371 5.371 0 11-5.239 5.37 5.305 5.305 0 015.239-5.37z"/><path class="e" d="M166.48 290.916a4.545 4.545 0 11-4.433 4.544 4.489 4.489 0 014.433-4.544z"/><path class="e" d="M190.123 287.886a3.719 3.719 0 11-3.628 3.717 3.673 3.673 0 013.628-3.717z"/><path class="e" d="M139.882 266.131a3.719 3.719 0 11-3.626 3.719 3.674 3.674 0 013.626-3.719z"/><path class="c" d="M88.096 11.236a4.094 4.094 0 11-3.994 4.094 4.045 4.045 0 013.994-4.094z"/><path class="c" d="M173.285 16.498a4.094 4.094 0 11-3.994 4.094 4.044 4.044 0 013.994-4.094z"/><path class="c" d="M124.986 33.845a8.578 8.578 0 11-8.368 8.576 8.474 8.474 0 018.368-8.576z"/><path class="c" d="M91.138 41.252a3.509 3.509 0 11-3.423 3.507 3.465 3.465 0 013.423-3.507z"/><path class="c" d="M160.354 41.836a3.51 3.51 0 11-3.422 3.509 3.467 3.467 0 013.422-3.509z"/><path class="c" d="M163.396 54.309a3.51 3.51 0 11-3.423 3.509 3.466 3.466 0 013.423-3.509z"/><path class="c" d="M64.897 50.217a6.044 6.044 0 11-5.9 6.043 5.97 5.97 0 015.9-6.043z"/><path class="c" d="M79.918 63.859a3.12 3.12 0 11-3.041 3.119 3.082 3.082 0 013.041-3.119z"/><path class="c" d="M122.134 60.546a1.365 1.365 0 11-1.332 1.366 1.349 1.349 0 011.332-1.366z"/><path class="c" d="M215.119 17.47a5.46 5.46 0 11-5.324 5.458 5.392 5.392 0 015.324-5.458z"/><path class="c" d="M207.893 57.039a2.729 2.729 0 11-2.662 2.728 2.7 2.7 0 012.662-2.728z"/><path class="c" d="M183.363 63.276a2.729 2.729 0 11-2.662 2.728 2.7 2.7 0 012.662-2.728z"/><path class="c" d="M178.799 67.174a2.729 2.729 0 11-2.662 2.728 2.695 2.695 0 012.662-2.728z"/><path class="c" d="M144.001 66.2a3.509 3.509 0 11-3.423 3.507 3.465 3.465 0 013.423-3.507z"/><path class="c" d="M135.634 67.174a3.509 3.509 0 11-3.423 3.507 3.465 3.465 0 013.423-3.507z"/><path class="c" d="M217.781 79.452a3.51 3.51 0 11-3.422 3.509 3.467 3.467 0 013.422-3.509z"/><path class="c" d="M211.506 81.206a1.95 1.95 0 11-1.9 1.949 1.926 1.926 0 011.9-1.949z"/><path class="c" d="M226.72 85.3a8.578 8.578 0 11-8.367 8.576 8.473 8.473 0 018.367-8.576z"/><path class="c" d="M254.861 49.828a3.509 3.509 0 11-3.423 3.507 3.465 3.465 0 013.423-3.507z"/><path class="c" d="M270.073 84.13a3.51 3.51 0 11-3.423 3.509 3.467 3.467 0 013.423-3.509z"/><path class="c" d="M100.076 83.74a3.119 3.119 0 11-3.04 3.115 3.082 3.082 0 013.043-3.119z"/><path class="c" d="M69.27 107.133a6.043 6.043 0 11-5.894 6.041 5.969 5.969 0 015.894-6.041z"/><path class="c" d="M15.837 93.875a4.874 4.874 0 11-4.754 4.873 4.814 4.814 0 014.754-4.873z"/><path class="c" d="M111.485 101.087a4.874 4.874 0 11-4.755 4.873 4.814 4.814 0 014.755-4.873z"/><path class="c" d="M122.894 116.484a2.145 2.145 0 11-2.093 2.145 2.119 2.119 0 012.093-2.145z"/><path class="c" d="M158.643 94.85a4.874 4.874 0 11-4.754 4.873 4.814 4.814 0 014.754-4.873z"/><path class="c" d="M174.619 104.595a4.874 4.874 0 11-4.754 4.873 4.814 4.814 0 014.754-4.873z"/><path class="c" d="M251.438 123.696a5.459 5.459 0 11-5.324 5.458 5.391 5.391 0 015.324-5.458z"/><path class="c" d="M244.783 132.467a2.145 2.145 0 11-2.093 2.143 2.118 2.118 0 012.093-2.143z"/><path class="c" d="M205.797 132.467a2.925 2.925 0 11-2.852 2.924 2.889 2.889 0 012.852-2.924z"/><path class="d" d="M178.419 124.085a2.925 2.925 0 11-2.853 2.924 2.889 2.889 0 012.853-2.924z"/><path class="c" d="M178.039 144.549a2.925 2.925 0 11-2.853 2.925 2.889 2.889 0 012.853-2.925z"/><path class="c" d="M156.741 117.459a2.534 2.534 0 11-2.471 2.534 2.5 2.5 0 012.471-2.534z"/><path class="c" d="M128.598 120.772a2.535 2.535 0 11-2.471 2.534 2.5 2.5 0 012.471-2.534z"/><path class="c" d="M69.27 120.576a3.12 3.12 0 11-3.043 3.119 3.082 3.082 0 013.043-3.119z"/><path class="c" d="M68.89 140.457a4.874 4.874 0 11-4.754 4.873 4.814 4.814 0 014.754-4.873z"/><path class="c" d="M36.754 149.228a3.7 3.7 0 11-3.613 3.7 3.659 3.659 0 013.613-3.7z"/><path class="c" d="M63.755 157.219a6.044 6.044 0 11-5.894 6.041 5.97 5.97 0 015.894-6.041z"/><path class="d" d="M117.19 165.405a4.874 4.874 0 11-4.755 4.873 4.814 4.814 0 014.755-4.873z"/><path class="c" d="M4.238 160.343a3.7 3.7 0 11-3.613 3.7 3.659 3.659 0 013.613-3.7z"/><path class="c" d="M6.136 172.421a5.264 5.264 0 11-5.134 5.264 5.2 5.2 0 015.134-5.264z"/><path class="c" d="M134.113 163.26a3.51 3.51 0 11-3.422 3.509 3.467 3.467 0 013.422-3.509z"/><path class="c" d="M141.909 179.632a1.755 1.755 0 11-1.711 1.755 1.734 1.734 0 011.711-1.755z"/><path class="c" d="M187.736 153.71a2.925 2.925 0 11-2.852 2.924 2.889 2.889 0 012.852-2.924z"/><path class="c" d="M196.293 160.532a2.535 2.535 0 11-2.472 2.534 2.5 2.5 0 012.472-2.534z"/><path class="c" d="M213.787 178.853a3.51 3.51 0 11-3.42 3.509 3.467 3.467 0 013.422-3.509z"/><path class="c" d="M232.234 167.548a4.094 4.094 0 11-3.994 4.092 4.043 4.043 0 013.994-4.092z"/><path class="c" d="M292.893 156.05a5.459 5.459 0 11-5.326 5.456 5.392 5.392 0 015.326-5.456z"/><path class="c" d="M285.664 149.616a4.094 4.094 0 11-3.994 4.092 4.044 4.044 0 013.994-4.092z"/><path class="c" d="M272.736 190.352a4.094 4.094 0 11-3.994 4.094 4.045 4.045 0 013.994-4.094z"/><path class="c" d="M238.508 208.869a3.509 3.509 0 11-3.423 3.507 3.465 3.465 0 013.423-3.507z"/><path class="c" d="M170.432 187.429a4.874 4.874 0 11-4.751 4.875 4.814 4.814 0 014.754-4.873z"/><path class="d" d="M162.826 192.686a2.925 2.925 0 11-2.853 2.924 2.889 2.889 0 012.853-2.924z"/><path class="c" d="M97.793 203.216a3.51 3.51 0 11-3.422 3.509 3.467 3.467 0 013.422-3.509z"/><path class="c" d="M20.78 204.19a6.044 6.044 0 11-5.894 6.043 5.97 5.97 0 015.894-6.043z"/><path class="c" d="M61.093 218.029a4.289 4.289 0 11-4.183 4.286 4.236 4.236 0 014.183-4.286z"/><path class="c" d="M121.944 213.546a3.119 3.119 0 11-3.043 3.118 3.082 3.082 0 013.043-3.118z"/><path class="d" d="M133.542 205.945a6.044 6.044 0 11-5.894 6.041 5.969 5.969 0 015.894-6.041z"/><path class="c" d="M93.989 237.909a6.044 6.044 0 11-5.894 6.041 5.969 5.969 0 015.894-6.041z"/><path class="c" d="M136.394 245.897a3.509 3.509 0 11-3.422 3.507 3.466 3.466 0 013.422-3.507z"/><path class="c" d="M132.973 229.138a3.9 3.9 0 11-3.8 3.9 3.852 3.852 0 013.8-3.9z"/><path class="c" d="M41.698 242.976a3.9 3.9 0 11-3.8 3.9 3.852 3.852 0 013.8-3.9z"/><path class="c" d="M172.524 207.699a4.874 4.874 0 11-4.754 4.873 4.814 4.814 0 014.754-4.873z"/><path class="c" d="M183.186 217.231a7.932 7.932 0 11-7.736 7.929 7.835 7.835 0 017.736-7.929z"/><path class="c" d="M195.006 222.73a2.925 2.925 0 11-2.852 2.924 2.889 2.889 0 012.852-2.924z"/><path class="c" d="M231.331 258.754a5.225 5.225 0 11-5.1 5.223 5.161 5.161 0 015.1-5.223z"/><path class="c" d="M227.021 270.082a4.2 4.2 0 11-4.1 4.2 4.152 4.152 0 014.1-4.2z"/><path class="c" d="M174.44 265.371a4.792 4.792 0 11-4.673 4.79 4.734 4.734 0 014.673-4.79z"/><path class="c" d="M171.076 237.696a3.119 3.119 0 11-3.042 3.118 3.081 3.081 0 013.043-3.118z"/><path class="c" d="M134.01 284.52a3.119 3.119 0 11-3.041 3.119 3.082 3.082 0 013.041-3.119z"/><path class="c" d="M131.508 279.663a1.946 1.946 0 11-1.9 1.945 1.921 1.921 0 011.9-1.945z"/><path class="c" d="M78.887 262.906a8.491 8.491 0 11-8.282 8.489 8.388 8.388 0 018.282-8.489z"/><path class="f" d="M98.619 11.111a5.385 5.385 0 11-5.252 5.383 5.319 5.319 0 015.252-5.383z"/><path class="f" d="M144.388 44.182a6.154 6.154 0 11-6 6.152 6.078 6.078 0 016-6.152z"/><path class="f" d="M175.152 2.652a6.539 6.539 0 11-6.378 6.537 6.458 6.458 0 016.378-6.537z"/><path class="f" d="M174.026 48.218a4.808 4.808 0 11-4.689 4.807 4.749 4.749 0 014.689-4.807z"/><path class="f" d="M209.479 26.877a3.847 3.847 0 11-3.751 3.844 3.8 3.8 0 013.751-3.844z"/><path class="f" d="M201.975 61.869a4.424 4.424 0 11-4.314 4.422 4.369 4.369 0 014.314-4.422z"/><path class="f" d="M213.042 71.868a3.846 3.846 0 11-3.751 3.845 3.8 3.8 0 013.751-3.845z"/><path class="f" d="M131.257 71.675a2.115 2.115 0 11-2.062 2.115 2.089 2.089 0 012.062-2.115z"/><path class="f" d="M157.893 84.172a4.808 4.808 0 11-4.689 4.807 4.749 4.749 0 014.689-4.807z"/><path class="f" d="M262.752 86.479a3.846 3.846 0 11-3.753 3.845 3.8 3.8 0 013.753-3.845z"/><path class="f" d="M271.38 71.482a5.77 5.77 0 11-5.628 5.768 5.7 5.7 0 015.628-5.768z"/><path class="f" d="M109.197 65.81a5.77 5.77 0 11-5.628 5.768 5.7 5.7 0 015.628-5.768z"/><path class="f" d="M74.794 56.649a4.2 4.2 0 11-4.1 4.2 4.148 4.148 0 014.1-4.2z"/><path class="f" d="M45.746 69.907a4.2 4.2 0 11-4.1 4.2 4.148 4.148 0 014.1-4.2z"/><path class="f" d="M16.272 85.12a4.2 4.2 0 11-4.1 4.2 4.149 4.149 0 014.1-4.2z"/><path class="f" d="M22.421 89.904a2.676 2.676 0 11-2.609 2.675 2.644 2.644 0 012.609-2.675z"/><path class="f" d="M86.032 107.29a2.242 2.242 0 11-2.186 2.24 2.213 2.213 0 012.186-2.24z"/><path class="f" d="M80.307 110.114a4.2 4.2 0 11-4.1 4.2 4.148 4.148 0 014.1-4.2z"/><path class="f" d="M60.799 101.857a3.545 3.545 0 11-3.457 3.544 3.5 3.5 0 013.457-3.544z"/><path class="f" d="M149.218 90.988a4.852 4.852 0 11-4.733 4.851 4.792 4.792 0 014.733-4.851z"/><path class="f" d="M175.722 114.459a4.2 4.2 0 11-4.1 4.2 4.149 4.149 0 014.1-4.2z"/><path class="f" d="M219.857 101.337a6.342 6.342 0 11-6.187 6.34 6.264 6.264 0 016.187-6.34z"/><path class="f" d="M258.202 116.85a4.2 4.2 0 11-4.1 4.2 4.148 4.148 0 014.1-4.2z"/><path class="f" d="M259.147 135.503a2.855 2.855 0 11-2.783 2.853 2.819 2.819 0 012.783-2.853z"/><path class="f" d="M204.802 138.489a8.527 8.527 0 11-8.317 8.524 8.422 8.422 0 018.317-8.524z"/><path class="f" d="M166.635 156.321a6.342 6.342 0 11-6.185 6.34 6.265 6.265 0 016.185-6.34z"/><path class="f" d="M143.8 130.814a3.846 3.846 0 11-3.751 3.845 3.8 3.8 0 013.751-3.845z"/><path class="f" d="M112.566 142.412a6.342 6.342 0 11-6.185 6.341 6.264 6.264 0 016.185-6.341z"/><path class="f" d="M72.28 127.418a6.342 6.342 0 11-6.185 6.34 6.264 6.264 0 016.185-6.34z"/><path class="f" d="M41.536 118.288a8.081 8.081 0 11-7.882 8.079 7.983 7.983 0 017.882-8.079z"/><path class="f" d="M43.413 134.889a4.2 4.2 0 11-4.1 4.2 4.149 4.149 0 014.1-4.2z"/><path class="f" d="M46.169 144.233a3.548 3.548 0 11-3.46 3.547 3.5 3.5 0 013.46-3.547z"/><path class="f" d="M12.879 162.923a5.5 5.5 0 11-5.368 5.5 5.438 5.438 0 015.368-5.5z"/><path class="f" d="M70.977 172.704a4.2 4.2 0 11-4.1 4.2 4.148 4.148 0 014.1-4.2z"/><path class="f" d="M75.218 155.534a4.2 4.2 0 11-4.1 4.2 4.149 4.149 0 014.1-4.2z"/><path class="f" d="M38.748 179.226a3.763 3.763 0 11-3.67 3.762 3.715 3.715 0 013.67-3.762z"/><path class="f" d="M130.558 171.402a3.763 3.763 0 11-3.67 3.762 3.717 3.717 0 013.67-3.762z"/><path class="f" d="M282.587 157.708a4.2 4.2 0 11-4.1 4.2 4.149 4.149 0 014.1-4.2z"/><path class="f" d="M208.164 185.96a5.07 5.07 0 11-4.945 5.068 5.009 5.009 0 014.945-5.068z"/><path class="f" d="M277.313 198.255a8.526 8.526 0 11-8.317 8.523 8.421 8.421 0 018.317-8.523z"/><path class="f" d="M230.427 214.436a5.069 5.069 0 11-4.945 5.068 5.007 5.007 0 014.945-5.068z"/><path class="d" d="M156.85 187.481a4.2 4.2 0 11-4.1 4.2 4.149 4.149 0 014.1-4.2z"/><path class="f" d="M46.382 184.874a5.5 5.5 0 11-5.37 5.5 5.437 5.437 0 015.37-5.5z"/><path class="d" d="M79.489 207.609a6.342 6.342 0 11-6.185 6.341 6.265 6.265 0 016.185-6.341z"/><path class="f" d="M96.209 228.34a4.418 4.418 0 11-4.308 4.416 4.363 4.363 0 014.308-4.416z"/><path class="f" d="M82.311 233.715a4.418 4.418 0 11-4.308 4.416 4.363 4.363 0 014.308-4.416z"/><path class="f" d="M118.259 246.161a4.417 4.417 0 11-4.308 4.416 4.363 4.363 0 014.308-4.416z"/><path class="f" d="M127.202 236.949a6.342 6.342 0 11-6.185 6.341 6.264 6.264 0 016.185-6.341z"/><path class="f" d="M51.288 245.642a6.342 6.342 0 11-6.185 6.341 6.264 6.264 0 016.185-6.341z"/><path class="f" d="M176.993 233.123a2.676 2.676 0 11-2.609 2.675 2.644 2.644 0 012.609-2.675z"/><path class="f" d="M242.089 217.039a6.374 6.374 0 11-6.218 6.372 6.3 6.3 0 016.218-6.372z"/><path class="f" d="M183.567 256.161a4.415 4.415 0 11-4.307 4.413 4.361 4.361 0 014.307-4.413z"/><path class="f" d="M222.577 257.816a3.194 3.194 0 11-3.115 3.193 3.155 3.155 0 013.115-3.193z"/><path class="f" d="M142.039 273.981a5.6 5.6 0 11-5.465 5.6 5.537 5.537 0 015.465-5.6z"/><path class="f" d="M190.383 266.374a5.6 5.6 0 11-5.467 5.6 5.535 5.535 0 015.467-5.6z"/><path class="f" d="M157.101.885a8.461 8.461 0 11-8.251 8.458 8.356 8.356 0 018.251-8.458z"/><path class="f" d="M235.658 32.372a8.461 8.461 0 11-8.252 8.458 8.358 8.358 0 018.252-8.458z"/><path class="f" d="M200.548 10.228a2.264 2.264 0 11-2.208 2.264 2.237 2.237 0 012.208-2.264z"/><path class="f" d="M209.329 14.051a2.265 2.265 0 11-2.209 2.264 2.237 2.237 0 012.209-2.264z"/><path class="f" d="M143.276 22.597a2.265 2.265 0 11-2.209 2.265 2.237 2.237 0 012.209-2.265z"/><path class="f" d="M168.291 24.396a2.265 2.265 0 11-2.209 2.265 2.238 2.238 0 012.209-2.265z"/><path class="f" d="M205.819 33.98a1.9 1.9 0 11-1.857 1.9 1.879 1.879 0 011.857-1.9z"/><path class="f" d="M116.725 17.2a2.265 2.265 0 11-2.208 2.264 2.237 2.237 0 012.208-2.264z"/><path class="f" d="M113.432 21.248a2.265 2.265 0 11-2.209 2.264 2.238 2.238 0 012.209-2.264z"/><path class="f" d="M137.568 13.826a3.615 3.615 0 11-3.525 3.613 3.57 3.57 0 013.525-3.613z"/><path class="f" d="M135.815 21.922a3.615 3.615 0 11-3.526 3.615 3.571 3.571 0 013.526-3.615z"/><path class="f" d="M161.708 19.673a3.615 3.615 0 11-3.525 3.615 3.571 3.571 0 013.525-3.615z"/><path class="f" d="M104.216 27.995a3.615 3.615 0 11-3.525 3.615 3.571 3.571 0 013.525-3.615z"/><path class="f" d="M91.707 19.673a3.615 3.615 0 11-3.525 3.615 3.571 3.571 0 013.525-3.615z"/><path class="f" d="M193.526 33.619a2.265 2.265 0 11-2.209 2.264 2.237 2.237 0 012.209-2.264z"/><path class="f" d="M192.869 23.496a2.94 2.94 0 11-2.868 2.94 2.9 2.9 0 012.868-2.94z"/><path class="f" d="M158.635 34.293a2.94 2.94 0 11-2.866 2.938 2.9 2.9 0 012.866-2.938z"/><path class="f" d="M213.056 50.711a3.841 3.841 0 11-3.745 3.839 3.793 3.793 0 013.745-3.839z"/><path class="f" d="M225.564 60.832a3.84 3.84 0 11-3.745 3.838 3.791 3.791 0 013.745-3.838z"/><path class="f" d="M120.454 2.13a3.84 3.84 0 11-3.745 3.835 3.793 3.793 0 013.745-3.839z"/><path class="f" d="M112.771 44.414a3.84 3.84 0 11-3.744 3.839 3.792 3.792 0 013.744-3.839z"/><path class="f" d="M208.008 68.476a2.265 2.265 0 11-2.209 2.265 2.238 2.238 0 012.209-2.265z"/><path class="f" d="M169.827 36.992a5.19 5.19 0 11-5.062 5.187 5.126 5.126 0 015.062-5.187z"/><path class="f" d="M116.285 52.735a5.19 5.19 0 11-5.062 5.189 5.126 5.126 0 015.062-5.189z"/><path class="f" d="M221.394 28.669a5.19 5.19 0 11-5.061 5.189 5.127 5.127 0 015.061-5.189z"/><path class="f" d="M154.907 49.808a4.741 4.741 0 11-4.623 4.739 4.683 4.683 0 014.623-4.739z"/><path class="f" d="M109.922 4.828a6.315 6.315 0 11-6.159 6.313 6.238 6.238 0 016.159-6.313z"/><path class="f" d="M184.09 13.601a6.315 6.315 0 11-6.159 6.312 6.237 6.237 0 016.159-6.312z"/><path class="f" d="M103.339 36.317a6.314 6.314 0 11-6.159 6.312 6.237 6.237 0 016.159-6.312z"/><path class="f" d="M82.492 34.743a4.74 4.74 0 11-4.623 4.738 4.681 4.681 0 014.623-4.738z"/><path class="f" d="M91.045 50.036a4.74 4.74 0 11-4.623 4.739 4.683 4.683 0 014.623-4.739z"/><path class="f" d="M73.496 34.968a3.615 3.615 0 11-3.526 3.613 3.57 3.57 0 013.526-3.613z"/><path class="f" d="M56.6 60.388a3.615 3.615 0 11-3.525 3.613 3.571 3.571 0 013.525-3.613z"/><path class="f" d="M61.866 43.633a2.821 2.821 0 11-2.752 2.821 2.787 2.787 0 012.752-2.821z"/><path class="f" d="M30.925 56.785a4.29 4.29 0 11-4.183 4.288 4.236 4.236 0 014.183-4.288z"/><path class="f" d="M76.129 43.289a6.315 6.315 0 11-6.159 6.313 6.238 6.238 0 016.159-6.313z"/><path class="f" d="M43.872 44.414a5.64 5.64 0 11-5.5 5.639 5.572 5.572 0 015.5-5.639z"/><path class="f" d="M96.756 68.704a3.615 3.615 0 11-3.526 3.615 3.57 3.57 0 013.526-3.615z"/><path class="f" d="M82.931 70.279a3.615 3.615 0 11-3.526 3.615 3.57 3.57 0 013.526-3.615z"/><path class="f" d="M28.072 84.224a4.065 4.065 0 11-3.964 4.064 4.016 4.016 0 013.964-4.064z"/><path class="f" d="M42.556 78.044a2.822 2.822 0 11-2.752 2.821 2.788 2.788 0 012.752-2.821z"/><path class="f" d="M34.876 92.436a2.822 2.822 0 11-2.752 2.821 2.787 2.787 0 012.752-2.821z"/><path class="f" d="M148.103 83.218a3.5 3.5 0 11-3.41 3.5 3.453 3.453 0 013.41-3.5z"/><path class="f" d="M102.242 75.345a3.5 3.5 0 11-3.41 3.5 3.454 3.454 0 013.41-3.5z"/><path class="f" d="M94.122 91.09a3.5 3.5 0 11-3.41 3.5 3.453 3.453 0 013.41-3.5z"/><path class="f" d="M56.38 68.62a4.153 4.153 0 11-4.051 4.153 4.1 4.1 0 014.051-4.153z"/><path class="f" d="M52.65 77.252a6.315 6.315 0 11-6.159 6.312 6.236 6.236 0 016.159-6.312z"/><path class="f" d="M75.47 77.477a8.339 8.339 0 11-8.128 8.336 8.237 8.237 0 018.133-8.336z"/><path class="d" d="M110.141 79.051a5.19 5.19 0 11-5.062 5.187 5.126 5.126 0 015.062-5.187z"/><path class="f" d="M136.916 89.621a6.315 6.315 0 11-6.162 6.314 6.238 6.238 0 016.158-6.313z"/><path class="f" d="M184.97 77.477a4.74 4.74 0 11-4.623 4.738 4.681 4.681 0 014.623-4.738z"/><path class="f" d="M204.278 79.5a3.84 3.84 0 11-3.745 3.838 3.793 3.793 0 013.745-3.838z"/><path class="d" d="M182.117 89.171a8.34 8.34 0 11-8.135 8.337 8.237 8.237 0 018.135-8.337z"/><path class="f" d="M238.95 76.352a4.29 4.29 0 11-4.185 4.288 4.236 4.236 0 014.185-4.288z"/><path class="f" d="M248.824 70.503a5.64 5.64 0 11-5.5 5.639 5.572 5.572 0 015.5-5.639z"/><path class="f" d="M223.808 70.054a5.19 5.19 0 11-5.061 5.189 5.127 5.127 0 015.061-5.189z"/><path class="f" d="M244.435 64.21a2.265 2.265 0 11-2.209 2.265 2.238 2.238 0 012.209-2.265z"/><path class="f" d="M249.702 55.66a2.265 2.265 0 11-2.209 2.264 2.237 2.237 0 012.209-2.264z"/><path class="f" d="M258.479 68.476a2.94 2.94 0 11-2.868 2.94 2.906 2.906 0 012.868-2.94z"/><path class="f" d="M195.283 93.446a2.939 2.939 0 11-2.868 2.938 2.9 2.9 0 012.868-2.938z"/><path class="f" d="M210.199 95.47a2.939 2.939 0 11-2.868 2.938 2.9 2.9 0 012.868-2.938z"/><path class="f" d="M232.586 102.217a3.84 3.84 0 11-3.745 3.838 3.793 3.793 0 013.745-3.838z"/><path class="f" d="M258.26 94.57a3.165 3.165 0 11-3.087 3.163 3.125 3.125 0 013.087-3.163z"/><path class="f" d="M154.248 104.466a2.265 2.265 0 11-2.209 2.265 2.238 2.238 0 012.209-2.265z"/><path class="f" d="M264.623 99.293a5.19 5.19 0 11-5.062 5.187 5.125 5.125 0 015.062-5.187z"/><path class="f" d="M279.544 81.525a4.965 4.965 0 11-4.842 4.964 4.9 4.9 0 014.842-4.964z"/><path class="f" d="M289.638 105.812a2.265 2.265 0 11-2.209 2.264 2.238 2.238 0 012.209-2.264z"/><path class="f" d="M240.924 105.141a3.615 3.615 0 11-3.525 3.615 3.571 3.571 0 013.525-3.615z"/><path class="f" d="M91.27 98.961a3.5 3.5 0 11-3.41 3.5 3.454 3.454 0 013.41-3.5z"/><path class="d" d="M100.047 101.885a3.5 3.5 0 11-3.41 3.5 3.454 3.454 0 013.41-3.5z"/><path class="f" d="M68.448 99.186a3.5 3.5 0 11-3.41 3.5 3.453 3.453 0 013.41-3.5z"/><path class="f" d="M34.217 99.743a3.615 3.615 0 11-3.525 3.613 3.57 3.57 0 013.525-3.613z"/><path class="f" d="M8.324 102.217a5.415 5.415 0 11-5.281 5.414 5.349 5.349 0 015.281-5.414z"/><path class="f" d="M10.237 129.8a6.824 6.824 0 11-6.656 6.823 6.742 6.742 0 016.656-6.823z"/><path class="f" d="M31.552 107.574a6.315 6.315 0 11-6.159 6.313 6.238 6.238 0 016.159-6.313z"/><path class="f" d="M21.547 113.913a3.5 3.5 0 11-3.41 3.5 3.454 3.454 0 013.41-3.5z"/><path class="f" d="M57.001 112.131a3.5 3.5 0 11-3.41 3.5 3.452 3.452 0 013.41-3.5z"/><path class="f" d="M53.649 105.02a2.821 2.821 0 11-2.753 2.821 2.788 2.788 0 012.753-2.821z"/><path class="f" d="M14.281 112.823a2.822 2.822 0 11-2.752 2.821 2.787 2.787 0 012.752-2.821z"/><path class="f" d="M20.371 131.326a2.822 2.822 0 11-2.752 2.821 2.787 2.787 0 012.752-2.821z"/><path class="f" d="M26.243 129.32a2.822 2.822 0 11-2.752 2.821 2.787 2.787 0 012.752-2.821z"/><path class="f" d="M2.753 141.135A2.822 2.822 0 110 143.956a2.787 2.787 0 012.753-2.821z"/><path class="f" d="M75.548 117.47a2.089 2.089 0 11-2.037 2.089 2.064 2.064 0 012.037-2.089z"/><path class="f" d="M86.719 117.69a3.5 3.5 0 11-3.41 3.5 3.454 3.454 0 013.41-3.5z"/><path class="f" d="M83.318 129.035a4.064 4.064 0 11-3.964 4.063 4.015 4.015 0 013.964-4.063z"/><path class="f" d="M94.629 138.398a4.065 4.065 0 11-3.964 4.063 4.015 4.015 0 013.964-4.063z"/><path class="f" d="M97.516 132.184a2.089 2.089 0 11-2.037 2.089 2.064 2.064 0 012.037-2.089z"/><path class="f" d="M52.869 132.408a4.7 4.7 0 11-4.588 4.7 4.646 4.646 0 014.588-4.7z"/><path class="f" d="M138.919 110.762a3.5 3.5 0 11-3.41 3.5 3.454 3.454 0 013.41-3.5z"/><path class="f" d="M136.09 132.8a2.822 2.822 0 11-2.752 2.821 2.789 2.789 0 012.752-2.821z"/><path class="d" d="M144.26 138.915a5.76 5.76 0 11-5.622 5.759 5.691 5.691 0 015.618-5.759z"/><path class="f" d="M158.717 138.915a5.76 5.76 0 11-5.618 5.759 5.69 5.69 0 015.618-5.759z"/><path class="f" d="M163.007 106.042a5.76 5.76 0 11-5.618 5.758 5.689 5.689 0 015.618-5.758z"/><path class="f" d="M85.763 157.112a6.315 6.315 0 11-6.16 6.312 6.237 6.237 0 016.16-6.312z"/><path class="f" d="M152.844 157.899a5.76 5.76 0 11-5.618 5.759 5.691 5.691 0 015.618-5.759z"/><path class="f" d="M56.849 144.241a5.76 5.76 0 11-5.618 5.758 5.689 5.689 0 015.618-5.758z"/><path class="f" d="M38.712 143.603a2.822 2.822 0 11-2.752 2.821 2.787 2.787 0 012.752-2.821z"/><path class="f" d="M71.806 150.769a2.264 2.264 0 11-2.209 2.264 2.237 2.237 0 012.209-2.264z"/><path class="f" d="M107.657 155.68a5.19 5.19 0 11-5.062 5.189 5.126 5.126 0 015.062-5.189z"/><path class="d" d="M130.26 155.68a3.5 3.5 0 11-3.41 3.5 3.454 3.454 0 013.41-3.5z"/><path class="f" d="M125.743 164.018a3.5 3.5 0 11-3.41 3.5 3.454 3.454 0 013.41-3.5z"/><path class="f" d="M143.544 163.591a2.822 2.822 0 11-2.752 2.822 2.788 2.788 0 012.752-2.822z"/><path class="f" d="M237.771 120.712a6.37 6.37 0 11-6.212 6.368 6.292 6.292 0 016.212-6.368z"/><path class="f" d="M262.073 142.187a8.34 8.34 0 11-8.133 8.337 8.239 8.239 0 018.133-8.337z"/><path class="f" d="M196.261 130.26a4.74 4.74 0 11-4.623 4.739 4.682 4.682 0 014.623-4.739z"/><path class="f" d="M276.219 121.926a4.74 4.74 0 11-4.623 4.739 4.683 4.683 0 014.623-4.739z"/><path class="f" d="M198.857 114.412a4.35 4.35 0 11-4.242 4.348 4.3 4.3 0 014.242-4.348z"/><path class="f" d="M209.698 112.329a4.349 4.349 0 11-4.242 4.348 4.3 4.3 0 014.242-4.348z"/><path class="f" d="M230.706 139.646a4.35 4.35 0 11-4.244 4.35 4.3 4.3 0 014.244-4.35z"/><path class="f" d="M197.389 124.376a2.265 2.265 0 11-2.209 2.264 2.237 2.237 0 012.209-2.264z"/><path class="f" d="M263.116 113.031a2.265 2.265 0 11-2.209 2.265 2.238 2.238 0 012.209-2.265z"/><path class="f" d="M251.823 143.589a2.265 2.265 0 11-2.209 2.265 2.238 2.238 0 012.209-2.265z"/><path class="f" d="M218.62 163.038a2.265 2.265 0 11-2.209 2.264 2.237 2.237 0 012.209-2.264z"/><path class="f" d="M227.914 131.829a3.5 3.5 0 11-3.412 3.5 3.453 3.453 0 013.412-3.5z"/><path class="f" d="M224.75 123.726a3.5 3.5 0 11-3.41 3.5 3.453 3.453 0 013.41-3.5z"/><path class="f" d="M228.558 111.179a2.265 2.265 0 11-2.209 2.265 2.238 2.238 0 012.209-2.265z"/><path class="f" d="M216.542 151.282a3.5 3.5 0 11-3.41 3.5 3.453 3.453 0 013.41-3.5z"/><path class="f" d="M251.736 136.737a2.822 2.822 0 11-2.753 2.821 2.788 2.788 0 012.753-2.821z"/><path class="f" d="M275.12 150.338a3.971 3.971 0 11-3.873 3.97 3.924 3.924 0 013.873-3.97z"/><path class="f" d="M290.849 131.974a5.992 5.992 0 11-5.844 5.991 5.919 5.919 0 015.844-5.991z"/><path class="f" d="M293.414 123.021a3.971 3.971 0 11-3.873 3.969 3.922 3.922 0 013.873-3.969z"/><path class="f" d="M25.959 143.88a2.822 2.822 0 11-2.752 2.821 2.787 2.787 0 012.752-2.821z"/><path class="f" d="M24.364 172.205a2.822 2.822 0 11-2.752 2.821 2.787 2.787 0 012.752-2.821z"/><path class="f" d="M7.886 183.423a3.318 3.318 0 11-3.235 3.318 3.279 3.279 0 013.235-3.318z"/><path class="f" d="M26.13 150.432a5.415 5.415 0 11-5.281 5.414 5.349 5.349 0 015.281-5.414z"/><path class="f" d="M49.835 167.858a8.266 8.266 0 11-8.061 8.264 8.165 8.165 0 018.061-8.264z"/><path class="f" d="M17.359 187.479a5.415 5.415 0 11-5.281 5.414 5.349 5.349 0 015.281-5.414z"/><path class="f" d="M34.634 187.479a5.415 5.415 0 11-5.28 5.414 5.348 5.348 0 015.28-5.414z"/><path class="f" d="M67.058 188.024a5.415 5.415 0 11-5.281 5.414 5.349 5.349 0 015.281-5.414z"/><path class="f" d="M56.542 192.087a3.615 3.615 0 11-3.526 3.615 3.571 3.571 0 013.526-3.615z"/><path class="f" d="M81.458 170.711a4.065 4.065 0 11-3.964 4.064 4.016 4.016 0 013.964-4.064z"/><path class="f" d="M106.547 167.667a5.76 5.76 0 11-5.618 5.759 5.69 5.69 0 015.618-5.759z"/><path class="f" d="M132.949 179.882a8.067 8.067 0 11-7.867 8.064 7.969 7.969 0 017.867-8.064z"/><path class="d" d="M122.982 173.448a2.822 2.822 0 11-2.752 2.821 2.788 2.788 0 012.752-2.821z"/><path class="f" d="M151.787 170.931a3.5 3.5 0 11-3.41 3.5 3.454 3.454 0 013.41-3.5z"/><path class="f" d="M169.253 169.828a3.118 3.118 0 11-3.041 3.116 3.08 3.08 0 013.041-3.116z"/><path class="f" d="M198.196 185.707a2.822 2.822 0 11-2.752 2.821 2.787 2.787 0 012.752-2.821z"/><path class="f" d="M119.842 188.047a4.089 4.089 0 11-3.988 4.088 4.039 4.039 0 013.988-4.088z"/><path class="f" d="M201.963 164.077a4.088 4.088 0 11-3.988 4.086 4.038 4.038 0 013.988-4.086z"/><path class="f" d="M227.331 155.124a5.992 5.992 0 11-5.843 5.99 5.919 5.919 0 015.843-5.99z"/><path class="f" d="M214.006 167.802a4.35 4.35 0 11-4.242 4.35 4.3 4.3 0 014.242-4.35z"/><path class="f" d="M244.305 170.254a4.35 4.35 0 11-4.244 4.35 4.3 4.3 0 014.244-4.35z"/><path class="f" d="M270.614 170.527a4.349 4.349 0 11-4.242 4.348 4.3 4.3 0 014.242-4.348z"/><path class="f" d="M288.299 180.973a3.5 3.5 0 11-3.41 3.5 3.454 3.454 0 013.41-3.5z"/><path class="f" d="M258.921 182.245a4.35 4.35 0 11-4.242 4.349 4.3 4.3 0 014.242-4.349z"/><path class="f" d="M253.06 190.927a3.971 3.971 0 11-3.873 3.969 3.922 3.922 0 013.873-3.969z"/><path class="f" d="M229.763 177.914a2.265 2.265 0 11-2.209 2.264 2.237 2.237 0 012.209-2.264z"/><path class="f" d="M219.531 184.307a3.971 3.971 0 11-3.873 3.97 3.923 3.923 0 013.873-3.97z"/><path class="f" d="M217.232 198.165a5.992 5.992 0 11-5.844 5.99 5.918 5.918 0 015.844-5.99z"/><path class="f" d="M259.032 203.03a7.407 7.407 0 11-7.225 7.4 7.316 7.316 0 017.225-7.4z"/><path class="f" d="M200.186 205.394a4.35 4.35 0 11-4.242 4.35 4.3 4.3 0 014.242-4.35z"/><path class="f" d="M208.589 206.329a3.119 3.119 0 11-3.041 3.118 3.08 3.08 0 013.041-3.118z"/><path class="f" d="M194.208 216.494a2.822 2.822 0 11-2.753 2.821 2.788 2.788 0 012.753-2.821z"/><path class="f" d="M220.594 218.829a3.5 3.5 0 11-3.416 3.5 3.461 3.461 0 013.416-3.5z"/><path class="f" d="M239.786 199.129a4.35 4.35 0 11-4.242 4.348 4.3 4.3 0 014.242-4.348z"/><path class="f" d="M254.935 223.733a4.807 4.807 0 11-4.689 4.805 4.748 4.748 0 014.689-4.805z"/><path class="f" d="M265.033 229.366a4.35 4.35 0 11-4.245 4.345 4.3 4.3 0 014.242-4.349z"/><path class="f" d="M272.196 222.253a3.971 3.971 0 11-3.873 3.97 3.923 3.923 0 013.873-3.97z"/><path class="f" d="M229.989 226.221a5.992 5.992 0 11-5.843 5.99 5.919 5.919 0 015.843-5.99z"/><path class="f" d="M246.682 229.608a3.971 3.971 0 11-3.873 3.97 3.923 3.923 0 013.873-3.97z"/><path class="f" d="M219 232.995a3.5 3.5 0 11-3.416 3.5 3.461 3.461 0 013.416-3.5z"/><path class="f" d="M237.027 243.921a3.119 3.119 0 11-3.041 3.118 3.08 3.08 0 013.041-3.118z"/><path class="f" d="M201.149 240.108a3.118 3.118 0 11-3.041 3.116 3.079 3.079 0 013.041-3.116z"/><path class="f" d="M161.815 236.69a3.266 3.266 0 11-3.187 3.262 3.226 3.226 0 013.185-3.266z"/><path class="f" d="M160.456 229.564a2.822 2.822 0 11-2.752 2.821 2.787 2.787 0 012.752-2.821z"/><path class="f" d="M166.301 252.446a2.822 2.822 0 11-2.752 2.821 2.787 2.787 0 012.752-2.821z"/><path class="f" d="M210.552 226.728a4.808 4.808 0 11-4.689 4.807 4.75 4.75 0 014.689-4.807z"/><path class="f" d="M184.543 236.264a6.574 6.574 0 11-6.412 6.572 6.493 6.493 0 016.412-6.572z"/><path class="f" d="M156.069 196.405a4.349 4.349 0 11-4.242 4.348 4.3 4.3 0 014.242-4.348z"/><path class="f" d="M253.87 248.161a4.35 4.35 0 11-4.242 4.348 4.3 4.3 0 014.242-4.348z"/><path class="f" d="M246.164 253.425a4.807 4.807 0 11-4.689 4.805 4.747 4.747 0 014.689-4.805z"/><path class="d" d="M122.717 207.227a2.822 2.822 0 11-2.752 2.821 2.787 2.787 0 012.752-2.821z"/><path class="f" d="M136.878 196.297a3.971 3.971 0 11-3.873 3.97 3.922 3.922 0 013.873-3.97z"/><path class="f" d="M143.064 234.878a5.415 5.415 0 11-5.281 5.412 5.348 5.348 0 015.281-5.412z"/><path class="f" d="M151.981 238.745a3.119 3.119 0 11-3.041 3.118 3.081 3.081 0 013.041-3.118z"/><path class="f" d="M142.425 253.474a5.76 5.76 0 11-5.618 5.759 5.691 5.691 0 015.618-5.759z"/><path class="f" d="M125.981 251.867a3.971 3.971 0 11-3.873 3.97 3.922 3.922 0 013.873-3.97z"/><path class="f" d="M118.464 255.987a2.821 2.821 0 11-2.752 2.821 2.787 2.787 0 012.752-2.821z"/><path class="f" d="M83.426 221.331a5.76 5.76 0 11-5.618 5.758 5.689 5.689 0 015.618-5.758z"/><path class="f" d="M75.877 199.59a4.065 4.065 0 11-3.964 4.063 4.015 4.015 0 013.964-4.063z"/><path class="f" d="M100.435 249.933a5.76 5.76 0 11-5.618 5.759 5.691 5.691 0 015.618-5.759z"/><path class="f" d="M82.687 243.121a3.5 3.5 0 11-3.41 3.5 3.454 3.454 0 013.41-3.5z"/><path class="f" d="M66.374 234.74a2.822 2.822 0 11-2.753 2.821 2.786 2.786 0 012.753-2.821z"/><path class="f" d="M67.468 225.125a3.119 3.119 0 11-3.041 3.118 3.08 3.08 0 013.041-3.118z"/><path class="f" d="M61.357 252.094a3.118 3.118 0 11-3.043 3.118 3.08 3.08 0 013.043-3.118z"/><path class="f" d="M192.423 258.327a3.5 3.5 0 11-3.416 3.5 3.46 3.46 0 013.416-3.5z"/><path class="f" d="M213.684 258.949a3.971 3.971 0 11-3.873 3.97 3.923 3.923 0 013.873-3.97z"/><path class="f" d="M174.616 256.772a3.971 3.971 0 11-3.873 3.969 3.921 3.921 0 013.873-3.969z"/><path class="f" d="M92.021 260.693a4.349 4.349 0 11-4.244 4.348 4.3 4.3 0 014.244-4.348z"/><path class="f" d="M220.086 265.186a3.5 3.5 0 11-3.41 3.5 3.454 3.454 0 013.41-3.5z"/><path class="f" d="M202.845 258.61a5.343 5.343 0 11-5.212 5.342 5.278 5.278 0 015.212-5.342z"/><path class="f" d="M58.288 227.794a5.415 5.415 0 11-5.281 5.414 5.348 5.348 0 015.281-5.414z"/><path class="f" d="M75.453 249.661a5.76 5.76 0 11-5.618 5.758 5.689 5.689 0 015.618-5.758z"/><path class="f" d="M52.585 238.473a3.118 3.118 0 11-3.041 3.118 3.079 3.079 0 013.041-3.118z"/><path class="f" d="M42.391 209.392a4.065 4.065 0 11-3.964 4.064 4.016 4.016 0 013.964-4.064z"/><path class="f" d="M30.693 212.169a4.285 4.285 0 11-4.179 4.283 4.233 4.233 0 014.179-4.283z"/><path class="f" d="M55.945 207.265a4.285 4.285 0 11-4.181 4.28 4.233 4.233 0 014.179-4.283z"/><path class="f" d="M110.644 275.465a5.415 5.415 0 11-5.281 5.414 5.349 5.349 0 015.281-5.414z"/><path class="f" d="M131.423 269.205a4.454 4.454 0 11-4.345 4.452 4.4 4.4 0 014.345-4.452z"/><path class="f" d="M101.796 283.466a3.971 3.971 0 11-3.873 3.969 3.921 3.921 0 013.873-3.969z"/><path class="f" d="M133.112 292.261a3.266 3.266 0 11-3.185 3.266 3.228 3.228 0 013.185-3.266z"/><path class="f" d="M179.988 274.854a4.35 4.35 0 11-4.242 4.348 4.3 4.3 0 014.242-4.348z"/><path class="f" d="M156.069 290.929a4.35 4.35 0 11-4.242 4.348 4.3 4.3 0 014.242-4.348z"/><path class="f" d="M161.785 286.385a2.115 2.115 0 11-2.064 2.114 2.089 2.089 0 012.064-2.114z"/><path class="f" d="M154.246 261.231a8.3 8.3 0 11-8.1 8.3 8.2 8.2 0 018.1-8.3z"/><path class="f" d="M195.801 278.486a2.115 2.115 0 11-2.062 2.114 2.09 2.09 0 012.062-2.114z"/><path class="f" d="M207.573 279.303a3.5 3.5 0 11-3.418 3.5 3.459 3.459 0 013.418-3.5z"/><path class="f" d="M179.052 285.096a6.231 6.231 0 11-6.077 6.228 6.155 6.155 0 016.077-6.228z"/><path class="g" d="M172.019 58.169a5.738 5.738 0 11-5.6 5.737 5.668 5.668 0 015.6-5.737z"/><path class="g" d="M128.159 52.784a4.8 4.8 0 11-4.682 4.8 4.744 4.744 0 014.682-4.8z"/><path class="g" d="M186.869 69.408a2.928 2.928 0 11-2.855 2.927 2.892 2.892 0 012.855-2.927z"/><path class="g" d="M145.521 74.559a3.865 3.865 0 11-3.769 3.864 3.818 3.818 0 013.769-3.864z"/><path class="g" d="M122.22 104.062a3.63 3.63 0 11-3.541 3.629 3.586 3.586 0 013.541-3.629z"/><path class="g" d="M121.535 86.501a8.315 8.315 0 11-8.11 8.312 8.213 8.213 0 018.11-8.312z"/><path class="g" d="M139.124 118.812a6.207 6.207 0 11-6.053 6.206 6.132 6.132 0 016.053-6.206z"/><path class="g" d="M107.142 129.818a5.271 5.271 0 11-5.14 5.268 5.206 5.206 0 015.14-5.268z"/><path class="g" d="M171.219 137.076a4.919 4.919 0 11-4.8 4.917 4.858 4.858 0 014.8-4.917z"/><path class="g" d="M189.268 141.292a5.855 5.855 0 11-5.711 5.853 5.783 5.783 0 015.711-5.853z"/><path class="g" d="M195.326 170.793a3.63 3.63 0 11-3.541 3.629 3.586 3.586 0 013.541-3.629z"/><path class="g" d="M179.788 173.134a8.081 8.081 0 11-7.882 8.079 7.981 7.981 0 017.882-8.079z"/><path class="g" d="M89.095 189.995a8.08 8.08 0 11-7.88 8.077 7.981 7.981 0 017.88-8.077z"/><path class="g" d="M100.975 197.018a2.459 2.459 0 11-2.4 2.459 2.43 2.43 0 012.4-2.459z"/><path class="g" d="M97.319 211.302a2.459 2.459 0 11-2.4 2.459 2.43 2.43 0 012.4-2.459z"/><path class="g" d="M104.172 210.365a3.4 3.4 0 11-3.312 3.4 3.355 3.355 0 013.312-3.4z"/><path class="g" d="M158.085 206.618a3.4 3.4 0 11-3.312 3.4 3.355 3.355 0 013.312-3.4z"/><path class="g" d="M161.626 216.219a5.856 5.856 0 11-5.711 5.855 5.785 5.785 0 015.711-5.855z"/><path class="g" d="M122.563 226.288a5.855 5.855 0 11-5.711 5.853 5.783 5.783 0 015.711-5.853z"/><path class="g" d="M121.078 221.371a1.991 1.991 0 11-1.942 1.989 1.967 1.967 0 011.942-1.989z"/></svg>
