<svg xmlns="http://www.w3.org/2000/svg" width="300" height="300.002" viewBox="0 0 300 300.002"><defs><style>.a{fill:#bd4e27}.a,.b,.c,.d,.e,.f,.g,.h{fill-rule:evenodd}.b{fill:#f67e34}.c{fill:#fb9335}.d{fill:#448a69}.e{fill:#0e7751}.f{fill:#65592d}.g{fill:#a99231}.h{fill:#7c722c}</style></defs><path class="a" d="M152.336 61.445a3.5 3.5 0 11-3.444 3.5 3.472 3.472 0 013.444-3.5z"/><path class="a" d="M184.95 72.641a3.033 3.033 0 11-2.985 3.032 3.009 3.009 0 012.985-3.032z"/><path class="a" d="M184.721 61.212a5.6 5.6 0 11-5.512 5.6 5.556 5.556 0 015.512-5.6z"/><path class="a" d="M206.309 71.708a4.666 4.666 0 11-4.593 4.665 4.629 4.629 0 014.593-4.665z"/><path class="a" d="M120.415 80.576a5.6 5.6 0 11-5.512 5.6 5.556 5.556 0 015.512-5.6z"/><path class="a" d="M97.218 110.899a3.033 3.033 0 11-2.985 3.032 3.01 3.01 0 012.985-3.032z"/><path class="a" d="M116.276 116.496a2.333 2.333 0 11-2.3 2.333 2.316 2.316 0 012.3-2.333z"/><path class="a" d="M197.007 90.133a5.716 5.716 0 11-5.628 5.716 5.672 5.672 0 015.628-5.716z"/><path class="a" d="M213.199 109.266a5.132 5.132 0 11-5.053 5.131 5.092 5.092 0 015.053-5.131z"/><path class="a" d="M205.389 106.466a3.5 3.5 0 11-3.444 3.5 3.473 3.473 0 013.444-3.5z"/><path class="a" d="M220.547 95.503a4.2 4.2 0 11-4.133 4.2 4.166 4.166 0 014.133-4.2z"/><path class="a" d="M134.616 137.919a6.561 6.561 0 11-6.459 6.56 6.51 6.51 0 016.459-6.56z"/><path class="a" d="M129.651 150.113a3.033 3.033 0 11-2.987 3.032 3.01 3.01 0 012.987-3.032z"/><path class="a" d="M107.41 153.25a3.033 3.033 0 11-2.985 3.032 3.01 3.01 0 012.985-3.032z"/><path class="a" d="M89.805 133.172a3.033 3.033 0 11-2.985 3.032 3.009 3.009 0 012.985-3.032z"/><path class="a" d="M100.023 131.331a6.561 6.561 0 11-6.459 6.56 6.511 6.511 0 016.459-6.56z"/><path class="a" d="M193.301 160.192a6.561 6.561 0 11-6.459 6.56 6.511 6.511 0 016.459-6.56z"/><path class="a" d="M180.703 163.894a4.2 4.2 0 11-4.133 4.2 4.168 4.168 0 014.133-4.2z"/><path class="a" d="M181.452 182.378a2.333 2.333 0 11-2.3 2.333 2.316 2.316 0 012.3-2.333z"/><path class="a" d="M98.057 174.849a2.333 2.333 0 11-2.3 2.333 2.314 2.314 0 012.3-2.333z"/><path class="a" d="M99.911 191.162a2.333 2.333 0 11-2.3 2.333 2.315 2.315 0 012.3-2.333z"/><path class="a" d="M85.241 188.03a3.5 3.5 0 11-3.445 3.5 3.472 3.472 0 013.445-3.5z"/><path class="a" d="M91.374 154.232a6.561 6.561 0 11-6.459 6.56 6.51 6.51 0 016.459-6.56z"/><path class="a" d="M104.347 178.388a6.561 6.561 0 11-6.46 6.56 6.511 6.511 0 016.46-6.56z"/><path class="a" d="M199.453 196.858a3.033 3.033 0 11-2.985 3.032 3.009 3.009 0 012.985-3.032z"/><path class="a" d="M176.29 228.23a3.033 3.033 0 11-2.987 3.032 3.01 3.01 0 012.987-3.032z"/><path class="a" d="M155.903 241.72a3.033 3.033 0 11-2.985 3.032 3.01 3.01 0 012.985-3.032z"/><path class="a" d="M111.142 226.701a6.561 6.561 0 11-6.459 6.56 6.51 6.51 0 016.459-6.56z"/><path class="a" d="M101.015 223.5a4.2 4.2 0 11-4.133 4.2 4.167 4.167 0 014.133-4.2z"/><path class="a" d="M121.377 225.993a3.5 3.5 0 11-3.445 3.5 3.474 3.474 0 013.445-3.5z"/><path class="a" d="M90.954 210.299a2.333 2.333 0 11-2.3 2.333 2.315 2.315 0 012.3-2.333z"/><path class="a" d="M185.646 214.304a4.925 4.925 0 11-4.848 4.924 4.886 4.886 0 014.848-4.924z"/><path class="b" d="M128.765 88.102a2.976 2.976 0 11-2.93 2.977 2.954 2.954 0 012.93-2.977z"/><path class="b" d="M120.559 107.625a2.262 2.262 0 11-2.227 2.262 2.244 2.244 0 012.227-2.262z"/><path class="b" d="M173.307 59.289a4.168 4.168 0 11-4.1 4.167 4.135 4.135 0 014.1-4.167z"/><path class="b" d="M212.223 99.294a4.167 4.167 0 11-4.1 4.166 4.134 4.134 0 014.1-4.166z"/><path class="b" d="M219.021 104.536a2.738 2.738 0 11-2.7 2.737 2.716 2.716 0 012.7-2.737z"/><path class="b" d="M194.875 102.866a6.072 6.072 0 11-5.978 6.071 6.025 6.025 0 015.978-6.071z"/><path class="b" d="M195.11 67.625a6.071 6.071 0 11-5.978 6.071 6.025 6.025 0 015.978-6.071z"/><path class="b" d="M211.521 81.435a8.454 8.454 0 11-8.323 8.453 8.388 8.388 0 018.323-8.453z"/><path class="b" d="M133.922 70.006a8.453 8.453 0 11-8.323 8.452 8.387 8.387 0 018.323-8.452z"/><path class="b" d="M105.79 101.437a6.072 6.072 0 11-5.977 6.071 6.025 6.025 0 015.977-6.071z"/><path class="b" d="M166.507 135.249a8.454 8.454 0 11-8.323 8.452 8.387 8.387 0 018.323-8.452z"/><path class="b" d="M188.545 147.632a5.6 5.6 0 11-5.509 5.594 5.551 5.551 0 015.509-5.594z"/><path class="b" d="M125.013 136.202a3.214 3.214 0 11-3.163 3.215 3.19 3.19 0 013.163-3.215z"/><path class="b" d="M144.003 134.297a3.214 3.214 0 11-3.165 3.213 3.19 3.19 0 013.165-3.213z"/><path class="b" d="M109.776 130.249a3.215 3.215 0 11-3.165 3.215 3.19 3.19 0 013.165-3.215z"/><path class="b" d="M116.105 160.727a2.262 2.262 0 11-2.227 2.262 2.245 2.245 0 012.227-2.262z"/><path class="b" d="M153.848 143.108a2.738 2.738 0 11-2.694 2.737 2.717 2.717 0 012.694-2.737z"/><path class="b" d="M121.497 143.344a5.358 5.358 0 11-5.274 5.356 5.315 5.315 0 015.274-5.356z"/><path class="b" d="M89.849 140.964a6.072 6.072 0 11-5.978 6.072 6.025 6.025 0 015.978-6.072z"/><path class="b" d="M106.025 160.248a8.454 8.454 0 11-8.323 8.453 8.388 8.388 0 018.323-8.453z"/><path class="b" d="M91.255 176.92a5.358 5.358 0 11-5.274 5.358 5.315 5.315 0 015.274-5.358z"/><path class="b" d="M185.263 171.443a5.358 5.358 0 11-5.274 5.358 5.316 5.316 0 015.274-5.358z"/><path class="b" d="M200.267 179.777a3.214 3.214 0 11-3.165 3.213 3.19 3.19 0 013.165-3.213z"/><path class="b" d="M102.509 205.255a8.454 8.454 0 11-8.323 8.453 8.389 8.389 0 018.323-8.453z"/><path class="b" d="M128.531 231.211a5.358 5.358 0 11-5.276 5.356 5.315 5.315 0 015.276-5.356z"/><path class="b" d="M163.696 225.496a8.454 8.454 0 11-8.323 8.452 8.387 8.387 0 018.323-8.452z"/><path class="b" d="M182.452 224.067a2.262 2.262 0 11-2.227 2.262 2.244 2.244 0 012.227-2.262z"/><path class="b" d="M192.999 201.684a6.311 6.311 0 11-6.212 6.31 6.263 6.263 0 016.212-6.31z"/><path class="c" d="M162.746 61.445a6.078 6.078 0 11-5.984 6.077 6.03 6.03 0 015.984-6.077z"/><path class="c" d="M199.515 79.787a3.426 3.426 0 11-3.372 3.425 3.4 3.4 0 013.372-3.425z"/><path class="c" d="M202.996 113.379a3.425 3.425 0 11-3.372 3.425 3.4 3.4 0 013.372-3.425z"/><path class="c" d="M188.637 97.467a2.1 2.1 0 11-2.067 2.1 2.082 2.082 0 012.067-2.1z"/><path class="c" d="M118.143 92.826a6.741 6.741 0 11-6.637 6.74 6.687 6.687 0 016.637-6.74z"/><path class="c" d="M107.05 95.036a3.2 3.2 0 11-3.154 3.2 3.18 3.18 0 013.154-3.2z"/><path class="c" d="M93.339 124.208a4.088 4.088 0 11-4.026 4.088 4.057 4.057 0 014.026-4.088z"/><path class="c" d="M105.524 114.699a8.067 8.067 0 11-7.942 8.067 8 8 0 017.942-8.067z"/><path class="c" d="M145.992 142.991a3.426 3.426 0 11-3.372 3.425 3.4 3.4 0 013.372-3.425z"/><path class="c" d="M176.018 150.063a5.636 5.636 0 11-5.549 5.636 5.591 5.591 0 015.549-5.636z"/><path class="c" d="M108.786 142.329a4.752 4.752 0 11-4.677 4.751 4.714 4.714 0 014.677-4.751z"/><path class="c" d="M99.866 144.76a3.2 3.2 0 11-3.155 3.2 3.179 3.179 0 013.155-3.2z"/><path class="c" d="M202.344 171.278a3.647 3.647 0 11-3.59 3.647 3.618 3.618 0 013.59-3.647z"/><path class="c" d="M190.595 183.429a8.067 8.067 0 11-7.942 8.065 8 8 0 017.942-8.065z"/><path class="c" d="M92.689 169.067a3.426 3.426 0 11-3.372 3.425 3.4 3.4 0 013.372-3.425z"/><path class="c" d="M84.636 168.847a3.426 3.426 0 11-3.372 3.426 3.4 3.4 0 013.372-3.426z"/><path class="c" d="M92.25 195.588a6.741 6.741 0 11-6.635 6.74 6.689 6.689 0 016.635-6.74z"/><path class="c" d="M112.92 218.571a3.426 3.426 0 11-3.372 3.425 3.4 3.4 0 013.372-3.425z"/><path class="c" d="M179.063 203.544a5.636 5.636 0 11-5.547 5.634 5.592 5.592 0 015.547-5.634z"/><path class="c" d="M147.513 231.831a6.3 6.3 0 11-6.2 6.3 6.25 6.25 0 016.2-6.3z"/><path class="c" d="M119.23 236.913a3.426 3.426 0 11-3.373 3.426 3.4 3.4 0 013.373-3.426z"/><path class="d" d="M128.111 7.303a2.186 2.186 0 11-2.15 2.184 2.169 2.169 0 012.15-2.184z"/><path class="d" d="M84.5 25.953a3.061 3.061 0 11-3.013 3.062 3.037 3.037 0 013.013-3.06z"/><path class="d" d="M110.323 88.027a3.061 3.061 0 11-3.012 3.06 3.037 3.037 0 013.012-3.06z"/><path class="d" d="M75.32 75.496a2.186 2.186 0 11-2.152 2.186 2.17 2.17 0 012.152-2.186z"/><path class="d" d="M89.378 14.005a5.974 5.974 0 11-5.881 5.974 5.928 5.928 0 015.881-5.974z"/><path class="d" d="M149.631 69.959a6.266 6.266 0 11-6.169 6.265 6.217 6.217 0 016.169-6.265z"/><path class="d" d="M176.027 69.668a3.06 3.06 0 11-3.013 3.06 3.036 3.036 0 013.013-3.06z"/><path class="d" d="M57.531 75.787a5.683 5.683 0 11-5.6 5.683 5.639 5.639 0 015.6-5.683z"/><path class="d" d="M128.688 58.594a5.683 5.683 0 11-5.594 5.683 5.639 5.639 0 015.594-5.683z"/><path class="d" d="M201.277 7.885a6.849 6.849 0 11-6.742 6.848 6.8 6.8 0 016.742-6.848z"/><path class="d" d="M182.339 85.405a6.849 6.849 0 11-6.742 6.848 6.8 6.8 0 016.742-6.848z"/><path class="d" d="M180.045 43.439a8.6 8.6 0 11-8.464 8.6 8.532 8.532 0 018.464-8.6z"/><path class="d" d="M245.462 58.01a1.6 1.6 0 11-1.577 1.6 1.591 1.591 0 011.577-1.6z"/><path class="d" d="M258.372 52.473a3.061 3.061 0 11-3.013 3.06 3.037 3.037 0 013.013-3.06z"/><path class="d" d="M203.859 99.392a3.061 3.061 0 11-3.013 3.06 3.036 3.036 0 013.013-3.06z"/><path class="d" d="M251.2 90.651a3.06 3.06 0 11-3.013 3.059 3.037 3.037 0 013.013-3.059z"/><path class="d" d="M235.708 95.022a3.643 3.643 0 11-3.587 3.642 3.614 3.614 0 013.587-3.642z"/><path class="d" d="M228.677 100.851a6.412 6.412 0 11-6.312 6.41 6.362 6.362 0 016.312-6.41z"/><path class="d" d="M289.361 112.507a4.227 4.227 0 11-4.16 4.226 4.193 4.193 0 014.16-4.226z"/><path class="d" d="M263.826 71.707a2.186 2.186 0 11-2.152 2.187 2.169 2.169 0 012.152-2.187z"/><path class="d" d="M172.011 112.507a2.186 2.186 0 11-2.152 2.186 2.169 2.169 0 012.152-2.186z"/><path class="d" d="M140.736 100.272a6.267 6.267 0 11-6.169 6.266 6.219 6.219 0 016.169-6.266z"/><path class="d" d="M114.34 109.594a3.06 3.06 0 11-3.013 3.06 3.037 3.037 0 013.012-3.059z"/><path class="d" d="M53.801 102.598a3.644 3.644 0 11-3.587 3.644 3.616 3.616 0 013.587-3.644z"/><path class="d" d="M13.058 101.724a3.644 3.644 0 11-3.587 3.644 3.615 3.615 0 013.587-3.644z"/><path class="d" d="M84.788 116.296a5.392 5.392 0 11-5.308 5.39 5.35 5.35 0 015.308-5.39z"/><path class="d" d="M93.682 118.628a2.186 2.186 0 11-2.152 2.186 2.168 2.168 0 012.152-2.186z"/><path class="d" d="M62.981 144.855a3.061 3.061 0 11-3.012 3.06 3.037 3.037 0 013.012-3.06z"/><path class="d" d="M31.707 132.32a5.683 5.683 0 11-5.594 5.683 5.639 5.639 0 015.594-5.683z"/><path class="d" d="M99.42 151.851a3.06 3.06 0 11-3.013 3.059 3.036 3.036 0 013.013-3.059z"/><path class="d" d="M122.088 155.639a3.06 3.06 0 11-3.013 3.06 3.037 3.037 0 013.013-3.06z"/><path class="d" d="M153.36 149.517a6.558 6.558 0 11-6.454 6.557 6.509 6.509 0 016.454-6.557z"/><path class="d" d="M153.075 131.45a5.1 5.1 0 11-5.023 5.1 5.061 5.061 0 015.023-5.1z"/><path class="d" d="M173.159 118.628a3.352 3.352 0 11-3.3 3.351 3.326 3.326 0 013.3-3.351z"/><path class="d" d="M179.47 141.067a4.518 4.518 0 11-4.446 4.517 4.483 4.483 0 014.446-4.517z"/><path class="d" d="M235.133 137.57a5.392 5.392 0 11-5.308 5.39 5.35 5.35 0 015.308-5.39z"/><path class="d" d="M248.618 133.493a2.186 2.186 0 11-2.152 2.186 2.169 2.169 0 012.152-2.186z"/><path class="d" d="M246.897 145.146a2.186 2.186 0 11-2.152 2.187 2.17 2.17 0 012.152-2.187z"/><path class="d" d="M248.045 170.792a6.558 6.558 0 11-6.456 6.557 6.508 6.508 0 016.456-6.557z"/><path class="d" d="M219.352 169.335a4.227 4.227 0 11-4.16 4.226 4.194 4.194 0 014.16-4.226z"/><path class="d" d="M116.636 180.41a5.392 5.392 0 11-5.308 5.392 5.351 5.351 0 015.308-5.392z"/><path class="d" d="M194.103 174.872a3.061 3.061 0 11-3.012 3.06 3.037 3.037 0 013.012-3.06z"/><path class="d" d="M215.049 186.53a2.186 2.186 0 11-2.151 2.186 2.168 2.168 0 012.151-2.186z"/><path class="d" d="M183.774 200.228a2.186 2.186 0 11-2.152 2.186 2.169 2.169 0 012.152-2.186z"/><path class="d" d="M205.003 215.382a2.769 2.769 0 11-2.727 2.768 2.747 2.747 0 012.727-2.768z"/><path class="d" d="M213.327 197.896a6.558 6.558 0 11-6.456 6.557 6.507 6.507 0 016.456-6.557z"/><path class="d" d="M283.336 188.862a5.392 5.392 0 11-5.308 5.392 5.35 5.35 0 015.308-5.392z"/><path class="d" d="M155.656 202.849a5.392 5.392 0 11-5.308 5.392 5.351 5.351 0 015.308-5.392z"/><path class="d" d="M173.159 215.959a5.392 5.392 0 11-5.308 5.392 5.35 5.35 0 015.308-5.392z"/><path class="d" d="M132.129 188.278a3.061 3.061 0 11-3.012 3.06 3.037 3.037 0 013.012-3.06z"/><path class="d" d="M19.105 173.045a2.986 2.986 0 11-2.94 2.987 2.963 2.963 0 012.94-2.987z"/><path class="d" d="M57.186 196.545a8.334 8.334 0 11-8.2 8.333 8.269 8.269 0 018.2-8.333z"/><path class="d" d="M69.289 185.51a3.644 3.644 0 11-3.587 3.642 3.614 3.614 0 013.587-3.642z"/><path class="d" d="M92.779 188.778a2.987 2.987 0 11-2.938 2.985 2.963 2.963 0 012.938-2.985z"/><path class="d" d="M103.703 195.917a4.518 4.518 0 11-4.447 4.517 4.483 4.483 0 014.447-4.517z"/><path class="d" d="M22.824 218.249a3.644 3.644 0 11-3.587 3.642 3.616 3.616 0 013.587-3.642z"/><path class="d" d="M86.391 229.524a2.186 2.186 0 11-2.152 2.186 2.169 2.169 0 012.152-2.186z"/><path class="d" d="M90.746 239.199a2.986 2.986 0 11-2.938 2.988 2.963 2.963 0 012.938-2.985z"/><path class="d" d="M126.41 242.349a2.987 2.987 0 11-2.938 2.985 2.963 2.963 0 012.938-2.985z"/><path class="d" d="M137.268 233.213a2.986 2.986 0 11-2.94 2.985 2.963 2.963 0 012.94-2.985z"/><path class="d" d="M86.335 245.06a4.518 4.518 0 11-4.448 4.517 4.482 4.482 0 014.448-4.517z"/><path class="d" d="M134.716 240.333a4.518 4.518 0 11-4.447 4.517 4.483 4.483 0 014.447-4.517z"/><path class="d" d="M129.971 249.082a5.392 5.392 0 11-5.308 5.392 5.351 5.351 0 015.308-5.392z"/><path class="d" d="M182.676 243.103a2.769 2.769 0 11-2.725 2.768 2.748 2.748 0 012.725-2.768z"/><path class="d" d="M207.036 231.097a2.186 2.186 0 11-2.152 2.186 2.17 2.17 0 012.152-2.186z"/><path class="d" d="M199.536 243.798a4.518 4.518 0 11-4.448 4.517 4.482 4.482 0 014.448-4.517z"/><path class="d" d="M233.188 224.901a5.392 5.392 0 11-5.308 5.392 5.349 5.349 0 015.308-5.392z"/><path class="d" d="M266.066 230.572a5.392 5.392 0 11-5.308 5.39 5.349 5.349 0 015.308-5.39z"/><path class="d" d="M188.826 277.4a8.011 8.011 0 11-7.886 8.01 7.948 7.948 0 017.886-8.01z"/><path class="d" d="M113.74 282.117a5.838 5.838 0 11-5.747 5.837 5.792 5.792 0 015.747-5.837z"/><path class="d" d="M102.839 274.604a3.994 3.994 0 11-3.932 3.994 3.963 3.963 0 013.932-3.994z"/><path class="e" d="M136.716 2.124a5.908 5.908 0 11-5.816 5.908 5.864 5.864 0 015.816-5.908z"/><path class="e" d="M95.243 25.499a5.908 5.908 0 11-5.817 5.908 5.862 5.862 0 015.817-5.908z"/><path class="e" d="M166.562 36.029a6.422 6.422 0 11-6.324 6.422 6.373 6.373 0 016.324-6.422z"/><path class="e" d="M76.783 19.591a4.881 4.881 0 11-4.8 4.88 4.842 4.842 0 014.8-4.88z"/><path class="e" d="M189.821 6.493a4.881 4.881 0 11-4.805 4.88 4.842 4.842 0 014.805-4.88z"/><path class="e" d="M136.716 64.798a2.312 2.312 0 11-2.275 2.311 2.293 2.293 0 012.275-2.311z"/><path class="e" d="M143.291 62.229a3.6 3.6 0 11-3.541 3.6 3.569 3.569 0 013.541-3.6z"/><path class="e" d="M120.026 54.266a3.339 3.339 0 11-3.287 3.34 3.313 3.313 0 013.287-3.34z"/><path class="e" d="M70.713 43.736a3.339 3.339 0 11-3.287 3.338 3.313 3.313 0 013.287-3.338z"/><path class="e" d="M83.104 65.568a6.422 6.422 0 11-6.322 6.421 6.372 6.372 0 016.322-6.421z"/><path class="e" d="M72.99 68.393a3.083 3.083 0 11-3.034 3.082 3.058 3.058 0 013.034-3.082z"/><path class="e" d="M17.102 89.199a6.422 6.422 0 11-6.319 6.422 6.372 6.372 0 016.322-6.422z"/><path class="e" d="M25.954 99.216a4.367 4.367 0 11-4.3 4.367 4.333 4.333 0 014.3-4.367z"/><path class="e" d="M66.162 93.823a8.22 8.22 0 11-8.093 8.218 8.156 8.156 0 018.093-8.218z"/><path class="e" d="M76.782 114.884a2.312 2.312 0 11-2.275 2.312 2.295 2.295 0 012.275-2.312z"/><path class="e" d="M148.096 96.391a3.083 3.083 0 11-3.035 3.082 3.059 3.059 0 013.035-3.082z"/><path class="e" d="M138.991 87.658a5.908 5.908 0 11-5.816 5.908 5.862 5.862 0 015.816-5.908z"/><path class="e" d="M178.947 76.61a3.6 3.6 0 11-3.54 3.6 3.568 3.568 0 013.54-3.6z"/><path class="e" d="M228.006 84.319a6.166 6.166 0 11-6.069 6.165 6.116 6.116 0 016.069-6.165z"/><path class="e" d="M238.376 50.414a5.394 5.394 0 11-5.311 5.395 5.353 5.353 0 015.311-5.395z"/><path class="e" d="M249.755 42.964a6.166 6.166 0 11-6.069 6.165 6.118 6.118 0 016.069-6.165z"/><path class="e" d="M181.474 108.463a5.652 5.652 0 11-5.564 5.65 5.608 5.608 0 015.564-5.65z"/><path class="e" d="M245.204 96.134a4.367 4.367 0 11-4.3 4.367 4.334 4.334 0 014.3-4.367z"/><path class="e" d="M162.889 111.288a6.808 6.808 0 11-6.7 6.807 6.754 6.754 0 016.7-6.807z"/><path class="e" d="M72.659 134.531a6.422 6.422 0 11-6.322 6.422 6.372 6.372 0 016.322-6.422z"/><path class="e" d="M53.283 134.341a3.083 3.083 0 11-3.034 3.082 3.059 3.059 0 013.034-3.082z"/><path class="e" d="M14.706 164.098a4.367 4.367 0 11-4.3 4.367 4.333 4.333 0 014.3-4.367z"/><path class="e" d="M58.79 173.708a5.141 5.141 0 11-5.059 5.14 5.1 5.1 0 015.059-5.14z"/><path class="e" d="M76.199 190.421a4.352 4.352 0 11-4.285 4.351 4.318 4.318 0 014.285-4.351z"/><path class="e" d="M114.751 154.336a3.083 3.083 0 11-3.035 3.082 3.058 3.058 0 013.035-3.082z"/><path class="e" d="M115.439 135.717a4.367 4.367 0 11-4.3 4.366 4.331 4.331 0 014.3-4.366z"/><path class="e" d="M145.303 178.291a8.221 8.221 0 11-8.092 8.22 8.155 8.155 0 018.092-8.22z"/><path class="e" d="M134.876 169.672a5.652 5.652 0 11-5.564 5.652 5.607 5.607 0 015.564-5.652z"/><path class="e" d="M109.396 191.297a2.312 2.312 0 11-2.275 2.311 2.294 2.294 0 012.275-2.311z"/><path class="e" d="M223.66 177.771a6.531 6.531 0 11-6.429 6.529 6.48 6.48 0 016.429-6.529z"/><path class="e" d="M277.496 129.274a5.652 5.652 0 11-5.564 5.65 5.607 5.607 0 015.564-5.65z"/><path class="e" d="M292.42 121.866a2.546 2.546 0 11-2.506 2.546 2.526 2.526 0 012.506-2.546z"/><path class="e" d="M227.341 145.942a2.546 2.546 0 11-2.506 2.546 2.526 2.526 0 012.506-2.546z"/><path class="e" d="M244.615 137.854a2.881 2.881 0 11-2.836 2.881 2.859 2.859 0 012.836-2.881z"/><path class="e" d="M278.7 177.426a5.652 5.652 0 11-5.564 5.652 5.607 5.607 0 015.564-5.652z"/><path class="e" d="M273.865 188.363a3.083 3.083 0 11-3.035 3.084 3.06 3.06 0 013.035-3.084z"/><path class="e" d="M233.29 163.601a8.22 8.22 0 11-8.092 8.22 8.157 8.157 0 018.092-8.22z"/><path class="e" d="M33.433 224.943a6.422 6.422 0 11-6.322 6.422 6.373 6.373 0 016.322-6.422z"/><path class="e" d="M81.924 233.983a5.141 5.141 0 11-5.059 5.14 5.1 5.1 0 015.059-5.14z"/><path class="e" d="M133.365 219.731a5.652 5.652 0 11-5.564 5.652 5.608 5.608 0 015.564-5.652z"/><path class="e" d="M167.563 193.172a5.652 5.652 0 11-5.564 5.65 5.608 5.608 0 015.564-5.65z"/><path class="e" d="M183.975 159.312a2.151 2.151 0 11-2.118 2.15 2.135 2.135 0 012.118-2.15z"/><path class="e" d="M174.956 173.254a3.082 3.082 0 11-3.035 3.082 3.058 3.058 0 013.035-3.082z"/><path class="e" d="M146.007 203.067a3.082 3.082 0 11-3.035 3.081 3.057 3.057 0 013.035-3.081z"/><path class="e" d="M142.512 246.857a5.652 5.652 0 11-5.562 5.652 5.608 5.608 0 015.562-5.652z"/><path class="e" d="M228.154 213.369a5.652 5.652 0 11-5.564 5.652 5.608 5.608 0 015.564-5.652z"/><path class="e" d="M207.926 222.261a3.082 3.082 0 11-3.035 3.081 3.057 3.057 0 013.035-3.081z"/><path class="e" d="M261.777 225.88a1.946 1.946 0 11-1.917 1.946 1.932 1.932 0 011.917-1.946z"/><path class="e" d="M278.402 219.859a2.546 2.546 0 11-2.506 2.547 2.528 2.528 0 012.506-2.547z"/><path class="e" d="M220.916 268.91a5.652 5.652 0 11-5.564 5.652 5.607 5.607 0 015.564-5.652z"/><path class="e" d="M186.057 249.526a5.652 5.652 0 11-5.564 5.652 5.607 5.607 0 015.564-5.652z"/><path class="e" d="M190.35 243.954a2.546 2.546 0 11-2.506 2.546 2.526 2.526 0 012.506-2.546z"/><path class="e" d="M139.153 258.959a4.375 4.375 0 11-4.305 4.374 4.341 4.341 0 014.305-4.374z"/><path class="e" d="M201.895 283.159a3.85 3.85 0 11-3.791 3.85 3.819 3.819 0 013.791-3.85z"/><path class="e" d="M102.182 283.977a3.849 3.849 0 11-3.791 3.848 3.819 3.819 0 013.791-3.848z"/><path class="f" d="M162.637 1.323a5.679 5.679 0 11-5.595 5.678 5.635 5.635 0 015.592-5.678z"/><path class="f" d="M146.089 13.814a6.361 6.361 0 11-6.262 6.359 6.312 6.312 0 016.262-6.359z"/><path class="f" d="M190.142 17.902a6.361 6.361 0 11-6.262 6.36 6.312 6.312 0 016.262-6.36z"/><path class="f" d="M196.851 40.162a6.36 6.36 0 11-6.262 6.359 6.31 6.31 0 016.262-6.359z"/><path class="f" d="M205.125 59.24a5.679 5.679 0 11-5.591 5.678 5.635 5.635 0 015.591-5.678z"/><path class="f" d="M165.319 49.707a5.679 5.679 0 11-5.59 5.678 5.634 5.634 0 015.59-5.678z"/><path class="f" d="M148.996 40.162a5.679 5.679 0 11-5.591 5.678 5.635 5.635 0 015.591-5.678z"/><path class="f" d="M162.19 14.268a5 5 0 11-4.921 5 4.958 4.958 0 014.921-5z"/><path class="f" d="M124.174 38.344a6.361 6.361 0 11-6.262 6.36 6.312 6.312 0 016.262-6.36z"/><path class="f" d="M74.977 30.395a6.36 6.36 0 11-6.26 6.36 6.311 6.311 0 016.26-6.36z"/><path class="f" d="M119.477 19.947a5.679 5.679 0 11-5.59 5.678 5.636 5.636 0 015.59-5.678z"/><path class="f" d="M137.368 15.631a2.271 2.271 0 11-2.236 2.271 2.254 2.254 0 012.236-2.271z"/><path class="f" d="M155.256 20.401a2.272 2.272 0 11-2.236 2.271 2.255 2.255 0 012.236-2.271z"/><path class="f" d="M150.337 34.938a2.271 2.271 0 11-2.236 2.271 2.253 2.253 0 012.236-2.271z"/><path class="f" d="M137.815 59.24a2.272 2.272 0 11-2.236 2.272 2.255 2.255 0 012.236-2.272z"/><path class="f" d="M75.649 51.745a1.59 1.59 0 11-1.565 1.59 1.579 1.579 0 011.565-1.59z"/><path class="f" d="M75.649 64.919a1.591 1.591 0 11-1.565 1.59 1.579 1.579 0 011.565-1.59z"/><path class="f" d="M107.85 28.578a4.089 4.089 0 11-4.026 4.088 4.057 4.057 0 014.026-4.088z"/><path class="f" d="M99.129 43.114a4.089 4.089 0 11-4.026 4.089 4.058 4.058 0 014.026-4.089z"/><path class="f" d="M86.158 34.256a3.408 3.408 0 11-3.35 3.407 3.382 3.382 0 013.354-3.407z"/><path class="f" d="M173.37 23.808a3.408 3.408 0 11-3.354 3.407 3.382 3.382 0 013.354-3.407z"/><path class="f" d="M214.069 56.743a3.407 3.407 0 11-3.354 3.406 3.38 3.38 0 013.354-3.406z"/><path class="f" d="M219.883 35.847a4.088 4.088 0 11-4.025 4.088 4.057 4.057 0 014.025-4.088z"/><path class="f" d="M207.584 21.309a4.089 4.089 0 11-4.025 4.089 4.058 4.058 0 014.025-4.089z"/><path class="f" d="M176.725 36.981a3.181 3.181 0 11-3.131 3.181 3.157 3.157 0 013.131-3.181z"/><path class="f" d="M94.433 51.973a8.177 8.177 0 11-8.051 8.176 8.113 8.113 0 018.051-8.176z"/><path class="f" d="M58.832 50.425a5.679 5.679 0 11-5.59 5.678 5.635 5.635 0 015.59-5.678z"/><path class="f" d="M86.312 92.454a5.679 5.679 0 11-5.59 5.678 5.634 5.634 0 015.59-5.678z"/><path class="f" d="M44.934 103.362a5.679 5.679 0 11-5.59 5.678 5.635 5.635 0 015.59-5.678z"/><path class="f" d="M49.078 41.624a6.361 6.361 0 11-6.262 6.36 6.312 6.312 0 016.262-6.36z"/><path class="f" d="M30.44 84.615a6.36 6.36 0 11-6.26 6.359 6.311 6.311 0 016.26-6.359z"/><path class="f" d="M45.936 69.965a4.089 4.089 0 11-4.026 4.089 4.057 4.057 0 014.026-4.089z"/><path class="f" d="M56.68 87.929a4.089 4.089 0 11-4.025 4.088 4.057 4.057 0 014.025-4.088z"/><path class="f" d="M77.526 105.576a4.089 4.089 0 11-4.025 4.089 4.058 4.058 0 014.025-4.089z"/><path class="f" d="M65.627 71.473a3.408 3.408 0 11-3.354 3.406 3.379 3.379 0 013.354-3.406z"/><path class="f" d="M107.321 69.556a4.036 4.036 0 11-3.973 4.035 4.005 4.005 0 013.973-4.035z"/><path class="f" d="M90.81 75.802a3.181 3.181 0 11-3.131 3.179 3.155 3.155 0 013.131-3.179z"/><path class="f" d="M76.28 91.523a3.181 3.181 0 11-3.131 3.181 3.157 3.157 0 013.131-3.181z"/><path class="f" d="M26.058 75.098a2.28 2.28 0 11-2.245 2.28 2.262 2.262 0 012.245-2.28z"/><path class="f" d="M38.688 73.816a2.28 2.28 0 11-2.245 2.28 2.262 2.262 0 012.245-2.28z"/><path class="f" d="M35.533 107.183a2.28 2.28 0 11-2.245 2.28 2.261 2.261 0 012.245-2.28z"/><path class="f" d="M96.179 103.973a2.28 2.28 0 11-2.246 2.28 2.262 2.262 0 012.246-2.28z"/><path class="f" d="M101.865 77.411a1.591 1.591 0 11-1.565 1.59 1.578 1.578 0 011.565-1.59z"/><path class="f" d="M97.742 93.385a4.731 4.731 0 11-4.657 4.73 4.694 4.694 0 014.657-4.73z"/><path class="f" d="M130.593 96.273a4.088 4.088 0 11-4.026 4.088 4.057 4.057 0 014.026-4.088z"/><path class="f" d="M182.71 99.481a4.089 4.089 0 11-4.025 4.089 4.058 4.058 0 014.025-4.089z"/><path class="f" d="M161.878 89.598a3.18 3.18 0 11-3.131 3.179 3.155 3.155 0 013.131-3.179z"/><path class="f" d="M168.169 73.678a5.679 5.679 0 11-5.592 5.678 5.635 5.635 0 015.592-5.678z"/><path class="f" d="M151.428 84.586a5.679 5.679 0 11-5.592 5.678 5.635 5.635 0 015.592-5.678z"/><path class="f" d="M154.268 101.27a5.679 5.679 0 11-5.59 5.678 5.635 5.635 0 015.59-5.678z"/><path class="f" d="M10.247 109.106a4.089 4.089 0 11-4.021 4.092 4.058 4.058 0 014.025-4.089z"/><path class="f" d="M234.677 31.144a9.436 9.436 0 11-9.286 9.43 9.362 9.362 0 019.288-9.434z"/><path class="f" d="M229.79 25.112a3.18 3.18 0 11-3.131 3.179 3.155 3.155 0 013.131-3.179z"/><path class="f" d="M253.481 67.076a2.6 2.6 0 11-2.561 2.6 2.582 2.582 0 012.561-2.6z"/><path class="f" d="M232.778 60.925a2.271 2.271 0 11-2.24 2.27 2.254 2.254 0 012.236-2.271z"/><path class="f" d="M187.045 79.462a2.272 2.272 0 11-2.237 2.272 2.254 2.254 0 012.237-2.272z"/><path class="f" d="M252.101 56.811a3.658 3.658 0 11-3.6 3.657 3.629 3.629 0 013.6-3.657z"/><path class="f" d="M222.812 73.357a5.679 5.679 0 11-5.59 5.678 5.636 5.636 0 015.59-5.678z"/><path class="f" d="M240.434 74.247a4.089 4.089 0 11-4.025 4.088 4.056 4.056 0 014.025-4.088z"/><path class="f" d="M257.586 90.178a2.6 2.6 0 11-2.561 2.6 2.581 2.581 0 012.561-2.6z"/><path class="f" d="M278.43 92.102a2.6 2.6 0 11-2.561 2.6 2.581 2.581 0 012.561-2.6z"/><path class="f" d="M281.592 113.918a2.6 2.6 0 11-2.562 2.6 2.58 2.58 0 012.562-2.6z"/><path class="f" d="M189.991 115.844a2.6 2.6 0 11-2.561 2.6 2.581 2.581 0 012.561-2.6z"/><path class="f" d="M253.317 104.206a6.36 6.36 0 11-6.26 6.359 6.311 6.311 0 016.26-6.359z"/><path class="f" d="M273.214 116.076a6.36 6.36 0 11-6.26 6.36 6.311 6.311 0 016.26-6.36z"/><path class="f" d="M274.844 97.877a3.658 3.658 0 11-3.6 3.657 3.629 3.629 0 013.6-3.657z"/><path class="f" d="M285.583 92.743a3.658 3.658 0 11-3.6 3.657 3.629 3.629 0 013.6-3.657z"/><path class="f" d="M272.583 71.482a6.36 6.36 0 11-6.262 6.359 6.311 6.311 0 016.262-6.359z"/><path class="f" d="M210.986 120.95a8.178 8.178 0 11-8.049 8.177 8.115 8.115 0 018.049-8.177z"/><path class="f" d="M236.328 112.635a4.521 4.521 0 11-4.451 4.52 4.485 4.485 0 014.451-4.52z"/><path class="f" d="M232.202 121.295a3.658 3.658 0 11-3.6 3.657 3.629 3.629 0 013.6-3.657z"/><path class="f" d="M231.886 129.639a3.658 3.658 0 11-3.6 3.657 3.628 3.628 0 013.6-3.657z"/><path class="f" d="M156.509 123.864a2.6 2.6 0 11-2.561 2.6 2.581 2.581 0 012.561-2.6z"/><path class="f" d="M138.19 129.964a2.6 2.6 0 11-2.561 2.6 2.582 2.582 0 012.561-2.6z"/><path class="f" d="M192.189 131.564a4.089 4.089 0 11-4.025 4.088 4.057 4.057 0 014.025-4.088z"/><path class="f" d="M162.811 126.752a4.089 4.089 0 11-4.025 4.088 4.057 4.057 0 014.025-4.088z"/><path class="f" d="M147.32 120.84a5.679 5.679 0 11-5.59 5.678 5.635 5.635 0 015.59-5.678z"/><path class="f" d="M179.135 125.93a6.361 6.361 0 11-6.262 6.36 6.312 6.312 0 016.262-6.36z"/><path class="f" d="M121.331 122.401a6.361 6.361 0 11-6.262 6.36 6.312 6.312 0 016.262-6.36z"/><path class="f" d="M74.341 119.755a3.546 3.546 0 11-3.491 3.545 3.518 3.518 0 013.491-3.545z"/><path class="f" d="M26.183 116.486a4.089 4.089 0 11-4.026 4.089 4.058 4.058 0 014.026-4.089z"/><path class="f" d="M26.485 125.886a3.181 3.181 0 11-3.131 3.176 3.156 3.156 0 013.131-3.179z"/><path class="f" d="M44.497 115.604a6.105 6.105 0 11-6.009 6.1 6.058 6.058 0 016.009-6.1z"/><path class="f" d="M65.703 122.864a6.105 6.105 0 11-6.011 6.1 6.058 6.058 0 016.011-6.1z"/><path class="f" d="M7.6 134.394a4.089 4.089 0 11-4.02 4.088 4.059 4.059 0 014.025-4.088z"/><path class="f" d="M24.516 143.106a4.089 4.089 0 11-4.025 4.088 4.057 4.057 0 014.025-4.088z"/><path class="f" d="M54.536 141.17a4.089 4.089 0 11-4.025 4.088 4.057 4.057 0 014.025-4.088z"/><path class="f" d="M6.137 152.74a6.236 6.236 0 11-6.14 6.235 6.188 6.188 0 016.14-6.235z"/><path class="f" d="M41.994 141.608a8.45 8.45 0 11-8.32 8.449 8.384 8.384 0 018.32-8.449z"/><path class="f" d="M18.348 155.811a4.089 4.089 0 11-4.025 4.089 4.059 4.059 0 014.025-4.089z"/><path class="f" d="M81.521 152.017a3.181 3.181 0 11-3.131 3.181 3.155 3.155 0 013.131-3.181z"/><path class="f" d="M63.619 159.2a3.546 3.546 0 11-3.491 3.545 3.518 3.518 0 013.491-3.545z"/><path class="f" d="M129.612 158.032a2.6 2.6 0 11-2.562 2.6 2.58 2.58 0 012.562-2.6z"/><path class="f" d="M164.841 153.878a3.658 3.658 0 11-3.6 3.657 3.629 3.629 0 013.6-3.657z"/><path class="f" d="M145.656 160.245a4.72 4.72 0 11-4.646 4.72 4.684 4.684 0 014.646-4.72z"/><path class="f" d="M122.43 163.198a6.36 6.36 0 11-6.26 6.36 6.311 6.311 0 016.26-6.36z"/><path class="f" d="M152.882 165.807a2.154 2.154 0 11-2.121 2.153 2.137 2.137 0 012.121-2.153z"/><path class="f" d="M208.591 149.91a5.679 5.679 0 11-5.59 5.678 5.635 5.635 0 015.59-5.678z"/><path class="f" d="M233.131 150.153a5.679 5.679 0 11-5.59 5.678 5.635 5.635 0 015.59-5.678z"/><path class="f" d="M255.584 136.403a6.361 6.361 0 11-6.262 6.36 6.313 6.313 0 016.262-6.36z"/><path class="f" d="M270.355 158.909a6.36 6.36 0 11-6.262 6.36 6.311 6.311 0 016.262-6.36z"/><path class="f" d="M291.113 128.297a7.14 7.14 0 11-7.029 7.139 7.084 7.084 0 017.029-7.139z"/><path class="f" d="M271.903 140.349a3.328 3.328 0 11-3.275 3.328 3.3 3.3 0 013.275-3.328z"/><path class="f" d="M296.443 143.011a3.328 3.328 0 11-3.275 3.328 3.3 3.3 0 013.275-3.328z"/><path class="f" d="M254.51 166a3.328 3.328 0 11-3.276 3.328A3.3 3.3 0 01254.51 166z"/><path class="f" d="M218.145 147.191a3.658 3.658 0 11-3.6 3.657 3.629 3.629 0 013.6-3.657z"/><path class="f" d="M281.043 164.598a4.4 4.4 0 11-4.332 4.4 4.366 4.366 0 014.332-4.4z"/><path class="f" d="M251.573 160.381a2.6 2.6 0 11-2.561 2.6 2.581 2.581 0 012.561-2.6z"/><path class="f" d="M165.794 173.963a3.658 3.658 0 11-3.6 3.657 3.63 3.63 0 013.6-3.657z"/><path class="f" d="M69.538 165.134a6.36 6.36 0 11-6.26 6.36 6.311 6.311 0 016.26-6.36z"/><path class="f" d="M51.257 171.373a2.7 2.7 0 11-2.659 2.7 2.681 2.681 0 012.659-2.7z"/><path class="f" d="M29.726 170.053a6.105 6.105 0 11-6.01 6.1 6.058 6.058 0 016.01-6.1z"/><path class="f" d="M6.71 166.128a2.863 2.863 0 11-2.819 2.863 2.84 2.84 0 012.819-2.863z"/><path class="f" d="M41.908 179.842a3.652 3.652 0 11-3.6 3.651 3.624 3.624 0 013.6-3.651z"/><path class="f" d="M26.213 193.564a3.546 3.546 0 11-3.49 3.545 3.518 3.518 0 013.49-3.545z"/><path class="f" d="M24.784 201.792a3.545 3.545 0 11-3.491 3.544 3.518 3.518 0 013.491-3.544z"/><path class="f" d="M42.442 188.387a3.111 3.111 0 11-3.063 3.11 3.086 3.086 0 013.063-3.11z"/><path class="f" d="M16.678 197.75a4.741 4.741 0 11-4.667 4.74 4.7 4.7 0 014.667-4.74z"/><path class="f" d="M42.353 201.864a6.479 6.479 0 11-6.377 6.478 6.428 6.428 0 016.377-6.478z"/><path class="f" d="M125.564 176.454a3.957 3.957 0 11-3.9 3.957 3.927 3.927 0 013.9-3.957z"/><path class="f" d="M155.905 191.185a4.994 4.994 0 11-4.917 4.993 4.955 4.955 0 014.917-4.993z"/><path class="f" d="M136.846 194.365a5.2 5.2 0 11-5.121 5.2 5.162 5.162 0 015.121-5.2z"/><path class="f" d="M171.388 180.361a5.9 5.9 0 11-5.8 5.9 5.851 5.851 0 015.8-5.9z"/><path class="f" d="M206.173 186.895a5.9 5.9 0 11-5.8 5.9 5.851 5.851 0 015.8-5.9z"/><path class="f" d="M228.408 190.634a2.495 2.495 0 11-2.456 2.494 2.476 2.476 0 012.456-2.494z"/><path class="f" d="M232.202 195.589a3.658 3.658 0 11-3.6 3.657 3.629 3.629 0 013.6-3.657z"/><path class="f" d="M248.714 185.548a2.6 2.6 0 11-2.561 2.6 2.581 2.581 0 012.561-2.6z"/><path class="f" d="M254.909 182.645a2.6 2.6 0 11-2.561 2.6 2.581 2.581 0 012.561-2.6z"/><path class="f" d="M261.777 186.264A5.867 5.867 0 11256 192.13a5.823 5.823 0 015.777-5.866z"/><path class="f" d="M291.322 178.034a5.868 5.868 0 11-5.777 5.866 5.821 5.821 0 015.777-5.866z"/><path class="f" d="M284.259 201.622a4.038 4.038 0 11-3.975 4.038 4.007 4.007 0 013.975-4.038z"/><path class="f" d="M244.947 200.985a4.19 4.19 0 11-4.126 4.191 4.158 4.158 0 014.126-4.191z"/><path class="f" d="M242.327 221.07a4.191 4.191 0 11-4.126 4.191 4.159 4.159 0 014.126-4.191z"/><path class="f" d="M254.716 230.266a4.191 4.191 0 11-4.126 4.191 4.16 4.16 0 014.126-4.191z"/><path class="f" d="M237.595 215.61a3.086 3.086 0 11-3.037 3.085 3.062 3.062 0 013.037-3.085z"/><path class="f" d="M267.643 215.208a5.9 5.9 0 11-5.8 5.9 5.852 5.852 0 015.8-5.9z"/><path class="f" d="M218.085 224.821a8.383 8.383 0 11-8.252 8.381 8.318 8.318 0 018.252-8.381z"/><path class="f" d="M239.501 243.197a3.085 3.085 0 11-3.038 3.085 3.061 3.061 0 013.038-3.085z"/><path class="f" d="M190.421 223.599a3.085 3.085 0 11-3.038 3.085 3.061 3.061 0 013.038-3.085z"/><path class="f" d="M202.809 208.35a3.569 3.569 0 11-3.513 3.569 3.542 3.542 0 013.513-3.569z"/><path class="f" d="M205.875 236.316a4.191 4.191 0 11-4.125 4.191 4.159 4.159 0 014.125-4.191z"/><path class="f" d="M143.637 219.699a3.658 3.658 0 11-3.6 3.659 3.63 3.63 0 013.6-3.659z"/><path class="f" d="M124.815 207.116a3.658 3.658 0 11-3.6 3.657 3.63 3.63 0 013.6-3.657z"/><path class="f" d="M151.85 222.675a4.721 4.721 0 11-4.646 4.721 4.684 4.684 0 014.646-4.721z"/><path class="f" d="M81.214 204.82a6.361 6.361 0 11-6.262 6.36 6.312 6.312 0 016.262-6.36z"/><path class="f" d="M61.821 214.206a3.751 3.751 0 11-3.691 3.75 3.723 3.723 0 013.691-3.75z"/><path class="f" d="M39.998 214.86a4.384 4.384 0 11-4.316 4.383 4.35 4.35 0 014.316-4.383z"/><path class="f" d="M52.21 223.96a3.111 3.111 0 11-3.062 3.11 3.087 3.087 0 013.062-3.11z"/><path class="f" d="M59.358 222.265a3.111 3.111 0 11-3.063 3.11 3.086 3.086 0 013.063-3.11z"/><path class="f" d="M66.743 234.366a3.111 3.111 0 11-3.062 3.11 3.087 3.087 0 013.062-3.11z"/><path class="f" d="M48.874 241.867a3.111 3.111 0 11-3.063 3.112 3.088 3.088 0 013.063-3.112z"/><path class="f" d="M40.029 237.195a4.741 4.741 0 11-4.667 4.74 4.7 4.7 0 014.667-4.74z"/><path class="f" d="M71.239 239.374a4.74 4.74 0 11-4.667 4.74 4.7 4.7 0 014.667-4.74z"/><path class="f" d="M120.588 244.94a2.7 2.7 0 11-2.659 2.7 2.678 2.678 0 012.659-2.7z"/><path class="f" d="M65.772 250.263a8.3 8.3 0 11-8.174 8.3 8.24 8.24 0 018.174-8.3z"/><path class="f" d="M99.082 244.75a6.36 6.36 0 11-6.262 6.359 6.311 6.311 0 016.262-6.359z"/><path class="f" d="M117.698 250.41a5.562 5.562 0 11-5.475 5.562 5.519 5.519 0 015.475-5.562z"/><path class="f" d="M86.125 266.962a4.476 4.476 0 11-4.407 4.476 4.441 4.441 0 014.407-4.476z"/><path class="f" d="M91.516 261.469a3.111 3.111 0 11-3.062 3.11 3.087 3.087 0 013.062-3.11z"/><path class="f" d="M112.57 270.345a4.476 4.476 0 11-4.405 4.476 4.441 4.441 0 014.405-4.476z"/><path class="f" d="M172.463 242.572a6.36 6.36 0 11-6.26 6.36 6.311 6.311 0 016.26-6.36z"/><path class="f" d="M150.307 256.967a3.658 3.658 0 11-3.6 3.657 3.63 3.63 0 013.6-3.657z"/><path class="f" d="M166.809 264.131a2.627 2.627 0 11-2.586 2.627 2.607 2.607 0 012.586-2.627z"/><path class="f" d="M142.444 267.687a6.171 6.171 0 11-6.074 6.171 6.124 6.124 0 016.074-6.171z"/><path class="f" d="M133.692 276.157a2.7 2.7 0 11-2.658 2.7 2.68 2.68 0 012.658-2.7z"/><path class="f" d="M175.322 270.59a6.171 6.171 0 11-6.075 6.172 6.124 6.124 0 016.075-6.172z"/><path class="f" d="M210.878 256.886a4.191 4.191 0 11-4.126 4.191 4.158 4.158 0 014.126-4.191z"/><path class="f" d="M241.612 255.917a4.191 4.191 0 11-4.126 4.191 4.16 4.16 0 014.126-4.191z"/><path class="f" d="M203.048 261.105a3.085 3.085 0 11-3.037 3.084 3.061 3.061 0 013.037-3.084z"/><path class="f" d="M228.064 254.377a2.553 2.553 0 11-2.512 2.552 2.534 2.534 0 012.512-2.552z"/><path class="f" d="M196.377 254.323a4.779 4.779 0 11-4.705 4.779 4.743 4.743 0 014.705-4.779z"/><path class="f" d="M230.474 259.428a6.688 6.688 0 11-6.584 6.688 6.637 6.637 0 016.584-6.688z"/><path class="f" d="M158.045 284.594a6.689 6.689 0 11-6.584 6.688 6.638 6.638 0 016.584-6.688z"/><path class="f" d="M123.624 289.618a4.16 4.16 0 11-4.1 4.16 4.127 4.127 0 014.1-4.16z"/><path class="g" d="M155.774 11.07a2.718 2.718 0 11-2.675 2.718 2.7 2.7 0 012.675-2.718z"/><path class="g" d="M137.342 21.136a2.717 2.717 0 11-2.675 2.716 2.695 2.695 0 012.675-2.716z"/><path class="g" d="M102.663 35.628a2.717 2.717 0 11-2.675 2.716 2.7 2.7 0 012.675-2.716z"/><path class="g" d="M120.499 61.594a2.315 2.315 0 11-2.278 2.315 2.3 2.3 0 012.278-2.315z"/><path class="g" d="M127.633 51.327a3.12 3.12 0 11-3.075 3.12 3.1 3.1 0 013.071-3.119z"/><path class="g" d="M158.151 34.017a3.12 3.12 0 11-3.071 3.121 3.1 3.1 0 013.071-3.121z"/><path class="g" d="M156.37 50.12a2.717 2.717 0 11-2.678 2.721 2.7 2.7 0 012.675-2.718z"/><path class="g" d="M157.755 56.359a2.718 2.718 0 11-2.675 2.718 2.7 2.7 0 012.675-2.718z"/><path class="g" d="M192.827 52.536a2.717 2.717 0 11-2.675 2.716 2.7 2.7 0 012.675-2.716z"/><path class="g" d="M201.353 53.139a3.12 3.12 0 11-3.072 3.121 3.1 3.1 0 013.072-3.121z"/><path class="g" d="M207.1 43.477a2.315 2.315 0 11-2.28 2.315 2.3 2.3 0 012.28-2.315z"/><path class="g" d="M200.362 23.35a2.315 2.315 0 11-2.278 2.314 2.3 2.3 0 012.278-2.314z"/><path class="g" d="M181.337 24.959a3.925 3.925 0 11-3.864 3.925 3.9 3.9 0 013.864-3.925z"/><path class="g" d="M126.641 29.589a3.925 3.925 0 11-3.864 3.925 3.894 3.894 0 013.864-3.925z"/><path class="g" d="M92.557 47.1a2.315 2.315 0 11-2.28 2.315 2.3 2.3 0 012.28-2.315z"/><path class="g" d="M130.011 13.888a4.731 4.731 0 11-4.657 4.732 4.694 4.694 0 014.657-4.732z"/><path class="g" d="M152.999 25.362a4.731 4.731 0 11-4.657 4.73 4.694 4.694 0 014.657-4.73z"/><path class="g" d="M150.819 0a5.938 5.938 0 11-5.846 5.937A5.892 5.892 0 01150.819 0z"/><path class="g" d="M111.184 37.439a5.938 5.938 0 11-5.846 5.938 5.892 5.892 0 015.846-5.938z"/><path class="g" d="M186.489 32.004a5.536 5.536 0 11-5.449 5.534 5.492 5.492 0 015.449-5.534z"/><path class="g" d="M138.137 44.484a6.34 6.34 0 11-6.243 6.34 6.291 6.291 0 016.243-6.34z"/><path class="g" d="M208.684 29.791a6.34 6.34 0 11-6.241 6.34 6.291 6.291 0 016.241-6.34z"/><path class="g" d="M176.58 6.038a8.152 8.152 0 11-8.024 8.152 8.089 8.089 0 018.024-8.152z"/><path class="g" d="M106.032 10.064a8.354 8.354 0 11-8.224 8.352 8.289 8.289 0 018.224-8.352z"/><path class="g" d="M219.84 21.374a6.341 6.341 0 11-6.241 6.34 6.29 6.29 0 016.241-6.34z"/><path class="g" d="M222.071 44.682a6.341 6.341 0 11-6.241 6.34 6.292 6.292 0 016.241-6.34z"/><path class="g" d="M230.779 53.171a1.349 1.349 0 11-1.329 1.349 1.338 1.338 0 011.329-1.349z"/><path class="g" d="M236.061 65.811a2.315 2.315 0 11-2.28 2.315 2.3 2.3 0 012.28-2.315z"/><path class="g" d="M232.994 70.065a3.626 3.626 0 11-3.569 3.625 3.6 3.6 0 013.569-3.625z"/><path class="g" d="M159.9 75.243a2.717 2.717 0 11-2.675 2.718 2.7 2.7 0 012.675-2.718z"/><path class="g" d="M174.916 82.871a2.717 2.717 0 11-2.675 2.716 2.7 2.7 0 012.675-2.716z"/><path class="g" d="M169.717 86.695a3.925 3.925 0 11-3.864 3.925 3.894 3.894 0 013.864-3.925z"/><path class="g" d="M214.609 73.801a2.315 2.315 0 11-2.28 2.314 2.3 2.3 0 012.28-2.314z"/><path class="g" d="M262.83 58.482a6.34 6.34 0 11-6.241 6.34 6.291 6.291 0 016.241-6.34z"/><path class="g" d="M271.814 66.252a1.874 1.874 0 11-1.846 1.874 1.859 1.859 0 011.846-1.874z"/><path class="g" d="M281.441 83.32a3.625 3.625 0 11-3.569 3.625 3.6 3.6 0 013.569-3.625z"/><path class="g" d="M242.444 83.866a5.969 5.969 0 11-5.879 5.963 5.922 5.922 0 015.875-5.968z"/><path class="g" d="M268.187 85.318a6.332 6.332 0 11-6.234 6.331 6.282 6.282 0 016.234-6.331z"/><path class="g" d="M110.784 56.287a6.34 6.34 0 11-6.241 6.34 6.291 6.291 0 016.241-6.34z"/><path class="g" d="M61.621 33.568A6.725 6.725 0 1155 40.293a6.671 6.671 0 016.621-6.725z"/><path class="g" d="M80.776 54.087a5.058 5.058 0 11-4.979 5.057 5.017 5.017 0 014.979-5.057z"/><path class="g" d="M97.581 68.214a4.731 4.731 0 11-4.658 4.73 4.694 4.694 0 014.658-4.73z"/><path class="g" d="M56.259 63.187a6.341 6.341 0 11-6.241 6.34 6.291 6.291 0 016.241-6.34z"/><path class="g" d="M69.891 51.873a3.12 3.12 0 11-3.072 3.119 3.095 3.095 0 013.072-3.119z"/><path class="g" d="M32.585 65.032a5.058 5.058 0 11-4.979 5.058 5.018 5.018 0 014.979-5.058z"/><path class="g" d="M33.074 76.499a3.12 3.12 0 11-3.072 3.121 3.1 3.1 0 013.072-3.121z"/><path class="g" d="M50.281 83.967a2.718 2.718 0 11-2.675 2.718 2.7 2.7 0 012.675-2.718z"/><path class="g" d="M54.472 96.736a2.718 2.718 0 11-2.675 2.718 2.7 2.7 0 012.675-2.718z"/><path class="g" d="M70.325 78.996a6.341 6.341 0 11-6.241 6.34 6.291 6.291 0 016.241-6.34z"/><path class="g" d="M45.034 89.732a5.938 5.938 0 11-5.846 5.937 5.891 5.891 0 015.846-5.937z"/><path class="g" d="M35.767 97.978a3.53 3.53 0 11-3.475 3.529 3.5 3.5 0 013.475-3.529z"/><path class="g" d="M57.904 111.014a5.938 5.938 0 11-5.846 5.937 5.892 5.892 0 015.846-5.937z"/><path class="g" d="M88.557 104.859a5.058 5.058 0 11-4.979 5.058 5.019 5.019 0 014.979-5.058z"/><path class="g" d="M97.115 80.611a5.938 5.938 0 11-5.846 5.937 5.891 5.891 0 015.846-5.937z"/><path class="g" d="M104.159 89.44a2.718 2.718 0 11-2.675 2.718 2.7 2.7 0 012.675-2.718z"/><path class="g" d="M78.489 100.001a2.315 2.315 0 11-2.28 2.315 2.3 2.3 0 012.28-2.315z"/><path class="g" d="M143.741 82.368a2.315 2.315 0 11-2.278 2.315 2.3 2.3 0 012.278-2.315z"/><path class="g" d="M13.132 117.74a7.986 7.986 0 11-7.861 7.985 7.923 7.923 0 017.861-7.985z"/><path class="g" d="M127.24 104.684a3.925 3.925 0 11-3.863 3.925 3.894 3.894 0 013.863-3.925z"/><path class="g" d="M157.294 95.044a3.12 3.12 0 11-3.072 3.119 3.095 3.095 0 013.072-3.119z"/><path class="g" d="M151.306 113.179a3.531 3.531 0 11-3.476 3.531 3.5 3.5 0 013.476-3.531z"/><path class="g" d="M134.232 118.352a5.6 5.6 0 11-5.509 5.6 5.553 5.553 0 015.509-5.6z"/><path class="g" d="M223.431 114.092a5.6 5.6 0 11-5.509 5.6 5.553 5.553 0 015.509-5.6z"/><path class="g" d="M246.344 115.275a3.925 3.925 0 11-3.863 3.923 3.894 3.894 0 013.863-3.923z"/><path class="g" d="M255.83 96.308a3.12 3.12 0 11-3.071 3.119 3.1 3.1 0 013.071-3.119z"/><path class="g" d="M274.6 106.852a3.625 3.625 0 11-3.569 3.626 3.6 3.6 0 013.569-3.626z"/><path class="g" d="M258.042 118.352a8.5 8.5 0 11-8.364 8.495 8.429 8.429 0 018.364-8.495z"/><path class="g" d="M284.478 122.967a3.625 3.625 0 11-3.568 3.625 3.6 3.6 0 013.568-3.625z"/><path class="g" d="M186.001 119.926a3.625 3.625 0 11-3.569 3.625 3.6 3.6 0 013.569-3.625z"/><path class="g" d="M188.94 127.363a2.315 2.315 0 11-2.28 2.315 2.3 2.3 0 012.28-2.315z"/><path class="g" d="M170.377 127.972a2.315 2.315 0 11-2.28 2.315 2.3 2.3 0 012.28-2.315z"/><path class="g" d="M200.313 132.533a2.315 2.315 0 11-2.278 2.315 2.3 2.3 0 012.278-2.315z"/><path class="g" d="M266.391 146.496a5.969 5.969 0 11-5.877 5.968 5.922 5.922 0 015.877-5.968z"/><path class="g" d="M283.581 139.993a3.624 3.624 0 11-3.569 3.623 3.6 3.6 0 013.569-3.623z"/><path class="g" d="M275.87 154.283a2.315 2.315 0 11-2.278 2.315 2.3 2.3 0 012.278-2.315z"/><path class="g" d="M297.72 162.189a2.315 2.315 0 11-2.278 2.315 2.3 2.3 0 012.278-2.315z"/><path class="g" d="M252.887 149.63a4.274 4.274 0 11-4.207 4.273 4.241 4.241 0 014.207-4.273z"/><path class="g" d="M243.557 149.516a3.12 3.12 0 11-3.071 3.119 3.1 3.1 0 013.071-3.119z"/><path class="g" d="M222.989 134.029a5.969 5.969 0 11-5.877 5.969 5.923 5.923 0 015.877-5.969z"/><path class="g" d="M220.594 155.919a5.969 5.969 0 11-5.877 5.969 5.923 5.923 0 015.877-5.969z"/><path class="g" d="M211.623 139.9a3.925 3.925 0 11-3.868 3.925 3.894 3.894 0 013.864-3.925z"/><path class="g" d="M198.577 152.457a3.625 3.625 0 11-3.569 3.625 3.6 3.6 0 013.569-3.625z"/><path class="g" d="M203.606 160.504a2.315 2.315 0 11-2.278 2.314 2.3 2.3 0 012.278-2.314z"/><path class="g" d="M247.606 165.064a2.315 2.315 0 11-2.278 2.315 2.3 2.3 0 012.278-2.315z"/><path class="g" d="M170.151 161.824a5.6 5.6 0 11-5.509 5.6 5.554 5.554 0 015.509-5.6z"/><path class="g" d="M159.36 161.881a3.626 3.626 0 11-3.569 3.625 3.6 3.6 0 013.569-3.625z"/><path class="g" d="M131.523 130.566a3.626 3.626 0 11-3.569 3.626 3.6 3.6 0 013.569-3.626z"/><path class="g" d="M141.117 150.27a4.685 4.685 0 11-4.611 4.685 4.649 4.649 0 014.611-4.685z"/><path class="g" d="M71.977 149.321a5.938 5.938 0 11-5.846 5.938 5.892 5.892 0 015.846-5.938z"/><path class="g" d="M80.214 145.077a2.717 2.717 0 11-2.675 2.718 2.7 2.7 0 012.675-2.718z"/><path class="g" d="M76.922 128.054a2.717 2.717 0 11-2.675 2.718 2.7 2.7 0 012.675-2.718z"/><path class="g" d="M44.436 128.645a5.938 5.938 0 11-5.846 5.937 5.892 5.892 0 015.846-5.937z"/><path class="g" d="M22.144 131.093a2.717 2.717 0 11-2.674 2.716 2.7 2.7 0 012.674-2.716z"/><path class="g" d="M8.53 143.278a3.531 3.531 0 11-3.476 3.531 3.5 3.5 0 013.476-3.531z"/><path class="g" d="M24.871 161.537a3.925 3.925 0 11-3.863 3.922 3.894 3.894 0 013.863-3.925z"/><path class="g" d="M29.335 151.517a4.731 4.731 0 11-4.657 4.73 4.695 4.695 0 014.657-4.73z"/><path class="g" d="M46.53 158.746a5.938 5.938 0 11-5.846 5.938 5.891 5.891 0 015.846-5.938z"/><path class="g" d="M57.771 163.952a4.153 4.153 0 11-4.088 4.153 4.122 4.122 0 014.088-4.153z"/><path class="g" d="M146.19 169.787a3.625 3.625 0 11-3.569 3.625 3.6 3.6 0 013.569-3.625z"/><path class="g" d="M48.482 177.608a2.718 2.718 0 11-2.675 2.718 2.7 2.7 0 012.675-2.718z"/><path class="g" d="M62.853 191.29a2.717 2.717 0 11-2.675 2.718 2.7 2.7 0 012.675-2.718z"/><path class="g" d="M67.942 209.531a2.717 2.717 0 11-2.675 2.718 2.7 2.7 0 012.675-2.718z"/><path class="g" d="M31.723 218.348a2.717 2.717 0 11-2.675 2.718 2.7 2.7 0 012.675-2.718z"/><path class="g" d="M79.017 170.641a1.477 1.477 0 11-1.454 1.477 1.465 1.465 0 011.454-1.477z"/><path class="g" d="M63.031 184.625a2.266 2.266 0 11-2.23 2.265 2.248 2.248 0 012.23-2.265z"/><path class="g" d="M46.988 194.659a3.3 3.3 0 11-3.248 3.3 3.275 3.275 0 013.248-3.3z"/><path class="g" d="M32.322 199.827a3.3 3.3 0 11-3.25 3.3 3.275 3.275 0 013.25-3.3z"/><path class="g" d="M7.484 172.496a4.731 4.731 0 11-4.657 4.73 4.694 4.694 0 014.657-4.73z"/><path class="g" d="M32.762 182.764a5.938 5.938 0 11-5.846 5.938 5.891 5.891 0 015.846-5.938z"/><path class="g" d="M20.681 208.661a3.925 3.925 0 11-3.864 3.925 3.894 3.894 0 013.864-3.925z"/><path class="g" d="M45.193 224.454a3.3 3.3 0 11-3.249 3.3 3.275 3.275 0 013.249-3.3z"/><path class="g" d="M51.784 213.844a4.73 4.73 0 11-4.657 4.729 4.692 4.692 0 014.657-4.729z"/><path class="g" d="M71.833 201.955a3.3 3.3 0 11-3.25 3.3 3.275 3.275 0 013.25-3.3z"/><path class="g" d="M81.711 197.396a3.3 3.3 0 11-3.25 3.3 3.274 3.274 0 013.25-3.3z"/><path class="g" d="M78.558 176.683a5.938 5.938 0 11-5.846 5.938 5.893 5.893 0 015.846-5.938z"/><path class="g" d="M80.054 218.943a5.938 5.938 0 11-5.846 5.938 5.892 5.892 0 015.846-5.938z"/><path class="g" d="M65.548 226.581a3.3 3.3 0 11-3.25 3.3 3.276 3.276 0 013.25-3.3z"/><path class="g" d="M122.125 214.613a5.481 5.481 0 11-5.395 5.481 5.438 5.438 0 015.395-5.481z"/><path class="g" d="M127.806 199.22a3.3 3.3 0 11-3.249 3.3 3.274 3.274 0 013.249-3.3z"/><path class="g" d="M147.263 194.963a3.3 3.3 0 11-3.25 3.3 3.274 3.274 0 013.25-3.3z"/><path class="g" d="M151.154 214.725a3.3 3.3 0 11-3.25 3.3 3.275 3.275 0 013.25-3.3z"/><path class="g" d="M132.894 205.579a2.717 2.717 0 11-2.675 2.718 2.7 2.7 0 012.675-2.718z"/><path class="g" d="M131.398 212.871a2.717 2.717 0 11-2.675 2.718 2.7 2.7 0 012.675-2.718z"/><path class="g" d="M133.194 181.256a2.718 2.718 0 11-2.675 2.718 2.7 2.7 0 012.675-2.718z"/><path class="g" d="M123.912 192.53a3.3 3.3 0 11-3.248 3.3 3.275 3.275 0 013.248-3.3z"/><path class="g" d="M178.691 188.553a2.718 2.718 0 11-2.675 2.718 2.7 2.7 0 012.675-2.718z"/><path class="g" d="M203.835 202.235a2.717 2.717 0 11-2.675 2.718 2.7 2.7 0 012.675-2.718z"/><path class="g" d="M159.541 181.171a4.568 4.568 0 11-4.5 4.567 4.532 4.532 0 014.5-4.567z"/><path class="g" d="M168.82 206.101a4.568 4.568 0 11-4.5 4.569 4.533 4.533 0 014.5-4.569z"/><path class="g" d="M235.373 204.153a4.569 4.569 0 11-4.5 4.568 4.534 4.534 0 014.5-4.568z"/><path class="g" d="M225.067 204.559a3.625 3.625 0 11-3.569 3.626 3.6 3.6 0 013.569-3.626z"/><path class="g" d="M220.137 191.206a3.626 3.626 0 11-3.566 3.625 3.6 3.6 0 013.569-3.625z"/><path class="g" d="M216.85 216.248a3.625 3.625 0 11-3.569 3.625 3.6 3.6 0 013.569-3.625z"/><path class="g" d="M198.908 225.527a5.6 5.6 0 11-5.509 5.6 5.554 5.554 0 015.509-5.6z"/><path class="g" d="M185.761 230.535a5.6 5.6 0 11-5.509 5.6 5.553 5.553 0 015.509-5.6z"/><path class="g" d="M176.167 235.902a2.717 2.717 0 11-2.675 2.716 2.7 2.7 0 012.675-2.716z"/><path class="g" d="M211.507 175.177a5.6 5.6 0 11-5.509 5.6 5.553 5.553 0 015.509-5.6z"/><path class="g" d="M238.724 181.297a6.773 6.773 0 11-6.668 6.773 6.72 6.72 0 016.668-6.773z"/><path class="g" d="M263.865 171.777a5.969 5.969 0 11-5.875 5.968 5.922 5.922 0 015.875-5.968z"/><path class="g" d="M244.42 230.751a5.969 5.969 0 11-5.875 5.968 5.922 5.922 0 015.875-5.968z"/><path class="g" d="M260.091 199.393a8.707 8.707 0 11-8.573 8.706 8.639 8.639 0 018.573-8.706z"/><path class="g" d="M240.305 195.554a2.315 2.315 0 11-2.278 2.315 2.3 2.3 0 012.278-2.315z"/><path class="g" d="M270.158 183.314a2.315 2.315 0 11-2.278 2.315 2.3 2.3 0 012.278-2.315z"/><path class="g" d="M284.948 174.134a2.315 2.315 0 11-2.28 2.315 2.3 2.3 0 012.28-2.315z"/><path class="g" d="M292.341 190.822a2.315 2.315 0 11-2.275 2.318 2.3 2.3 0 012.275-2.318z"/><path class="g" d="M270.976 209.667a1.555 1.555 0 11-1.53 1.555 1.543 1.543 0 011.53-1.555z"/><path class="g" d="M273.72 227.545a2.315 2.315 0 11-2.28 2.314 2.3 2.3 0 012.28-2.314z"/><path class="g" d="M235.749 249.625a3.625 3.625 0 11-3.569 3.625 3.6 3.6 0 013.569-3.625z"/><path class="g" d="M259.028 241.001a3.625 3.625 0 11-3.569 3.625 3.6 3.6 0 013.569-3.625z"/><path class="g" d="M223.828 248.969a2.717 2.717 0 11-2.675 2.718 2.7 2.7 0 012.675-2.718z"/><path class="g" d="M216.478 264.265a2.315 2.315 0 11-2.278 2.315 2.3 2.3 0 012.278-2.315z"/><path class="g" d="M195.389 264.465a1.555 1.555 0 11-1.53 1.555 1.544 1.544 0 011.53-1.555z"/><path class="g" d="M177.039 256.198a2.315 2.315 0 11-2.278 2.314 2.3 2.3 0 012.278-2.314z"/><path class="g" d="M151.843 247.853a2.315 2.315 0 11-2.278 2.315 2.3 2.3 0 012.278-2.315z"/><path class="g" d="M163.072 244.161a1.555 1.555 0 11-1.53 1.555 1.543 1.543 0 011.53-1.555z"/><path class="g" d="M209.73 266.038a3.625 3.625 0 11-3.569 3.625 3.6 3.6 0 013.569-3.625z"/><path class="g" d="M213.424 244.165a5.6 5.6 0 11-5.509 5.6 5.553 5.553 0 015.509-5.6z"/><path class="g" d="M205.325 252.547a3.3 3.3 0 11-3.25 3.3 3.275 3.275 0 013.25-3.3z"/><path class="g" d="M187.131 262.525a5.6 5.6 0 11-5.509 5.6 5.554 5.554 0 015.509-5.6z"/><path class="g" d="M176.761 262.26a3.766 3.766 0 11-3.707 3.764 3.736 3.736 0 013.707-3.764z"/><path class="g" d="M158.765 261.447a3.3 3.3 0 11-3.248 3.3 3.276 3.276 0 013.248-3.3z"/><path class="g" d="M156.185 268.66a5.026 5.026 0 11-4.948 5.026 4.986 4.986 0 014.948-5.026z"/><path class="g" d="M109.119 251.468a2.315 2.315 0 11-2.28 2.315 2.3 2.3 0 012.28-2.315z"/><path class="g" d="M75.57 266.079a5.48 5.48 0 11-5.4 5.48 5.437 5.437 0 015.4-5.48z"/><path class="g" d="M59.955 238.259a5.481 5.481 0 11-5.395 5.48 5.437 5.437 0 015.395-5.48z"/><path class="g" d="M52.949 257.182a3.3 3.3 0 11-3.25 3.3 3.274 3.274 0 013.25-3.3z"/><path class="g" d="M104.711 267.474a3.3 3.3 0 11-3.248 3.3 3.276 3.276 0 013.248-3.3z"/><path class="g" d="M91.292 253.843a3.3 3.3 0 11-3.25 3.3 3.274 3.274 0 013.25-3.3z"/><path class="g" d="M77.345 247.796a3.766 3.766 0 11-3.707 3.764 3.736 3.736 0 013.707-3.764z"/><path class="g" d="M52.421 248.352a3.766 3.766 0 11-3.711 3.761 3.737 3.737 0 013.707-3.766z"/><path class="g" d="M111.853 260.871a4.043 4.043 0 11-3.98 4.044 4.013 4.013 0 013.98-4.044z"/><path class="g" d="M100.039 258.18a4.657 4.657 0 11-4.585 4.657 4.621 4.621 0 014.585-4.657z"/><path class="g" d="M127.695 280.156a4.657 4.657 0 11-4.585 4.657 4.62 4.62 0 014.585-4.657z"/><path class="g" d="M138.967 280.621a4.044 4.044 0 11-3.981 4.044 4.012 4.012 0 013.981-4.044z"/><path class="g" d="M92.653 275.339a6.295 6.295 0 11-6.2 6.294 6.246 6.246 0 016.2-6.294z"/><path class="g" d="M173.72 283.129a7.129 7.129 0 11-7.017 7.128 7.073 7.073 0 017.017-7.128z"/><path class="h" d="M120.312 7.208a5.627 5.627 0 11-5.54 5.627 5.585 5.585 0 015.54-5.627z"/><path class="h" d="M129.544 24.921a2.293 2.293 0 11-2.256 2.293 2.275 2.275 0 012.256-2.293z"/><path class="h" d="M116.824 31.383a3.334 3.334 0 11-3.282 3.334 3.307 3.307 0 013.282-3.334z"/><path class="h" d="M174.271 31.383a2.5 2.5 0 11-2.462 2.5 2.481 2.481 0 012.462-2.5z"/><path class="h" d="M164.627 25.13a5.211 5.211 0 11-5.129 5.211 5.17 5.17 0 015.129-5.211z"/><path class="h" d="M138.983 27.631a8.128 8.128 0 11-8 8.127 8.064 8.064 0 018-8.127z"/><path class="h" d="M92.615 38.05a3.126 3.126 0 11-3.078 3.126 3.1 3.1 0 013.078-3.126z"/><path class="h" d="M82.766 41.177a6.252 6.252 0 11-6.154 6.252 6.2 6.2 0 016.154-6.252z"/><path class="h" d="M105.539 49.512a3.334 3.334 0 11-3.282 3.334 3.309 3.309 0 013.282-3.334z"/><path class="h" d="M115.798 49.095a3.335 3.335 0 11-3.282 3.334 3.309 3.309 0 013.282-3.334z"/><path class="h" d="M148.215 52.638a3.96 3.96 0 11-3.9 3.96 3.929 3.929 0 013.9-3.96z"/><path class="h" d="M196.841 29.507a4.585 4.585 0 11-4.513 4.585 4.549 4.549 0 014.513-4.585z"/><path class="h" d="M194.994 59.098a3.752 3.752 0 11-3.692 3.751 3.722 3.722 0 013.692-3.751z"/><path class="h" d="M209.15 49.512a3.751 3.751 0 11-3.692 3.751 3.721 3.721 0 013.692-3.751z"/><path class="h" d="M213.254 42.635a3.127 3.127 0 11-3.077 3.127 3.1 3.1 0 013.077-3.127z"/><path class="h" d="M212.843 14.92a3.751 3.751 0 11-3.693 3.75 3.722 3.722 0 013.693-3.75z"/><path class="h" d="M223.307 58.678a6.669 6.669 0 11-6.566 6.668 6.618 6.618 0 016.566-6.668z"/><path class="h" d="M214.485 66.391a2.5 2.5 0 11-2.462 2.5 2.482 2.482 0 012.462-2.5z"/><path class="h" d="M232.54 78.687a2.5 2.5 0 11-2.462 2.5 2.482 2.482 0 012.462-2.5z"/><path class="h" d="M244.85 63.266a5.21 5.21 0 11-5.13 5.209 5.17 5.17 0 015.13-5.209z"/><path class="h" d="M161.141 82.854a3.126 3.126 0 11-3.077 3.127 3.1 3.1 0 013.077-3.127z"/><path class="h" d="M158.477 43.886a2.293 2.293 0 11-2.258 2.292 2.274 2.274 0 012.258-2.292z"/><path class="h" d="M255.519 73.269a8.128 8.128 0 11-8 8.127 8.064 8.064 0 018-8.127z"/><path class="h" d="M191.916 83.272a3.126 3.126 0 11-3.077 3.127 3.1 3.1 0 013.077-3.127z"/><path class="h" d="M119.082 67.018a6.252 6.252 0 11-6.156 6.252 6.2 6.2 0 016.156-6.252z"/><path class="h" d="M108.412 78.063a4.584 4.584 0 11-4.513 4.583 4.549 4.549 0 014.513-4.583z"/><path class="h" d="M68.199 59.306a5 5 0 11-4.924 5 4.963 4.963 0 014.924-5z"/><path class="h" d="M42.348 53.055a8.128 8.128 0 11-8 8.127 8.064 8.064 0 018-8.127z"/><path class="h" d="M66.558 26.796a3.127 3.127 0 11-3.077 3.127 3.1 3.1 0 013.077-3.127z"/><path class="h" d="M49.119 78.063a2.709 2.709 0 11-2.668 2.711 2.688 2.688 0 012.668-2.709z"/><path class="h" d="M80.92 86.19a3.334 3.334 0 11-3.282 3.334 3.308 3.308 0 013.282-3.334z"/><path class="h" d="M87.075 84.105a3.126 3.126 0 11-3.077 3.125 3.1 3.1 0 013.077-3.125z"/><path class="h" d="M81.74 78.27a3.335 3.335 0 11-3.282 3.335 3.309 3.309 0 013.282-3.335z"/><path class="h" d="M41.322 79.521a4.585 4.585 0 11-4.514 4.585 4.549 4.549 0 014.514-4.585z"/><path class="h" d="M21.421 80.563a3.752 3.752 0 11-3.694 3.751 3.722 3.722 0 013.694-3.751z"/><path class="h" d="M29.217 109.113a3.334 3.334 0 11-3.282 3.334 3.308 3.308 0 013.282-3.334z"/><path class="h" d="M34.756 114.738a3.335 3.335 0 11-3.282 3.335 3.31 3.31 0 013.282-3.335z"/><path class="h" d="M19.985 107.653a5 5 0 11-4.924 5 4.964 4.964 0 014.924-5z"/><path class="h" d="M69.019 110.78a4.793 4.793 0 11-4.718 4.793 4.756 4.756 0 014.718-4.793z"/><path class="h" d="M123.184 113.28a3.96 3.96 0 11-3.9 3.96 3.929 3.929 0 013.9-3.96z"/><path class="h" d="M134.059 110.566a3.126 3.126 0 11-3.078 3.126 3.1 3.1 0 013.078-3.126z"/><path class="h" d="M142.059 113.489a3.543 3.543 0 11-3.488 3.542 3.515 3.515 0 013.488-3.542z"/><path class="h" d="M169.142 95.15a8.337 8.337 0 11-8.206 8.336 8.271 8.271 0 018.206-8.336z"/><path class="h" d="M196.225 119.531a5.628 5.628 0 11-5.539 5.627 5.584 5.584 0 015.539-5.627z"/><path class="h" d="M240.13 104.111a3.752 3.752 0 11-3.692 3.751 3.723 3.723 0 013.692-3.751z"/><path class="h" d="M243.414 111.197a1.875 1.875 0 11-1.846 1.874 1.86 1.86 0 011.846-1.874z"/><path class="h" d="M265.166 98.902a5.21 5.21 0 11-5.129 5.209 5.171 5.171 0 015.129-5.209z"/><path class="h" d="M264.752 110.78a3.752 3.752 0 11-3.694 3.751 3.721 3.721 0 013.694-3.751z"/><path class="h" d="M284.243 100.777a5.627 5.627 0 11-5.54 5.627 5.584 5.584 0 015.54-5.627z"/><path class="h" d="M241.773 123.909a6.252 6.252 0 11-6.155 6.252 6.2 6.2 0 016.155-6.252z"/><path class="h" d="M266.187 134.954a3.751 3.751 0 11-3.692 3.75 3.721 3.721 0 013.692-3.75z"/><path class="h" d="M269.265 128.91a2.709 2.709 0 11-2.668 2.709 2.688 2.688 0 012.668-2.709z"/><path class="h" d="M276.652 146.832a3.126 3.126 0 11-3.078 3.125 3.1 3.1 0 013.078-3.125z"/><path class="h" d="M287.936 147.875a8.753 8.753 0 11-8.618 8.752 8.685 8.685 0 018.618-8.752z"/><path class="h" d="M224.948 151.208a2.084 2.084 0 11-2.051 2.083 2.066 2.066 0 012.051-2.083z"/><path class="h" d="M224.744 126.409a3.126 3.126 0 11-3.078 3.125 3.1 3.1 0 013.078-3.125z"/><path class="h" d="M189.865 141.413a3.127 3.127 0 11-3.078 3.127 3.1 3.1 0 013.078-3.127z"/><path class="h" d="M185.966 137.663a1.875 1.875 0 11-1.846 1.874 1.861 1.861 0 011.846-1.874z"/><path class="h" d="M200.123 138.493a6.462 6.462 0 11-6.359 6.462 6.413 6.413 0 016.359-6.462z"/><path class="h" d="M84.406 128.495a3.335 3.335 0 11-3.282 3.335 3.31 3.31 0 013.282-3.335z"/><path class="h" d="M83.382 136.203a2.918 2.918 0 11-2.872 2.918 2.9 2.9 0 012.872-2.918z"/><path class="h" d="M62.044 135.786a3.96 3.96 0 11-3.9 3.96 3.931 3.931 0 013.9-3.96z"/><path class="h" d="M54.042 124.116a4.794 4.794 0 11-4.718 4.793 4.756 4.756 0 014.718-4.793z"/><path class="h" d="M34.962 123.7a3.96 3.96 0 11-3.9 3.96 3.929 3.929 0 013.9-3.96z"/><path class="h" d="M16.291 146.624a3.96 3.96 0 11-3.9 3.958 3.929 3.929 0 013.9-3.958z"/><path class="h" d="M17.317 135.579a5 5 0 11-4.924 5 4.963 4.963 0 014.924-5z"/><path class="h" d="M55.889 150.375a5.836 5.836 0 11-5.744 5.834 5.789 5.789 0 015.744-5.834z"/><path class="h" d="M34.552 161.002a4.168 4.168 0 11-4.1 4.167 4.135 4.135 0 014.1-4.167z"/><path class="h" d="M79.279 160.378a4.168 4.168 0 11-4.1 4.167 4.136 4.136 0 014.1-4.167z"/><path class="h" d="M136.315 160.169a3.96 3.96 0 11-3.9 3.96 3.929 3.929 0 013.9-3.96z"/><path class="h" d="M115.388 174.132a2.709 2.709 0 11-2.666 2.709 2.689 2.689 0 012.666-2.709z"/><path class="h" d="M155.806 170.589a4.793 4.793 0 11-4.718 4.792 4.756 4.756 0 014.718-4.792z"/><path class="h" d="M209.971 163.503a5.419 5.419 0 11-5.334 5.418 5.377 5.377 0 015.334-5.418z"/><path class="h" d="M243.824 157.042a4.168 4.168 0 11-4.1 4.169 4.138 4.138 0 014.1-4.169z"/><path class="h" d="M260.033 157.876a3.752 3.752 0 11-3.694 3.751 3.723 3.723 0 013.694-3.751z"/><path class="h" d="M261.673 166.42a1.876 1.876 0 11-1.846 1.876 1.861 1.861 0 011.846-1.876z"/><path class="h" d="M273.368 171.838a2.918 2.918 0 11-2.872 2.914 2.895 2.895 0 012.872-2.918z"/><path class="h" d="M292.449 166.004a5.627 5.627 0 11-5.539 5.627 5.584 5.584 0 015.539-5.627z"/><path class="h" d="M273.984 196.013a5.419 5.419 0 11-5.334 5.418 5.377 5.377 0 015.334-5.418z"/><path class="h" d="M251.005 191.637a3.752 3.752 0 11-3.692 3.751 3.722 3.722 0 013.692-3.751z"/><path class="h" d="M224.744 197.888a2.709 2.709 0 11-2.668 2.709 2.689 2.689 0 012.668-2.709z"/><path class="h" d="M178.375 194.97a3.96 3.96 0 11-3.9 3.96 3.929 3.929 0 013.9-3.96z"/><path class="h" d="M163.602 190.177a1.459 1.459 0 11-1.436 1.46 1.448 1.448 0 011.436-1.46z"/><path class="h" d="M126.056 186.635a2.293 2.293 0 11-2.256 2.293 2.275 2.275 0 012.256-2.293z"/><path class="h" d="M116.62 192.053a2.293 2.293 0 11-2.258 2.293 2.274 2.274 0 012.258-2.293z"/><path class="h" d="M116.004 198.513a6.461 6.461 0 11-6.36 6.46 6.411 6.411 0 016.36-6.46z"/><path class="h" d="M69.225 194.97a2.918 2.918 0 11-2.872 2.918 2.9 2.9 0 012.872-2.918z"/><path class="h" d="M68.609 178.923a2.918 2.918 0 11-2.872 2.918 2.9 2.9 0 012.872-2.918z"/><path class="h" d="M41.322 170.589a4.168 4.168 0 11-4.1 4.167 4.134 4.134 0 014.1-4.167z"/><path class="h" d="M53.426 183.926a5.836 5.836 0 11-5.744 5.836 5.79 5.79 0 015.744-5.836z"/><path class="h" d="M16.291 179.966a8.337 8.337 0 11-8.206 8.336 8.271 8.271 0 018.206-8.336z"/><path class="h" d="M31.063 207.474a5 5 0 11-4.924 5 4.964 4.964 0 014.924-5z"/><path class="h" d="M38.45 194.348a3.543 3.543 0 11-3.488 3.542 3.516 3.516 0 013.488-3.542z"/><path class="h" d="M69.225 220.394a2.918 2.918 0 11-2.872 2.918 2.9 2.9 0 012.872-2.918z"/><path class="h" d="M72.508 213.31a3.543 3.543 0 11-3.488 3.543 3.516 3.516 0 013.488-3.543z"/><path class="h" d="M88.716 215.393a2.917 2.917 0 11-2.872 2.918 2.895 2.895 0 012.872-2.918z"/><path class="h" d="M57.121 229.355a3.544 3.544 0 11-3.488 3.544 3.516 3.516 0 013.488-3.544z"/><path class="h" d="M73.124 230.19a3.543 3.543 0 11-3.488 3.542 3.516 3.516 0 013.488-3.542z"/><path class="h" d="M49.325 232.272a3.96 3.96 0 11-3.9 3.96 3.93 3.93 0 013.9-3.96z"/><path class="h" d="M91.588 222.061a3.96 3.96 0 11-3.9 3.96 3.929 3.929 0 013.9-3.96z"/><path class="h" d="M91.795 231.439a2.918 2.918 0 11-2.874 2.918 2.9 2.9 0 012.874-2.918z"/><path class="h" d="M99.795 233.732a5.419 5.419 0 11-5.334 5.418 5.377 5.377 0 015.334-5.418z"/><path class="h" d="M114.568 212.06a2.917 2.917 0 11-2.872 2.916 2.894 2.894 0 012.872-2.916z"/><path class="h" d="M141.239 228.105a2.5 2.5 0 11-2.462 2.5 2.482 2.482 0 012.462-2.5z"/><path class="h" d="M160.526 214.56a5.419 5.419 0 11-5.336 5.418 5.377 5.377 0 015.336-5.418z"/><path class="h" d="M140.829 208.724a5.419 5.419 0 11-5.334 5.418 5.377 5.377 0 015.334-5.418z"/><path class="h" d="M219.409 210.6a2.709 2.709 0 11-2.668 2.709 2.688 2.688 0 012.668-2.709z"/><path class="h" d="M210.793 211.225a3.335 3.335 0 11-3.284 3.335 3.31 3.31 0 013.284-3.335z"/><path class="h" d="M196.636 215.185a4.793 4.793 0 11-4.72 4.793 4.756 4.756 0 014.72-4.793z"/><path class="h" d="M246.08 210.183a4.377 4.377 0 11-4.308 4.377 4.343 4.343 0 014.308-4.377z"/><path class="h" d="M254.083 217.476a6.253 6.253 0 11-6.155 6.253 6.205 6.205 0 016.155-6.253z"/><path class="h" d="M278.088 207.266a5.627 5.627 0 11-5.54 5.627 5.582 5.582 0 015.54-5.627z"/><path class="h" d="M230.898 236.232a6.252 6.252 0 11-6.154 6.252 6.2 6.2 0 016.154-6.252z"/><path class="h" d="M194.79 237.066a3.335 3.335 0 11-3.284 3.334 3.309 3.309 0 013.284-3.334z"/><path class="h" d="M249.158 243.942a6.879 6.879 0 11-6.771 6.878 6.825 6.825 0 016.771-6.878z"/><path class="h" d="M252.647 238.738a2.709 2.709 0 11-2.668 2.709 2.689 2.689 0 012.668-2.709z"/><path class="h" d="M220.025 255.404a3.752 3.752 0 11-3.694 3.751 3.723 3.723 0 013.694-3.751z"/><path class="h" d="M221.871 242.275a2.71 2.71 0 11-2.668 2.709 2.689 2.689 0 012.668-2.709z"/><path class="h" d="M168.729 256.447a3.335 3.335 0 11-3.282 3.334 3.309 3.309 0 013.282-3.334z"/><path class="h" d="M159.705 248.111a6.253 6.253 0 11-6.155 6.252 6.2 6.2 0 016.155-6.252z"/><path class="h" d="M149.446 264.782a2.918 2.918 0 11-2.872 2.918 2.9 2.9 0 012.872-2.918z"/><path class="h" d="M109.643 239.984a5.419 5.419 0 11-5.334 5.418 5.377 5.377 0 015.334-5.418z"/><path class="h" d="M81.74 254.571a6.044 6.044 0 11-5.95 6.044 6 6 0 015.95-6.044z"/><path class="h" d="M106.772 256.234a2.293 2.293 0 11-2.258 2.293 2.274 2.274 0 012.258-2.293z"/><path class="h" d="M43.578 247.277a2.918 2.918 0 11-2.872 2.918 2.895 2.895 0 012.872-2.918z"/><path class="h" d="M96.307 267.283a3.96 3.96 0 11-3.9 3.96 3.929 3.929 0 013.9-3.96z"/><path class="h" d="M81.74 275.827a2.917 2.917 0 11-2.872 2.918 2.895 2.895 0 012.872-2.918z"/><path class="h" d="M65.943 268.325a2.918 2.918 0 11-2.874 2.918 2.9 2.9 0 012.874-2.918z"/><path class="h" d="M119.286 276.87a2.917 2.917 0 11-2.872 2.918 2.894 2.894 0 012.872-2.918z"/><path class="h" d="M165.654 269.783a2.918 2.918 0 11-2.872 2.918 2.9 2.9 0 012.872-2.918z"/><path class="h" d="M151.293 278.119a3.96 3.96 0 11-3.9 3.96 3.929 3.929 0 013.9-3.96z"/><path class="h" d="M164.014 275.827a4.585 4.585 0 11-4.514 4.585 4.549 4.549 0 014.514-4.585z"/><path class="h" d="M126.262 261.24a8.337 8.337 0 11-8.206 8.336 8.272 8.272 0 018.206-8.336z"/><path class="h" d="M199.098 268.534a5.419 5.419 0 11-5.334 5.418 5.377 5.377 0 015.334-5.418z"/><path class="h" d="M209.56 274.785a5.419 5.419 0 11-5.334 5.418 5.377 5.377 0 015.334-5.418z"/><path class="h" d="M146.573 284.788a3.335 3.335 0 11-3.282 3.334 3.309 3.309 0 013.282-3.334z"/><path class="h" d="M146.779 292.082a3.96 3.96 0 11-3.9 3.96 3.929 3.929 0 013.9-3.96z"/><path class="h" d="M135.289 288.748a5.419 5.419 0 11-5.334 5.418 5.377 5.377 0 015.334-5.418z"/></svg>
