<svg xmlns="http://www.w3.org/2000/svg" width="299.999" height="300.002" viewBox="0 0 299.999 300.002"><defs><style>.a{fill:#eb4825}.a,.b,.c,.d,.e,.f{fill-rule:evenodd}.b{fill:#f88c4f}.c{fill:#f15f12}.d{fill:#c80026}.e{fill:#444329}.f{fill:#928237}</style></defs><path class="a" d="M29.51 67.965a8.039 8.039 0 11-7.962 8.038 8 8 0 017.962-8.038z"/><path class="a" d="M64.917 26.907a8.039 8.039 0 11-7.962 8.038 8 8 0 017.962-8.038z"/><path class="a" d="M155.264 8.304a7.4 7.4 0 11-7.329 7.4 7.366 7.366 0 017.329-7.4z"/><path class="a" d="M128.848 20.521a7.4 7.4 0 11-7.329 7.4 7.365 7.365 0 017.329-7.4z"/><path class="a" d="M221.004 17.467a7.4 7.4 0 11-7.33 7.4 7.366 7.366 0 017.33-7.4z"/><path class="a" d="M264.04 137.147a7.4 7.4 0 11-7.33 7.4 7.365 7.365 0 017.33-7.4z"/><path class="a" d="M255.794 51.661a7.4 7.4 0 11-7.33 7.4 7.366 7.366 0 017.33-7.4z"/><path class="a" d="M79.314 83.989a6.784 6.784 0 11-6.72 6.784 6.753 6.753 0 016.72-6.784z"/><path class="a" d="M42.703 116.006a6.784 6.784 0 11-6.72 6.784 6.751 6.751 0 016.72-6.784z"/><path class="a" d="M181.082 56.637a6.784 6.784 0 11-6.72 6.783 6.752 6.752 0 016.72-6.783z"/><path class="a" d="M65.205 133.789a6.784 6.784 0 11-6.72 6.784 6.751 6.751 0 016.72-6.784z"/><path class="a" d="M125.543 103.624a5.8 5.8 0 11-5.749 5.8 5.776 5.776 0 015.749-5.8z"/><path class="a" d="M135.75 70.681a5.8 5.8 0 11-5.747 5.8 5.775 5.775 0 015.747-5.8z"/><path class="a" d="M5.747 152.731a5.8 5.8 0 11-5.747 5.8 5.776 5.776 0 015.747-5.8z"/><path class="a" d="M9.654 164.339a8.038 8.038 0 11-7.961 8.037 8 8 0 017.961-8.037z"/><path class="a" d="M137.554 111.327a8.038 8.038 0 11-7.962 8.038 8 8 0 017.962-8.038z"/><path class="a" d="M256.404 93.936a6.167 6.167 0 11-6.109 6.166 6.138 6.138 0 016.109-6.166z"/><path class="a" d="M108.129 174.434a6.167 6.167 0 11-6.108 6.168 6.138 6.138 0 016.108-6.168z"/><path class="a" d="M58.893 168.839a6.167 6.167 0 11-6.108 6.168 6.138 6.138 0 016.108-6.168z"/><path class="a" d="M87.114 124.705a6.167 6.167 0 11-6.108 6.166 6.138 6.138 0 016.108-6.166z"/><path class="a" d="M139.953 166.974a6.167 6.167 0 11-6.108 6.168 6.139 6.139 0 016.108-6.168z"/><path class="a" d="M27.737 209.876a8.039 8.039 0 11-7.962 8.038 8 8 0 017.962-8.038z"/><path class="a" d="M259.154 178.534a6.108 6.108 0 11-6.051 6.108 6.079 6.079 0 016.051-6.108z"/><path class="a" d="M52.171 36.165a5.8 5.8 0 11-5.749 5.8 5.776 5.776 0 015.749-5.8z"/><path class="a" d="M200.6 29.752a5.8 5.8 0 11-5.747 5.8 5.776 5.776 0 015.747-5.8z"/><path class="a" d="M200.313 14.142a3.7 3.7 0 11-3.665 3.7 3.682 3.682 0 013.665-3.7z"/><path class="a" d="M182.295 3.146a3.7 3.7 0 11-3.665 3.7 3.683 3.683 0 013.665-3.7z"/><path class="a" d="M183.195 22.082a3.7 3.7 0 11-3.665 3.7 3.682 3.682 0 013.665-3.7z"/><path class="a" d="M168.48 15.362a3.7 3.7 0 11-3.664 3.7 3.682 3.682 0 013.664-3.7z"/><path class="a" d="M142.654 10.782a3.7 3.7 0 11-3.665 3.7 3.683 3.683 0 013.665-3.7z"/><path class="a" d="M121.031 12.309a3.7 3.7 0 11-3.665 3.7 3.682 3.682 0 013.665-3.7z"/><path class="a" d="M120.431 2.23a3.7 3.7 0 11-3.665 3.7 3.683 3.683 0 013.665-3.7z"/><path class="a" d="M106.917 19.333a3.7 3.7 0 11-3.665 3.7 3.684 3.684 0 013.665-3.7z"/><path class="a" d="M108.118 43.154a3.7 3.7 0 11-3.664 3.7 3.683 3.683 0 013.664-3.7z"/><path class="a" d="M95.203 58.509a3.7 3.7 0 11-3.665 3.7 3.683 3.683 0 013.665-3.7z"/><path class="a" d="M91.602 11.087a3.7 3.7 0 11-3.665 3.7 3.683 3.683 0 013.665-3.7z"/><path class="a" d="M90.396 37.082a3.054 3.054 0 11-3.024 3.053 3.04 3.04 0 013.024-3.053z"/><path class="a" d="M87.392 23.95a3.054 3.054 0 11-3.024 3.055 3.039 3.039 0 013.024-3.055z"/><path class="a" d="M139.95 25.477a3.054 3.054 0 11-3.026 3.053 3.04 3.04 0 013.026-3.053z"/><path class="a" d="M137.247 18.147a3.054 3.054 0 11-3.025 3.055 3.039 3.039 0 013.025-3.055z"/><path class="a" d="M152.864.739a3.054 3.054 0 11-3.026 3.055 3.04 3.04 0 013.026-3.055z"/><path class="a" d="M43.923 45.328a3.054 3.054 0 11-3.025 3.055 3.04 3.04 0 013.025-3.055z"/><path class="a" d="M58.86 83.085a3.054 3.054 0 11-3.024 3.055 3.041 3.041 0 013.024-3.055z"/><path class="a" d="M65.766 74.075a3.054 3.054 0 11-3.026 3.055 3.041 3.041 0 013.026-3.055z"/><path class="a" d="M16.132 88.057a3.054 3.054 0 11-3.026 3.053 3.038 3.038 0 013.026-3.053z"/><path class="a" d="M36.895 92.406a3.054 3.054 0 11-3.024 3.055 3.039 3.039 0 013.024-3.055z"/><path class="a" d="M44.845 67.435a1.938 1.938 0 11-1.92 1.938 1.928 1.928 0 011.92-1.938z"/><path class="a" d="M66.058 44.613a1.938 1.938 0 11-1.919 1.939 1.93 1.93 0 011.919-1.939z"/><path class="a" d="M72.066 42.473a1.938 1.938 0 11-1.919 1.939 1.93 1.93 0 011.919-1.939z"/><path class="a" d="M76.881 49.909a3.054 3.054 0 11-3.026 3.055 3.041 3.041 0 013.026-3.055z"/><path class="a" d="M88.595 45.938a3.054 3.054 0 11-3.026 3.055 3.041 3.041 0 013.026-3.055z"/><path class="a" d="M132.742 49.298a3.054 3.054 0 11-3.024 3.055 3.04 3.04 0 013.024-3.055z"/><path class="a" d="M143.254 50.52a3.054 3.054 0 11-3.026 3.053 3.038 3.038 0 013.026-3.053z"/><path class="a" d="M136.948 42.543a3.7 3.7 0 11-3.665 3.7 3.684 3.684 0 013.665-3.7z"/><path class="a" d="M119.828 31.89a3.054 3.054 0 11-3.026 3.055 3.039 3.039 0 013.026-3.055z"/><path class="a" d="M161.604 51.131a3.054 3.054 0 11-3.026 3.055 3.04 3.04 0 013.026-3.055z"/><path class="a" d="M172.985 49.568a3.7 3.7 0 11-3.665 3.7 3.683 3.683 0 013.665-3.7z"/><path class="a" d="M203.917 43.154a3.7 3.7 0 11-3.665 3.7 3.683 3.683 0 013.665-3.7z"/><path class="a" d="M220.434 34.298a3.7 3.7 0 11-3.665 3.7 3.684 3.684 0 013.665-3.7z"/><path class="a" d="M157.372 59.752a3.7 3.7 0 11-3.665 3.7 3.683 3.683 0 013.665-3.7z"/><path class="a" d="M147.755 74.045a3.7 3.7 0 11-3.664 3.7 3.683 3.683 0 013.664-3.7z"/><path class="a" d="M90.709 81.813a4.933 4.933 0 11-4.886 4.934 4.911 4.911 0 014.886-4.934z"/><path class="a" d="M72.701 58.249a5.8 5.8 0 11-5.749 5.8 5.775 5.775 0 015.749-5.8z"/><path class="a" d="M181.399 49.498a1.938 1.938 0 11-1.92 1.938 1.929 1.929 0 011.92-1.938z"/><path class="a" d="M172.383 37.283a1.938 1.938 0 11-1.919 1.938 1.929 1.929 0 011.919-1.938z"/><path class="a" d="M165.485 82.659a1.938 1.938 0 11-1.92 1.938 1.928 1.928 0 011.92-1.938z"/><path class="a" d="M153.766 79.667a3.054 3.054 0 11-3.026 3.055 3.04 3.04 0 013.026-3.055z"/><path class="a" d="M210.227 38.305a3.054 3.054 0 11-3.024 3.053 3.04 3.04 0 013.024-3.053z"/><path class="a" d="M260.069 77.182a3.054 3.054 0 11-3.026 3.055 3.041 3.041 0 013.026-3.055z"/><path class="a" d="M260.68 67.861a3.054 3.054 0 11-3.026 3.055 3.041 3.041 0 013.026-3.055z"/><path class="a" d="M252.434 41.933a3.7 3.7 0 11-3.665 3.7 3.682 3.682 0 013.665-3.7z"/><path class="a" d="M280.227 84.298a3.7 3.7 0 11-3.665 3.7 3.684 3.684 0 013.665-3.7z"/><path class="a" d="M283.89 92.437a5.8 5.8 0 11-5.747 5.8 5.776 5.776 0 015.747-5.8z"/><path class="a" d="M275.95 99.862a3.055 3.055 0 11-3.024 3.055 3.041 3.041 0 013.024-3.055z"/><path class="a" d="M273.507 107.008a3.054 3.054 0 11-3.025 3.055 3.041 3.041 0 013.025-3.055z"/><path class="a" d="M278.398 122.233a3.054 3.054 0 11-3.026 3.055 3.04 3.04 0 013.026-3.055z"/><path class="a" d="M279.616 130a3.054 3.054 0 11-3.026 3.055 3.04 3.04 0 013.026-3.055z"/><path class="a" d="M212.918 62.856a4.933 4.933 0 11-4.886 4.934 4.91 4.91 0 014.886-4.934z"/><path class="a" d="M150.762 94.865a4.933 4.933 0 11-4.887 4.934 4.91 4.91 0 014.887-4.934z"/><path class="a" d="M141.452 97.066a3.054 3.054 0 11-3.026 3.055 3.041 3.041 0 013.026-3.055z"/><path class="a" d="M136.646 103.902a3.054 3.054 0 11-3.024 3.053 3.039 3.039 0 013.024-3.053z"/><path class="a" d="M119.223 119.625a1.938 1.938 0 11-1.919 1.938 1.929 1.929 0 011.919-1.938z"/><path class="a" d="M229.148 36.777a3.054 3.054 0 11-3.024 3.053 3.039 3.039 0 013.024-3.053z"/><path class="a" d="M241.161 36.471a3.054 3.054 0 11-3.026 3.055 3.04 3.04 0 013.026-3.055z"/><path class="a" d="M238.158 91.163a3.054 3.054 0 11-3.026 3.055 3.041 3.041 0 013.026-3.055z"/><path class="a" d="M28.958 84.977a5.8 5.8 0 11-5.747 5.8 5.776 5.776 0 015.747-5.8z"/><path class="a" d="M113.529 51.311a4.933 4.933 0 11-4.886 4.934 4.91 4.91 0 014.886-4.934z"/><path class="a" d="M66.869 82.182a3.7 3.7 0 11-3.664 3.7 3.682 3.682 0 013.664-3.7z"/><path class="a" d="M42.396 72.18a3.7 3.7 0 11-3.664 3.7 3.684 3.684 0 013.664-3.7z"/><path class="a" d="M51.864 81.812a3.7 3.7 0 11-3.664 3.7 3.682 3.682 0 013.664-3.7z"/><path class="a" d="M45.76 106.262a4.416 4.416 0 11-4.375 4.416 4.395 4.395 0 014.375-4.416z"/><path class="a" d="M51.562 102.539a1.938 1.938 0 11-1.92 1.938 1.929 1.929 0 011.92-1.938z"/><path class="a" d="M26.821 128.943a1.938 1.938 0 11-1.919 1.938 1.929 1.929 0 011.919-1.938z"/><path class="a" d="M24.989 141.37a1.938 1.938 0 11-1.919 1.938 1.929 1.929 0 011.919-1.938z"/><path class="a" d="M60.351 128.526a1.938 1.938 0 11-1.919 1.938 1.929 1.929 0 011.919-1.938z"/><path class="a" d="M65.758 114.547a1.938 1.938 0 11-1.92 1.938 1.929 1.929 0 011.92-1.938z"/><path class="a" d="M97.297 109.888a1.938 1.938 0 11-1.92 1.938 1.928 1.928 0 011.92-1.938z"/><path class="a" d="M72.759 97.997a1.938 1.938 0 11-1.919 1.939 1.93 1.93 0 011.919-1.939z"/><path class="a" d="M19.492 130.664a5.8 5.8 0 11-5.749 5.8 5.776 5.776 0 015.749-5.8z"/><path class="a" d="M10.634 107.603a3.7 3.7 0 11-3.665 3.7 3.682 3.682 0 013.665-3.7z"/><path class="a" d="M7.885 116.924a3.7 3.7 0 11-3.664 3.7 3.684 3.684 0 013.664-3.7z"/><path class="a" d="M28.959 120.342a3.7 3.7 0 11-3.664 3.7 3.684 3.684 0 013.664-3.7z"/><path class="a" d="M20.102 104.23a4.581 4.581 0 11-4.538 4.581 4.56 4.56 0 014.538-4.581z"/><path class="a" d="M26.818 113.222a3.055 3.055 0 11-3.024 3.055 3.041 3.041 0 013.024-3.055z"/><path class="a" d="M158.871 102.038a3.054 3.054 0 11-3.026 3.053 3.04 3.04 0 013.026-3.053z"/><path class="a" d="M97.603 102.348a3.054 3.054 0 11-3.025 3.053 3.04 3.04 0 013.025-3.053z"/><path class="a" d="M78.982 114.461a3.054 3.054 0 11-3.025 3.055 3.041 3.041 0 013.025-3.055z"/><path class="a" d="M53.392 125.651a3.054 3.054 0 11-3.026 3.053 3.04 3.04 0 013.026-3.053z"/><path class="a" d="M57.057 141.806a3.054 3.054 0 11-3.026 3.055 3.039 3.039 0 013.026-3.055z"/><path class="a" d="M85.59 138.078a3.054 3.054 0 11-3.024 3.055 3.04 3.04 0 013.024-3.055z"/><path class="a" d="M37.539 141.495a3.054 3.054 0 11-3.025 3.055 3.041 3.041 0 013.025-3.055z"/><path class="a" d="M30.82 146.467a3.054 3.054 0 11-3.024 3.053 3.039 3.039 0 013.024-3.053z"/><path class="a" d="M28.989 155.477a3.054 3.054 0 11-3.026 3.055 3.04 3.04 0 013.026-3.055z"/><path class="a" d="M79.884 166.662a3.054 3.054 0 11-3.026 3.055 3.039 3.039 0 013.026-3.055z"/><path class="a" d="M195.511 96.756a3.054 3.054 0 11-3.026 3.055 3.04 3.04 0 013.026-3.055z"/><path class="a" d="M249.074 104.834a3.054 3.054 0 11-3.024 3.055 3.04 3.04 0 013.024-3.055z"/><path class="a" d="M285.752 143.36a3.054 3.054 0 11-3.024 3.055 3.041 3.041 0 013.024-3.055z"/><path class="a" d="M270.453 165.729a3.054 3.054 0 11-3.024 3.055 3.04 3.04 0 013.024-3.055z"/><path class="a" d="M249.991 165.111a3.054 3.054 0 11-3.026 3.053 3.038 3.038 0 013.026-3.053z"/><path class="a" d="M285.115 203.012a3.054 3.054 0 11-3.025 3.055 3.041 3.041 0 013.025-3.055z"/><path class="a" d="M242.661 127.079a1.938 1.938 0 11-1.92 1.938 1.928 1.928 0 011.92-1.938z"/><path class="a" d="M243.574 90.423a1.938 1.938 0 11-1.92 1.938 1.929 1.929 0 011.92-1.938z"/><path class="a" d="M235.766 103.78a1.938 1.938 0 11-1.92 1.939 1.929 1.929 0 011.92-1.939z"/><path class="a" d="M210.235 108.751a1.938 1.938 0 11-1.919 1.938 1.929 1.929 0 011.919-1.938z"/><path class="a" d="M209.634 115.585a1.938 1.938 0 11-1.92 1.939 1.93 1.93 0 011.92-1.939z"/><path class="a" d="M162.176 144.786a1.938 1.938 0 11-1.92 1.938 1.93 1.93 0 011.92-1.938z"/><path class="a" d="M178.997 104.403a1.938 1.938 0 11-1.92 1.938 1.928 1.928 0 011.92-1.938z"/><path class="a" d="M144.155 148.204a1.938 1.938 0 11-1.92 1.938 1.929 1.929 0 011.92-1.938z"/><path class="a" d="M131.839 150.686a1.938 1.938 0 11-1.92 1.939 1.93 1.93 0 011.92-1.939z"/><path class="a" d="M127.334 146.03a1.938 1.938 0 11-1.92 1.938 1.928 1.928 0 011.92-1.938z"/><path class="a" d="M147.458 141.991a1.938 1.938 0 11-1.919 1.938 1.929 1.929 0 011.919-1.938z"/><path class="a" d="M235.766 140.748a1.938 1.938 0 11-1.92 1.938 1.929 1.929 0 011.92-1.938z"/><path class="a" d="M258.848 151.932a1.938 1.938 0 11-1.919 1.938 1.929 1.929 0 011.919-1.938z"/><path class="a" d="M235.166 158.457a1.938 1.938 0 11-1.92 1.938 1.929 1.929 0 011.92-1.938z"/><path class="a" d="M240.272 157.834a1.938 1.938 0 11-1.919 1.938 1.929 1.929 0 011.919-1.938z"/><path class="a" d="M113.516 169.018a1.938 1.938 0 11-1.919 1.938 1.929 1.929 0 011.919-1.938z"/><path class="a" d="M109.312 161.252a1.938 1.938 0 11-1.919 1.938 1.929 1.929 0 011.919-1.938z"/><path class="a" d="M121.927 163.737a1.938 1.938 0 11-1.92 1.938 1.928 1.928 0 011.92-1.938z"/><path class="a" d="M21.63 172.125a1.938 1.938 0 11-1.92 1.938 1.928 1.928 0 011.92-1.938z"/><path class="a" d="M55.529 164.05a1.938 1.938 0 11-1.92 1.938 1.929 1.929 0 011.92-1.938z"/><path class="a" d="M68.762 175.231a1.938 1.938 0 11-1.92 1.938 1.928 1.928 0 011.92-1.938z"/><path class="a" d="M70.263 159.077a1.938 1.938 0 11-1.919 1.938 1.929 1.929 0 011.919-1.938z"/><path class="a" d="M75.971 173.367a1.938 1.938 0 11-1.92 1.938 1.928 1.928 0 011.92-1.938z"/><path class="a" d="M67.776 188.279a1.938 1.938 0 11-1.92 1.938 1.928 1.928 0 011.92-1.938z"/><path class="a" d="M74.083 190.453a1.938 1.938 0 11-1.92 1.938 1.929 1.929 0 011.92-1.938z"/><path class="a" d="M60.051 201.015a1.938 1.938 0 11-1.92 1.938 1.929 1.929 0 011.92-1.938z"/><path class="a" d="M96.699 185.793a1.938 1.938 0 11-1.919 1.939 1.93 1.93 0 011.919-1.939z"/><path class="a" d="M101.502 187.036a1.938 1.938 0 11-1.92 1.938 1.928 1.928 0 011.92-1.938z"/><path class="a" d="M114.421 188.573a2.577 2.577 0 11-2.554 2.577 2.565 2.565 0 012.554-2.577z"/><path class="a" d="M124.331 181.428a2.577 2.577 0 11-2.552 2.579 2.565 2.565 0 012.552-2.579z"/><path class="a" d="M157.371 188.589a1.938 1.938 0 11-1.92 1.938 1.929 1.929 0 011.92-1.938z"/><path class="a" d="M17.353 211.266a1.938 1.938 0 11-1.919 1.939 1.93 1.93 0 011.919-1.939z"/><path class="a" d="M52.475 148.641a3.055 3.055 0 11-3.026 3.055 3.04 3.04 0 013.026-3.055z"/><path class="a" d="M40.564 194.091a4.215 4.215 0 11-4.175 4.216 4.2 4.2 0 014.175-4.216z"/><path class="a" d="M41.174 217.086a4.215 4.215 0 11-4.175 4.216 4.195 4.195 0 014.175-4.216z"/><path class="a" d="M35.372 225.245a1.938 1.938 0 11-1.92 1.938 1.928 1.928 0 011.92-1.938z"/><path class="a" d="M34.15 234.704a3.054 3.054 0 11-3.022 3.051 3.04 3.04 0 013.026-3.053z"/><path class="a" d="M57.057 210.78a3.054 3.054 0 11-3.026 3.055 3.04 3.04 0 013.026-3.055z"/><path class="a" d="M130.041 162.549a4.062 4.062 0 11-4.024 4.062 4.042 4.042 0 014.024-4.062z"/><path class="a" d="M164.277 160.137a3.054 3.054 0 11-3.026 3.055 3.041 3.041 0 013.026-3.055z"/><path class="a" d="M157.371 163.426a1.938 1.938 0 11-1.92 1.938 1.929 1.929 0 011.92-1.938z"/><path class="a" d="M147.458 161.562a1.938 1.938 0 11-1.919 1.938 1.929 1.929 0 011.919-1.938z"/><path class="a" d="M176.459 150.281a3.054 3.054 0 11-3.026 3.055 3.041 3.041 0 013.026-3.055z"/><path class="a" d="M186.494 140.236a4.933 4.933 0 11-4.887 4.934 4.91 4.91 0 014.887-4.934z"/><path class="a" d="M160.971 168.206a4.933 4.933 0 11-4.886 4.932 4.91 4.91 0 014.886-4.932z"/><path class="a" d="M112.328 149.87a4.933 4.933 0 11-4.887 4.934 4.91 4.91 0 014.887-4.934z"/><path class="a" d="M133.047 127.869a4.933 4.933 0 11-4.887 4.934 4.91 4.91 0 014.887-4.934z"/><path class="a" d="M76.886 132.46a3.7 3.7 0 11-3.665 3.7 3.683 3.683 0 013.665-3.7z"/><path class="a" d="M34.15 163.842a3.7 3.7 0 11-3.665 3.7 3.682 3.682 0 013.665-3.7z"/><path class="a" d="M68.177 194.603a3.7 3.7 0 11-3.664 3.7 3.681 3.681 0 013.664-3.7z"/><path class="a" d="M97.614 208.449a4.777 4.777 0 11-4.732 4.778 4.755 4.755 0 014.732-4.778z"/><path class="a" d="M98.204 190.896a3.054 3.054 0 11-3.024 3.055 3.041 3.041 0 013.024-3.055z"/><path class="a" d="M105.413 207.674a3.054 3.054 0 11-3.026 3.053 3.038 3.038 0 013.026-3.053z"/><path class="a" d="M72.075 250.065a3.054 3.054 0 11-3.024 3.055 3.041 3.041 0 013.024-3.055z"/><path class="a" d="M98.204 256.478a3.054 3.054 0 11-3.024 3.055 3.041 3.041 0 013.024-3.055z"/><path class="a" d="M88.595 272.053a3.054 3.054 0 11-3.026 3.055 3.041 3.041 0 013.026-3.055z"/><path class="a" d="M87.993 239.054a3.054 3.054 0 11-3.025 3.053 3.038 3.038 0 013.025-3.053z"/><path class="a" d="M98.204 232.84a3.054 3.054 0 11-3.024 3.053 3.04 3.04 0 013.024-3.053z"/><path class="a" d="M113.521 261.06a3.054 3.054 0 11-3.024 3.053 3.039 3.039 0 013.024-3.053z"/><path class="a" d="M120.428 263.503a3.054 3.054 0 11-3.025 3.055 3.04 3.04 0 013.025-3.055z"/><path class="a" d="M127.336 259.227a3.054 3.054 0 11-3.026 3.053 3.038 3.038 0 013.026-3.053z"/><path class="a" d="M145.356 250.678a3.054 3.054 0 11-3.026 3.055 3.041 3.041 0 013.026-3.055z"/><path class="a" d="M151.059 257.09a3.054 3.054 0 11-3.026 3.053 3.04 3.04 0 013.026-3.053z"/><path class="a" d="M160.363 213.59a3.054 3.054 0 11-3.025 3.055 3.041 3.041 0 013.025-3.055z"/><path class="a" d="M248.455 197.434a3.054 3.054 0 11-3.025 3.053 3.04 3.04 0 013.025-3.053z"/><path class="a" d="M267.094 208.295a3.054 3.054 0 11-3.026 3.055 3.04 3.04 0 013.026-3.055z"/><path class="a" d="M261.262 157.291a4.038 4.038 0 11-4 4.037 4.019 4.019 0 014-4.037z"/><path class="a" d="M251.214 203.945a3.054 3.054 0 11-3.026 3.058 3.039 3.039 0 013.026-3.055z"/><path class="a" d="M293.358 163.816a4.038 4.038 0 11-4 4.037 4.02 4.02 0 014-4.037z"/><path class="a" d="M276.866 147.384a4.933 4.933 0 11-4.886 4.932 4.909 4.909 0 014.886-4.932z"/><path class="a" d="M234.509 187.67a6.183 6.183 0 11-6.124 6.182 6.154 6.154 0 016.124-6.182z"/><path class="a" d="M248.159 232.222a4.934 4.934 0 11-4.887 4.934 4.911 4.911 0 014.887-4.934z"/><path class="a" d="M93.711 263.149a4.934 4.934 0 11-4.887 4.934 4.911 4.911 0 014.887-4.934z"/><path class="a" d="M223.716 224.475a6.167 6.167 0 11-6.109 6.166 6.138 6.138 0 016.109-6.166z"/><path class="a" d="M288.778 185.918a4.934 4.934 0 11-4.887 4.934 4.911 4.911 0 014.887-4.934z"/><path class="a" d="M270.148 173.488a4.934 4.934 0 11-4.886 4.934 4.91 4.91 0 014.886-4.934z"/><path class="a" d="M196.996 260.084a6.167 6.167 0 11-6.108 6.166 6.138 6.138 0 016.108-6.166z"/><path class="a" d="M184.087 236.907a6.167 6.167 0 11-6.109 6.168 6.138 6.138 0 016.109-6.168z"/><path class="a" d="M162.17 192.15a6.167 6.167 0 11-6.109 6.168 6.138 6.138 0 016.109-6.168z"/><path class="a" d="M98.823 242.981a6.167 6.167 0 11-6.109 6.168 6.138 6.138 0 016.109-6.168z"/><path class="a" d="M154.663 275.622a8.039 8.039 0 11-7.962 8.038 8 8 0 017.962-8.038z"/><path class="a" d="M256.708 217.959a8.039 8.039 0 11-7.962 8.038 8 8 0 017.962-8.038z"/><path class="a" d="M129.143 232.843a4.934 4.934 0 11-4.887 4.934 4.911 4.911 0 014.887-4.934z"/><path class="a" d="M112.628 243.603a4.934 4.934 0 11-4.887 4.934 4.911 4.911 0 014.887-4.934z"/><path class="a" d="M243.883 222.544a4.038 4.038 0 11-4 4.037 4.018 4.018 0 014-4.037z"/><path class="a" d="M240.551 199.861a4.038 4.038 0 11-4 4.037 4.019 4.019 0 014-4.037z"/><path class="a" d="M205.416 244.805a4.038 4.038 0 11-4 4.037 4.018 4.018 0 014-4.037z"/><path class="a" d="M186.497 252.138a4.038 4.038 0 11-4 4.037 4.018 4.018 0 014-4.037z"/><path class="a" d="M183.194 273.513a4.038 4.038 0 11-4 4.037 4.018 4.018 0 014-4.037z"/><path class="a" d="M139.65 269.238a4.038 4.038 0 11-4 4.037 4.018 4.018 0 014-4.037z"/><path class="a" d="M169.38 266.489a4.038 4.038 0 11-4 4.039 4.019 4.019 0 014-4.039z"/><path class="a" d="M238.448 263.435a4.038 4.038 0 11-4 4.037 4.02 4.02 0 014-4.037z"/><path class="a" d="M121.329 210.425a4.038 4.038 0 11-4 4.037 4.02 4.02 0 014-4.037z"/><path class="a" d="M129.741 223.166a4.038 4.038 0 11-4 4.037 4.018 4.018 0 014-4.037z"/><path class="a" d="M12.161 197.686a4.038 4.038 0 11-4 4.037 4.019 4.019 0 014-4.037z"/><path class="a" d="M35.678 174.11a4.933 4.933 0 11-4.887 4.932 4.909 4.909 0 014.887-4.932z"/><path class="a" d="M43.618 184.055a4.933 4.933 0 11-4.887 4.932 4.909 4.909 0 014.887-4.932z"/><path class="a" d="M64.886 204.875a4.933 4.933 0 11-4.887 4.934 4.91 4.91 0 014.887-4.934z"/><path class="a" d="M65.787 241.161a4.933 4.933 0 11-4.886 4.934 4.91 4.91 0 014.886-4.934z"/><path class="a" d="M198.204 195.552a4.933 4.933 0 11-4.886 4.934 4.91 4.91 0 014.886-4.934z"/><path class="a" d="M230.332 116.618a4.933 4.933 0 11-4.887 4.934 4.91 4.91 0 014.887-4.934z"/><path class="a" d="M259.764 115.376a4.933 4.933 0 11-4.887 4.932 4.909 4.909 0 014.887-4.932z"/><path class="a" d="M256.709 107.263a4.038 4.038 0 11-4 4.039 4.019 4.019 0 014-4.039z"/><path class="a" d="M244.188 141.133a4.038 4.038 0 11-4 4.037 4.018 4.018 0 014-4.037z"/><path class="a" d="M159.472 238.121a3.054 3.054 0 11-3.025 3.051 3.04 3.04 0 013.026-3.055z"/><path class="a" d="M193.414 230.043a3.054 3.054 0 11-3.026 3.055 3.04 3.04 0 013.026-3.055z"/><path class="a" d="M128.245 268.025a6.167 6.167 0 11-6.109 6.168 6.138 6.138 0 016.109-6.168z"/><path class="a" d="M114.135 283.906a6.167 6.167 0 11-6.109 6.168 6.138 6.138 0 016.109-6.168z"/><path class="a" d="M168.177 243.593a6.167 6.167 0 11-6.109 6.166 6.138 6.138 0 016.109-6.166z"/><path class="a" d="M230.95 271.138a3.054 3.054 0 11-3.024 3.055 3.041 3.041 0 013.024-3.055z"/><path class="a" d="M236.941 255.257a3.054 3.054 0 11-3.025 3.053 3.038 3.038 0 013.025-3.053z"/><path class="a" d="M227.348 247.319a3.055 3.055 0 11-3.026 3.055 3.04 3.04 0 013.026-3.055z"/><path class="a" d="M226.746 216.683a3.054 3.054 0 11-3.026 3.055 3.041 3.041 0 013.026-3.055z"/><path class="a" d="M204.22 272.665a3.054 3.054 0 11-3.026 3.053 3.04 3.04 0 013.026-3.053z"/><path class="a" d="M219.237 259.838a3.054 3.054 0 11-3.025 3.055 3.041 3.041 0 013.025-3.055z"/><path class="a" d="M174.789 272.97a3.054 3.054 0 11-3.026 3.055 3.04 3.04 0 013.026-3.055z"/><path class="a" d="M63.966 253.119a3.054 3.054 0 11-3.026 3.053 3.04 3.04 0 013.026-3.053z"/><path class="a" d="M193.277 255.91a1.938 1.938 0 11-1.92 1.938 1.928 1.928 0 011.92-1.938z"/><path class="a" d="M188.95 270.488a1.938 1.938 0 11-1.92 1.939 1.929 1.929 0 011.92-1.939z"/><path class="a" d="M220.481 248.158a1.938 1.938 0 11-1.919 1.938 1.929 1.929 0 011.919-1.938z"/><path class="a" d="M211.853 219.589a1.938 1.938 0 11-1.919 1.938 1.929 1.929 0 011.919-1.938z"/><path class="a" d="M219.855 199.796a1.938 1.938 0 11-1.92 1.938 1.928 1.928 0 011.92-1.938z"/><path class="a" d="M122.434 250.231a1.938 1.938 0 11-1.92 1.938 1.928 1.928 0 011.92-1.938z"/><path class="a" d="M146.387 0a1.938 1.938 0 11-1.92 1.938A1.929 1.929 0 01146.387 0z"/><path class="a" d="M150.86 250.678a2.133 2.133 0 11-2.113 2.133 2.123 2.123 0 012.113-2.133z"/><path class="a" d="M204.263 118.203a1.938 1.938 0 11-1.919 1.938 1.929 1.929 0 011.919-1.938z"/><path class="a" d="M192.248 204.847a1.938 1.938 0 11-1.919 1.938 1.929 1.929 0 011.919-1.938z"/><path class="b" d="M77.778 18.373a5.8 5.8 0 11-5.749 5.8 5.776 5.776 0 015.749-5.8z"/><path class="b" d="M54.65 49.033a5.8 5.8 0 11-5.747 5.8 5.775 5.775 0 015.747-5.8z"/><path class="b" d="M80.336 38.246a5.8 5.8 0 11-5.749 5.8 5.775 5.775 0 015.749-5.8z"/><path class="b" d="M58.474 115.481a5.8 5.8 0 11-5.749 5.8 5.776 5.776 0 015.749-5.8z"/><path class="b" d="M148.479 36.117a5.8 5.8 0 11-5.747 5.8 5.776 5.776 0 015.747-5.8z"/><path class="b" d="M193.135 4.416a5.8 5.8 0 11-5.749 5.8 5.776 5.776 0 015.749-5.8z"/><path class="b" d="M225.695 62.274a5.8 5.8 0 11-5.749 5.8 5.776 5.776 0 015.749-5.8z"/><path class="b" d="M126.617 53.366a5.8 5.8 0 11-5.747 5.8 5.777 5.777 0 015.747-5.8z"/><path class="b" d="M126.732 37.998a6.164 6.164 0 11-6.1 6.163 6.135 6.135 0 016.1-6.163z"/><path class="b" d="M131.966 9.77a4.944 4.944 0 11-4.9 4.943 4.92 4.92 0 014.9-4.943z"/><path class="b" d="M111.265 27.751a4.943 4.943 0 11-4.9 4.943 4.92 4.92 0 014.9-4.943z"/><path class="b" d="M116.377 20.128a3.811 3.811 0 11-3.775 3.811 3.793 3.793 0 013.775-3.811z"/><path class="b" d="M98.232 41.657a3.811 3.811 0 11-3.775 3.811 3.794 3.794 0 013.775-3.811z"/><path class="b" d="M103.35 51.357a3.811 3.811 0 11-3.775 3.811 3.793 3.793 0 013.775-3.811z"/><path class="b" d="M93.108 51.37a1.906 1.906 0 11-1.888 1.906 1.9 1.9 0 011.888-1.906z"/><path class="b" d="M85.191 15.647a1.906 1.906 0 11-1.886 1.906 1.9 1.9 0 011.886-1.906z"/><path class="b" d="M99.154 8.313a1.906 1.906 0 11-1.888 1.906 1.9 1.9 0 011.888-1.906z"/><path class="b" d="M125.211 8.536a1.906 1.906 0 11-1.888 1.906 1.9 1.9 0 011.888-1.906z"/><path class="b" d="M129.171.965a3.811 3.811 0 11-3.775 3.811 3.794 3.794 0 013.775-3.811z"/><path class="b" d="M110.343 4.808a6.83 6.83 0 11-6.765 6.829 6.8 6.8 0 016.765-6.829z"/><path class="b" d="M171.038.078a6.829 6.829 0 11-6.764 6.828 6.8 6.8 0 016.764-6.828z"/><path class="b" d="M160.812.755a3.075 3.075 0 11-3.046 3.075 3.061 3.061 0 013.046-3.075z"/><path class="b" d="M203.385 7.38a3.075 3.075 0 11-3.046 3.075 3.061 3.061 0 013.046-3.075z"/><path class="b" d="M188.792 16.263a3.075 3.075 0 11-3.046 3.075 3.061 3.061 0 013.046-3.075z"/><path class="b" d="M145.92 20.391a3.075 3.075 0 11-3.046 3.075 3.061 3.061 0 013.046-3.075z"/><path class="b" d="M173.605 43.601a1.906 1.906 0 11-1.888 1.906 1.9 1.9 0 011.888-1.906z"/><path class="b" d="M38.327 53.774a6.829 6.829 0 11-6.765 6.828 6.8 6.8 0 016.765-6.828z"/><path class="b" d="M85.46 68.22a6.83 6.83 0 11-6.763 6.829 6.8 6.8 0 016.763-6.829z"/><path class="b" d="M98.931 75.357a3.811 3.811 0 11-3.776 3.811 3.794 3.794 0 013.776-3.811z"/><path class="b" d="M41.165 81.053a5.8 5.8 0 11-5.749 5.8 5.775 5.775 0 015.749-5.8z"/><path class="b" d="M90.111 111.269a6.449 6.449 0 11-6.388 6.45 6.417 6.417 0 016.388-6.45z"/><path class="b" d="M117.767 44.982a1.906 1.906 0 11-1.888 1.906 1.9 1.9 0 011.888-1.906z"/><path class="b" d="M78.211 33.39a1.906 1.906 0 11-1.888 1.906 1.9 1.9 0 011.888-1.906z"/><path class="b" d="M69.602 22.98a1.906 1.906 0 11-1.888 1.906 1.9 1.9 0 011.888-1.906z"/><path class="b" d="M147.083 5.474a1.906 1.906 0 11-1.886 1.906 1.9 1.9 0 011.886-1.906z"/><path class="b" d="M165.06 23.199a4.944 4.944 0 11-4.9 4.943 4.92 4.92 0 014.9-4.943z"/><path class="b" d="M176.119 26.36a4.943 4.943 0 11-4.9 4.943 4.919 4.919 0 014.9-4.943z"/><path class="b" d="M153.615 47.864a4.943 4.943 0 11-4.9 4.943 4.92 4.92 0 014.9-4.943z"/><path class="b" d="M207.349 20.832a4.943 4.943 0 11-4.9 4.943 4.919 4.919 0 014.9-4.943z"/><path class="b" d="M211.233 10.373a4.944 4.944 0 11-4.9 4.943 4.921 4.921 0 014.9-4.943z"/><path class="b" d="M234.424 25.677a5.8 5.8 0 11-5.749 5.8 5.775 5.775 0 015.749-5.8z"/><path class="b" d="M192.404 41.441a6.829 6.829 0 11-6.764 6.828 6.8 6.8 0 016.764-6.828z"/><path class="b" d="M163.506 68.084a6.829 6.829 0 11-6.765 6.829 6.8 6.8 0 016.765-6.829z"/><path class="b" d="M234.881 52.218a6.83 6.83 0 11-6.763 6.829 6.8 6.8 0 016.763-6.829z"/><path class="b" d="M273.138 70.695a6.829 6.829 0 11-6.765 6.829 6.8 6.8 0 016.765-6.829z"/><path class="b" d="M291.687 119.897a6.83 6.83 0 11-6.765 6.829 6.8 6.8 0 016.765-6.829z"/><path class="b" d="M268.6 122.91a6.829 6.829 0 11-6.767 6.829 6.8 6.8 0 016.765-6.829z"/><path class="b" d="M246.104 111.865a6.829 6.829 0 11-6.765 6.829 6.8 6.8 0 016.765-6.829z"/><path class="b" d="M183.677 109.855a6.83 6.83 0 11-6.764 6.829 6.8 6.8 0 016.764-6.829z"/><path class="b" d="M58.38 90.375a6.829 6.829 0 11-6.765 6.829 6.8 6.8 0 016.765-6.829z"/><path class="b" d="M18.233 145.002a6.829 6.829 0 11-6.763 6.829 6.8 6.8 0 016.763-6.829z"/><path class="b" d="M155.165 147.812a6.829 6.829 0 11-6.765 6.829 6.8 6.8 0 016.765-6.829z"/><path class="b" d="M145.376 83.142a5.8 5.8 0 11-5.747 5.8 5.776 5.776 0 015.747-5.8z"/><path class="b" d="M206.957 95.626a5.8 5.8 0 11-5.749 5.8 5.775 5.775 0 015.749-5.8z"/><path class="b" d="M272.348 87.793a5.8 5.8 0 11-5.747 5.8 5.776 5.776 0 015.747-5.8z"/><path class="b" d="M236.639 146.228a5.8 5.8 0 11-5.749 5.8 5.777 5.777 0 015.749-5.8z"/><path class="b" d="M152.839 107.874a5.8 5.8 0 11-5.749 5.8 5.776 5.776 0 015.749-5.8z"/><path class="b" d="M136.931 138.397a5.8 5.8 0 11-5.747 5.8 5.776 5.776 0 015.747-5.8z"/><path class="b" d="M61.666 152.855a5.8 5.8 0 11-5.747 5.8 5.775 5.775 0 015.747-5.8z"/><path class="b" d="M45.659 164.1a5.8 5.8 0 11-5.747 5.8 5.775 5.775 0 015.747-5.8z"/><path class="b" d="M47.437 136.787a5.8 5.8 0 11-5.749 5.8 5.775 5.775 0 015.749-5.8z"/><path class="b" d="M18.429 115.103a5.8 5.8 0 11-5.747 5.8 5.777 5.777 0 015.747-5.8z"/><path class="b" d="M15.075 95.823a3.811 3.811 0 11-3.775 3.811 3.793 3.793 0 013.775-3.811z"/><path class="b" d="M20.798 80.967a3.811 3.811 0 11-3.775 3.811 3.792 3.792 0 013.775-3.811z"/><path class="b" d="M31.058 134.568a3.811 3.811 0 11-3.775 3.811 3.793 3.793 0 013.775-3.811z"/><path class="b" d="M39.938 131.555a3.811 3.811 0 11-3.775 3.811 3.794 3.794 0 013.775-3.811z"/><path class="b" d="M75.08 75.409a3.811 3.811 0 11-3.775 3.811 3.793 3.793 0 013.775-3.811z"/><path class="b" d="M80.85 120.848a3.075 3.075 0 11-3.046 3.075 3.061 3.061 0 013.046-3.075z"/><path class="b" d="M67.486 101.248a5.8 5.8 0 11-5.747 5.8 5.775 5.775 0 015.747-5.8z"/><path class="b" d="M79.117 141.265a4.944 4.944 0 11-4.9 4.943 4.92 4.92 0 014.9-4.943z"/><path class="b" d="M88.035 145.61a3.811 3.811 0 11-3.775 3.811 3.793 3.793 0 013.775-3.811z"/><path class="b" d="M56.115 132.962a3.811 3.811 0 11-3.776 3.811 3.794 3.794 0 013.776-3.811z"/><path class="b" d="M68.632 90.403a3.811 3.811 0 11-3.775 3.811 3.794 3.794 0 013.775-3.811z"/><path class="b" d="M70.184 48.602a3.811 3.811 0 11-3.775 3.811 3.793 3.793 0 013.775-3.811z"/><path class="b" d="M59.881 44.391a1.906 1.906 0 11-1.888 1.906 1.9 1.9 0 011.888-1.906z"/><path class="b" d="M59.31 75.284a3.075 3.075 0 11-3.046 3.075 3.06 3.06 0 013.046-3.075z"/><path class="b" d="M33.82 115.602a1.906 1.906 0 11-1.888 1.906 1.9 1.9 0 011.888-1.906z"/><path class="b" d="M4.027 138.717a3.075 3.075 0 11-3.046 3.077 3.061 3.061 0 013.046-3.077z"/><path class="b" d="M7.971 144.405a3.811 3.811 0 11-3.774 3.811 3.793 3.793 0 013.774-3.811z"/><path class="b" d="M97.531 51.494a1.906 1.906 0 11-1.888 1.906 1.9 1.9 0 011.888-1.906z"/><path class="b" d="M167.587 44.487a3.075 3.075 0 11-3.046 3.075 3.061 3.061 0 013.046-3.075z"/><path class="b" d="M180.781 41.445a3.075 3.075 0 11-3.046 3.075 3.061 3.061 0 013.046-3.075z"/><path class="b" d="M225.005 42.932a4.943 4.943 0 11-4.9 4.943 4.92 4.92 0 014.9-4.943z"/><path class="b" d="M213.465 56.214a3.075 3.075 0 11-3.046 3.075 3.061 3.061 0 013.046-3.075z"/><path class="b" d="M213.569 47.023a3.811 3.811 0 11-3.775 3.811 3.793 3.793 0 013.775-3.811z"/><path class="b" d="M193.584 56.875a3.811 3.811 0 11-3.774 3.811 3.793 3.793 0 013.774-3.811z"/><path class="b" d="M191.265 66.83a1.9 1.9 0 11-1.888 1.906 1.9 1.9 0 011.888-1.906z"/><path class="b" d="M206.014 65.224a1.906 1.906 0 11-1.888 1.906 1.9 1.9 0 011.888-1.906z"/><path class="b" d="M213.16 32.4a1.9 1.9 0 11-1.888 1.906 1.9 1.9 0 011.888-1.906z"/><path class="b" d="M247.091 36.512a3.075 3.075 0 11-3.047 3.075 3.061 3.061 0 013.047-3.075z"/><path class="b" d="M242.158 32.35a1.906 1.906 0 11-1.887 1.906 1.9 1.9 0 011.887-1.906z"/><path class="b" d="M146.047 29.789a1.906 1.906 0 11-1.888 1.906 1.9 1.9 0 011.888-1.906z"/><path class="b" d="M119.654 62.214a1.906 1.906 0 11-1.888 1.906 1.9 1.9 0 011.888-1.906z"/><path class="b" d="M134.985 64.22a1.906 1.906 0 11-1.888 1.906 1.9 1.9 0 011.888-1.906z"/><path class="b" d="M203.286 108.471a3.811 3.811 0 11-3.775 3.81 3.793 3.793 0 013.775-3.81z"/><path class="b" d="M132.662 93.078a4.943 4.943 0 11-4.9 4.943 4.919 4.919 0 014.9-4.943z"/><path class="b" d="M122.768 125.605a4.943 4.943 0 11-4.9 4.943 4.919 4.919 0 014.9-4.943z"/><path class="b" d="M193.966 104.12a4.944 4.944 0 11-4.9 4.943 4.921 4.921 0 014.9-4.943z"/><path class="b" d="M75.432 178.812a4.943 4.943 0 11-4.9 4.943 4.92 4.92 0 014.9-4.943z"/><path class="b" d="M249.261 150.223a6.829 6.829 0 11-6.765 6.829 6.8 6.8 0 016.765-6.829z"/><path class="b" d="M281.426 164.282a6.829 6.829 0 11-6.765 6.829 6.8 6.8 0 016.765-6.829z"/><path class="b" d="M205.208 170.708a6.829 6.829 0 11-6.765 6.829 6.8 6.8 0 016.765-6.829z"/><path class="b" d="M165.639 177.938a6.83 6.83 0 11-6.764 6.829 6.8 6.8 0 016.764-6.829z"/><path class="b" d="M228.094 201.033a6.829 6.829 0 11-6.765 6.829 6.8 6.8 0 016.765-6.829z"/><path class="b" d="M278.267 207.66a6.83 6.83 0 11-6.763 6.829 6.8 6.8 0 016.763-6.829z"/><path class="b" d="M21.784 177.336a6.829 6.829 0 11-6.765 6.829 6.8 6.8 0 016.765-6.829z"/><path class="b" d="M117.342 219.709a6.83 6.83 0 11-6.763 6.829 6.8 6.8 0 016.763-6.829z"/><path class="b" d="M146.631 233.367a6.829 6.829 0 11-6.765 6.829 6.8 6.8 0 016.765-6.829z"/><path class="b" d="M124.707 151.05a5.8 5.8 0 11-5.747 5.8 5.776 5.776 0 015.747-5.8z"/><path class="b" d="M31.651 197.433a5.8 5.8 0 11-5.749 5.8 5.776 5.776 0 015.749-5.8z"/><path class="b" d="M50.397 199.843a5.8 5.8 0 11-5.749 5.8 5.775 5.775 0 015.749-5.8z"/><path class="b" d="M79.325 229.35a6.829 6.829 0 11-6.765 6.829 6.8 6.8 0 016.765-6.829z"/><path class="b" d="M247.092 184.984a5.8 5.8 0 11-5.749 5.8 5.776 5.776 0 015.749-5.8z"/><path class="b" d="M260.312 166.108a5.8 5.8 0 11-5.749 5.8 5.775 5.775 0 015.749-5.8z"/><path class="b" d="M81.84 260.378a5.8 5.8 0 11-5.747 5.8 5.775 5.775 0 015.747-5.8z"/><path class="b" d="M53.531 247.709a6.83 6.83 0 11-6.764 6.829 6.8 6.8 0 016.764-6.829z"/><path class="b" d="M195.314 276.523a6.83 6.83 0 11-6.763 6.829 6.8 6.8 0 016.763-6.829z"/><path class="b" d="M240.313 239.993a6.83 6.83 0 11-6.766 6.829 6.8 6.8 0 016.765-6.829z"/><path class="b" d="M113.852 269.222a6.829 6.829 0 11-6.765 6.829 6.8 6.8 0 016.765-6.829z"/><path class="b" d="M149.93 263.531a5.8 5.8 0 11-5.749 5.8 5.776 5.776 0 015.749-5.8z"/><path class="b" d="M166.61 286.819a5.8 5.8 0 11-5.747 5.8 5.775 5.775 0 015.747-5.8z"/><path class="b" d="M211.615 262.944a5.8 5.8 0 11-5.747 5.8 5.775 5.775 0 015.747-5.8z"/><path class="b" d="M228.489 259.587a5.8 5.8 0 11-5.747 5.8 5.776 5.776 0 015.747-5.8z"/><path class="b" d="M245.701 253.826a5.8 5.8 0 11-5.747 5.8 5.775 5.775 0 015.747-5.8z"/><path class="b" d="M261.694 233.779a5.8 5.8 0 11-5.749 5.8 5.776 5.776 0 015.749-5.8z"/><path class="b" d="M71.348 165.484a3.811 3.811 0 11-3.775 3.811 3.794 3.794 0 013.775-3.811z"/><path class="b" d="M51.185 177.33a3.81 3.81 0 11-3.775 3.811 3.792 3.792 0 013.775-3.811z"/><path class="b" d="M28.888 226.314a3.811 3.811 0 11-3.775 3.811 3.793 3.793 0 013.775-3.811z"/><path class="b" d="M21.389 202.424a3.81 3.81 0 11-3.775 3.81 3.793 3.793 0 013.775-3.81z"/><path class="b" d="M45.069 227.719a3.811 3.811 0 11-3.775 3.811 3.793 3.793 0 013.775-3.811z"/><path class="b" d="M90.558 255.859a3.81 3.81 0 11-3.775 3.811 3.793 3.793 0 013.775-3.811z"/><path class="b" d="M108.407 253.884a3.811 3.811 0 11-3.775 3.811 3.793 3.793 0 013.775-3.811z"/><path class="b" d="M119.66 254.279a3.811 3.811 0 11-3.774 3.811 3.794 3.794 0 013.774-3.811z"/><path class="b" d="M119.66 234.544a3.811 3.811 0 11-3.774 3.811 3.794 3.794 0 013.774-3.811z"/><path class="b" d="M106.854 190.381a3.811 3.811 0 11-3.774 3.811 3.793 3.793 0 013.774-3.811z"/><path class="b" d="M152.84 165.686a3.81 3.81 0 11-3.776 3.81 3.793 3.793 0 013.776-3.81z"/><path class="b" d="M184.27 151.633a3.811 3.811 0 11-3.774 3.811 3.793 3.793 0 013.774-3.811z"/><path class="b" d="M176.51 141.795a3.811 3.811 0 11-3.775 3.811 3.793 3.793 0 013.775-3.811z"/><path class="b" d="M215.12 241.651a3.81 3.81 0 11-3.774 3.811 3.793 3.793 0 013.774-3.811z"/><path class="b" d="M195.913 247.175a3.81 3.81 0 11-3.774 3.811 3.793 3.793 0 013.774-3.811z"/><path class="b" d="M156.913 246.189a3.811 3.811 0 11-3.775 3.811 3.792 3.792 0 013.775-3.811z"/><path class="b" d="M122.958 280.524a3.811 3.811 0 11-3.774 3.811 3.793 3.793 0 013.774-3.811z"/><path class="b" d="M179.614 264.541a3.81 3.81 0 11-3.775 3.81 3.793 3.793 0 013.775-3.81z"/><path class="b" d="M136.735 260.988a3.811 3.811 0 11-3.775 3.811 3.793 3.793 0 013.775-3.811z"/><path class="b" d="M292.476 176.927a3.811 3.811 0 11-3.775 3.811 3.793 3.793 0 013.775-3.811z"/><path class="b" d="M294.447 146.212a3.811 3.811 0 11-3.774 3.811 3.794 3.794 0 013.774-3.811z"/><path class="b" d="M278.268 137.58a3.811 3.811 0 11-3.775 3.81 3.792 3.792 0 013.775-3.81z"/><path class="b" d="M241.315 132.36a3.811 3.811 0 11-3.775 3.811 3.794 3.794 0 013.775-3.811z"/><path class="b" d="M174.958 171.909a3.811 3.811 0 11-3.775 3.811 3.792 3.792 0 013.775-3.811z"/><path class="b" d="M169.526 168.025a3.075 3.075 0 11-3.046 3.077 3.06 3.06 0 013.046-3.077z"/><path class="b" d="M281.622 105.195a3.075 3.075 0 11-3.046 3.075 3.06 3.06 0 013.046-3.075z"/><path class="b" d="M265.834 106.398a3.075 3.075 0 11-3.046 3.077 3.061 3.061 0 013.046-3.077z"/><path class="b" d="M237.188 109.293a3.53 3.53 0 11-3.5 3.531 3.515 3.515 0 013.5-3.531z"/><path class="b" d="M217.067 111.818a3.075 3.075 0 11-3.046 3.078 3.061 3.061 0 013.046-3.075z"/><path class="b" d="M271.361 114.091a3.811 3.811 0 11-3.775 3.811 3.794 3.794 0 013.775-3.811z"/><path class="b" d="M296.225 155.448a3.81 3.81 0 11-3.775 3.811 3.793 3.793 0 013.775-3.811z"/><path class="b" d="M253.8 72.674a3.075 3.075 0 11-3.046 3.077 3.061 3.061 0 013.046-3.077z"/><path class="b" d="M269.191 153.773a3.075 3.075 0 11-3.046 3.075 3.061 3.061 0 013.046-3.075z"/><path class="b" d="M177.87 197.332a3.075 3.075 0 11-3.046 3.077 3.061 3.061 0 013.046-3.077z"/><path class="b" d="M192.229 189.103a3.075 3.075 0 11-3.046 3.075 3.061 3.061 0 013.046-3.075z"/><path class="b" d="M185.042 169.799a4.943 4.943 0 11-4.9 4.943 4.92 4.92 0 014.9-4.943z"/><path class="b" d="M45.068 176.618a1.906 1.906 0 11-1.888 1.907 1.9 1.9 0 011.888-1.907z"/><path class="b" d="M66.868 181.235a1.906 1.906 0 11-1.888 1.906 1.9 1.9 0 011.888-1.906z"/><path class="b" d="M28.888 170.033a3.075 3.075 0 11-3.046 3.075 3.061 3.061 0 013.046-3.075z"/><path class="b" d="M8.558 181.876a3.075 3.075 0 11-3.046 3.075 3.06 3.06 0 013.046-3.075z"/><path class="b" d="M47.238 211.786a3.075 3.075 0 11-3.046 3.075 3.06 3.06 0 013.046-3.075z"/><path class="b" d="M121.792 189.304a3.075 3.075 0 11-3.046 3.075 3.06 3.06 0 013.046-3.075z"/><path class="b" d="M101.04 197.485a4.943 4.943 0 11-4.9 4.943 4.919 4.919 0 014.9-4.943z"/><path class="b" d="M239.422 180.471a3.075 3.075 0 11-3.046 3.075 3.061 3.061 0 013.046-3.075z"/><path class="b" d="M277.873 186.894a3.075 3.075 0 11-3.046 3.075 3.061 3.061 0 013.046-3.075z"/><path class="b" d="M279.452 200.545a3.075 3.075 0 11-3.046 3.075 3.061 3.061 0 013.046-3.075z"/><path class="b" d="M241.511 231.259a3.075 3.075 0 11-3.046 3.075 3.061 3.061 0 013.046-3.075z"/><path class="b" d="M236.833 213.903a5.8 5.8 0 11-5.749 5.8 5.776 5.776 0 015.749-5.8z"/><path class="b" d="M258.535 206.921a4.944 4.944 0 11-4.9 4.943 4.92 4.92 0 014.9-4.943z"/><path class="b" d="M289.121 197.092a1.9 1.9 0 11-1.888 1.906 1.9 1.9 0 011.888-1.906z"/><path class="b" d="M162.153 205.436a3.81 3.81 0 11-3.775 3.81 3.792 3.792 0 013.775-3.81z"/><path class="b" d="M106.657 214.997a3.075 3.075 0 11-3.046 3.075 3.061 3.061 0 013.046-3.075z"/><path class="b" d="M90.94 232.864a3.075 3.075 0 11-3.046 3.075 3.061 3.061 0 013.046-3.075z"/><path class="b" d="M178.841 250.476a3.075 3.075 0 11-3.046 3.075 3.061 3.061 0 013.046-3.075z"/><path class="b" d="M166.812 237.835a1.906 1.906 0 11-1.887 1.906 1.9 1.9 0 011.887-1.906z"/><path class="b" d="M194.758 237.434a1.906 1.906 0 11-1.888 1.906 1.9 1.9 0 011.888-1.906z"/><path class="b" d="M137.708 288.397a5.8 5.8 0 11-5.749 5.8 5.776 5.776 0 015.749-5.8z"/><path class="b" d="M167.582 275.84a4.943 4.943 0 11-4.9 4.943 4.92 4.92 0 014.9-4.943z"/><path class="b" d="M207.555 281.708a3.81 3.81 0 11-3.775 3.81 3.793 3.793 0 013.775-3.81z"/><path class="b" d="M220.56 267.447a3.075 3.075 0 11-3.046 3.075 3.06 3.06 0 013.046-3.075z"/><path class="b" d="M223.664 253.239a3.075 3.075 0 11-3.046 3.075 3.06 3.06 0 013.046-3.075z"/><path class="b" d="M270.375 231.057a3.075 3.075 0 11-3.046 3.075 3.061 3.061 0 013.046-3.075z"/><path class="b" d="M80.67 274.261a4.943 4.943 0 11-4.9 4.943 4.92 4.92 0 014.9-4.943z"/><path class="b" d="M61.658 260.844a4.943 4.943 0 11-4.9 4.943 4.919 4.919 0 014.9-4.943z"/><path class="b" d="M183.65 282.048a2.832 2.832 0 11-2.806 2.833 2.818 2.818 0 012.806-2.833z"/><path class="b" d="M232.008 235.076a3.075 3.075 0 11-3.046 3.075 3.06 3.06 0 013.046-3.075z"/><path class="b" d="M127.42 88.133a3.075 3.075 0 11-3.046 3.075 3.06 3.06 0 013.046-3.075z"/><path class="b" d="M144.531 104.024a3.811 3.811 0 11-3.775 3.811 3.794 3.794 0 013.775-3.811z"/><path class="b" d="M15.982 159.237a3.076 3.076 0 11-3.046 3.077 3.061 3.061 0 013.046-3.077z"/><path class="b" d="M64.872 165.288a1.9 1.9 0 11-1.888 1.906 1.9 1.9 0 011.888-1.906z"/><path class="b" d="M60.741 148.047a1.906 1.906 0 11-1.888 1.906 1.9 1.9 0 011.888-1.906z"/><path class="b" d="M180.52 257.821a3.075 3.075 0 11-3.046 3.075 3.061 3.061 0 013.046-3.075z"/><path class="b" d="M95.04 123.104a1.906 1.906 0 11-1.887 1.907 1.9 1.9 0 011.887-1.907z"/><path class="b" d="M148.576 121.72a1.906 1.906 0 11-1.887 1.906 1.9 1.9 0 011.887-1.906z"/><path class="c" d="M92.166 20a2.1 2.1 0 11-2.1 2.1 2.1 2.1 0 012.1-2.1z"/><path class="c" d="M99.696 15.266a3.68 3.68 0 11-3.68 3.68 3.679 3.679 0 013.68-3.68z"/><path class="c" d="M98.091 24.95a6.6 6.6 0 11-6.6 6.6 6.6 6.6 0 016.6-6.6z"/><path class="c" d="M108.712 62.039a7.949 7.949 0 11-7.949 7.949 7.948 7.948 0 017.949-7.949z"/><path class="c" d="M138.612.46a4.97 4.97 0 11-4.97 4.97 4.97 4.97 0 014.97-4.97z"/><path class="c" d="M137.748 32.279a4.97 4.97 0 11-4.971 4.97 4.97 4.97 0 014.971-4.97z"/><path class="c" d="M195.111 20.58a4.97 4.97 0 11-4.97 4.97 4.97 4.97 0 014.97-4.97z"/><path class="c" d="M180.219 11.843a4.407 4.407 0 11-4.405 4.407 4.406 4.406 0 014.405-4.407z"/><path class="c" d="M176.006 20.75a2.609 2.609 0 11-2.609 2.609 2.609 2.609 0 012.609-2.609z"/><path class="c" d="M154.411 24.929a4.97 4.97 0 11-4.97 4.97 4.97 4.97 0 014.97-4.97z"/><path class="c" d="M162.224 33.049a6.6 6.6 0 11-6.6 6.6 6.6 6.6 0 016.6-6.6z"/><path class="c" d="M188.028 28.999a6 6 0 11-6 6 6 6 0 016-6z"/><path class="c" d="M144.385 59.277a6 6 0 11-6 6 6 6 0 016-6z"/><path class="c" d="M60.488 61.107a6 6 0 11-6 6 6 6 0 016-6z"/><path class="c" d="M85.104 55.28a4.97 4.97 0 11-4.972 4.97 4.97 4.97 0 014.972-4.97z"/><path class="c" d="M204.387 53.452a5.56 5.56 0 11-5.56 5.56 5.561 5.561 0 015.56-5.56z"/><path class="c" d="M244.507 63.841a5.56 5.56 0 11-5.56 5.56 5.561 5.561 0 015.56-5.56z"/><path class="c" d="M234.785 40.942a4.407 4.407 0 11-4.407 4.407 4.406 4.406 0 014.407-4.407z"/><path class="c" d="M244.075 45.892a4.406 4.406 0 11-4.407 4.407 4.406 4.406 0 014.407-4.407z"/><path class="c" d="M216.954 42.289a2.609 2.609 0 11-2.609 2.609 2.609 2.609 0 012.609-2.609z"/><path class="c" d="M198.073 65.141a2.609 2.609 0 11-2.608 2.608 2.609 2.609 0 012.608-2.608z"/><path class="c" d="M234.359 67.431a2.609 2.609 0 11-2.609 2.609 2.609 2.609 0 012.609-2.609z"/><path class="c" d="M221.11 54.623a3.846 3.846 0 11-3.846 3.846 3.846 3.846 0 013.846-3.846z"/><path class="c" d="M167.685 58.553a3.846 3.846 0 11-3.846 3.846 3.846 3.846 0 013.846-3.846z"/><path class="c" d="M152.79 67.889a2.609 2.609 0 11-2.608 2.609 2.609 2.609 0 012.608-2.609z"/><path class="c" d="M136.417 56.751a2.609 2.609 0 11-2.608 2.609 2.609 2.609 0 012.608-2.609z"/><path class="c" d="M105.128 36.585a3.037 3.037 0 11-3.037 3.037 3.037 3.037 0 013.037-3.037z"/><path class="c" d="M84.8 30.703a3.846 3.846 0 11-3.846 3.846 3.847 3.847 0 013.846-3.846z"/><path class="c" d="M114.883 38.261a3.038 3.038 0 11-3.037 3.037 3.037 3.037 0 013.037-3.037z"/><path class="c" d="M96.004 68.067a3.037 3.037 0 11-3.037 3.037 3.037 3.037 0 013.037-3.037z"/><path class="c" d="M72.698 70.485a2.609 2.609 0 11-2.609 2.609 2.609 2.609 0 012.609-2.609z"/><path class="c" d="M50.479 61.3a3.846 3.846 0 11-3.846 3.846 3.846 3.846 0 013.846-3.846z"/><path class="c" d="M63.108 52.791a2.609 2.609 0 11-2.608 2.608 2.609 2.609 0 012.608-2.608z"/><path class="c" d="M134.796 84.647a3.846 3.846 0 11-3.846 3.846 3.846 3.846 0 013.846-3.846z"/><path class="c" d="M51.979 71.264a4.406 4.406 0 11-4.407 4.407 4.406 4.406 0 014.407-4.407z"/><path class="c" d="M44.03 98.075a3.847 3.847 0 11-3.846 3.846 3.846 3.846 0 013.846-3.846z"/><path class="c" d="M48.229 91.209a3.846 3.846 0 11-3.846 3.846 3.847 3.847 0 013.846-3.846z"/><path class="c" d="M33.531 101.258a6.6 6.6 0 11-6.6 6.6 6.6 6.6 0 016.6-6.6z"/><path class="c" d="M24.685 97.16a3.846 3.846 0 11-3.846 3.846 3.845 3.845 0 013.846-3.846z"/><path class="c" d="M21.142 93.075a2.13 2.13 0 11-2.132 2.13 2.13 2.13 0 012.132-2.13z"/><path class="c" d="M7.432 125.683a6.6 6.6 0 11-6.6 6.6 6.6 6.6 0 016.6-6.6z"/><path class="c" d="M12.682 140.211a2.609 2.609 0 11-2.608 2.609 2.608 2.608 0 012.608-2.609z"/><path class="c" d="M33.83 128.157a2.609 2.609 0 11-2.609 2.609 2.609 2.609 0 012.609-2.609z"/><path class="c" d="M47.929 130.751a2.609 2.609 0 11-2.608 2.609 2.608 2.608 0 012.608-2.609z"/><path class="c" d="M51.23 115.035a2.609 2.609 0 11-2.609 2.609 2.609 2.609 0 012.609-2.609z"/><path class="c" d="M56.638 105.905a4.407 4.407 0 11-4.407 4.407 4.406 4.406 0 014.407-4.407z"/><path class="c" d="M70.963 120.035a6.6 6.6 0 11-6.6 6.6 6.6 6.6 0 016.6-6.6z"/><path class="c" d="M40.916 149.505a7.086 7.086 0 11-7.085 7.086 7.086 7.086 0 017.085-7.086z"/><path class="c" d="M146.302 126.876a7.086 7.086 0 11-7.086 7.086 7.087 7.087 0 017.086-7.086z"/><path class="c" d="M117.7 136.828a6.6 6.6 0 11-6.6 6.6 6.6 6.6 0 016.6-6.6z"/><path class="c" d="M139.373 153.313a6.6 6.6 0 11-6.6 6.6 6.6 6.6 0 016.6-6.6z"/><path class="c" d="M227.538 128.278a6.6 6.6 0 11-6.6 6.6 6.6 6.6 0 016.6-6.6z"/><path class="c" d="M252.345 127.21a6.6 6.6 0 11-6.6 6.6 6.6 6.6 0 016.6-6.6z"/><path class="c" d="M267.946 61.757a3.846 3.846 0 11-3.846 3.846 3.846 3.846 0 013.846-3.846z"/><path class="c" d="M251.627 83.132a4.778 4.778 0 11-4.778 4.778 4.778 4.778 0 014.778-4.778z"/><path class="c" d="M262.095 84.621a4.778 4.778 0 11-4.778 4.778 4.777 4.777 0 014.778-4.778z"/><path class="c" d="M244.071 96.987a4.778 4.778 0 11-4.778 4.778 4.777 4.777 0 014.778-4.778z"/><path class="c" d="M184.937 95.913a4.778 4.778 0 11-4.778 4.778 4.777 4.777 0 014.778-4.778z"/><path class="c" d="M159.637 84.895a5.635 5.635 0 11-5.636 5.635 5.634 5.634 0 015.636-5.635z"/><path class="c" d="M195.407 116.064a4.778 4.778 0 11-4.778 4.778 4.777 4.777 0 014.778-4.778z"/><path class="c" d="M167.684 149.791a4.778 4.778 0 11-4.778 4.778 4.778 4.778 0 014.778-4.778z"/><path class="c" d="M126.833 136.762a2.609 2.609 0 11-2.608 2.608 2.609 2.609 0 012.608-2.608z"/><path class="c" d="M153.973 121.596a2.609 2.609 0 11-2.609 2.609 2.609 2.609 0 012.609-2.609z"/><path class="c" d="M125.697 117.946a3.4 3.4 0 11-3.405 3.4 3.4 3.4 0 013.405-3.4z"/><path class="c" d="M172.406 119.579a3.4 3.4 0 11-3.4 3.4 3.4 3.4 0 013.4-3.4z"/><path class="c" d="M233.172 96.384a3.4 3.4 0 11-3.4 3.4 3.4 3.4 0 013.4-3.4z"/><path class="c" d="M226.425 96.139a2.13 2.13 0 11-2.13 2.13 2.131 2.131 0 012.13-2.13z"/><path class="c" d="M215.069 105.903a2.13 2.13 0 11-2.13 2.13 2.13 2.13 0 012.13-2.13z"/><path class="c" d="M221.074 118.982a3.847 3.847 0 11-3.846 3.846 3.846 3.846 0 013.846-3.846z"/><path class="c" d="M237.309 125.106a2.609 2.609 0 11-2.609 2.608 2.609 2.609 0 012.609-2.608z"/><path class="c" d="M280.542 116.256a2.609 2.609 0 11-2.609 2.609 2.609 2.609 0 012.609-2.609z"/><path class="c" d="M287.293 113.663a2.609 2.609 0 11-2.609 2.608 2.609 2.609 0 012.609-2.608z"/><path class="c" d="M285.643 136.09a2.609 2.609 0 11-2.609 2.609 2.609 2.609 0 012.609-2.609z"/><path class="c" d="M294.042 135.751a4.778 4.778 0 11-4.778 4.778 4.777 4.777 0 014.778-4.778z"/><path class="c" d="M289.692 104.485a3.846 3.846 0 11-3.846 3.846 3.846 3.846 0 013.846-3.846z"/><path class="c" d="M267.944 100.082a2.609 2.609 0 11-2.609 2.609 2.609 2.609 0 012.609-2.609z"/><path class="c" d="M217.823 94.544a4.778 4.778 0 11-4.778 4.778 4.778 4.778 0 014.778-4.778z"/><path class="c" d="M229.048 142.957a2.609 2.609 0 11-2.608 2.608 2.608 2.608 0 012.608-2.608z"/><path class="c" d="M286.543 153.911a4.778 4.778 0 11-4.778 4.778 4.778 4.778 0 014.778-4.778z"/><path class="c" d="M274.543 159.74a2.609 2.609 0 11-2.608 2.609 2.609 2.609 0 012.608-2.609z"/><path class="c" d="M289.359 173.245a1.982 1.982 0 11-1.981 1.983 1.983 1.983 0 011.981-1.983z"/><path class="c" d="M294.794 173.182a1.982 1.982 0 11-1.983 1.981 1.98 1.98 0 011.983-1.981z"/><path class="c" d="M293.142 113.375a1.982 1.982 0 11-1.983 1.983 1.982 1.982 0 011.983-1.983z"/><path class="c" d="M249.345 173.599a4.778 4.778 0 11-4.778 4.778 4.777 4.777 0 014.778-4.778z"/><path class="c" d="M239.039 164.61a6.6 6.6 0 11-6.6 6.6 6.6 6.6 0 016.6-6.6z"/><path class="c" d="M234.366 177.758a1.982 1.982 0 11-1.983 1.983 1.983 1.983 0 011.983-1.983z"/><path class="c" d="M232.447 183.251a1.982 1.982 0 11-1.981 1.983 1.983 1.983 0 011.981-1.983z"/><path class="c" d="M243.346 179.894a1.982 1.982 0 11-1.983 1.983 1.983 1.983 0 011.983-1.983z"/><path class="c" d="M196.447 141.399a3.4 3.4 0 11-3.405 3.4 3.4 3.4 0 013.405-3.4z"/><path class="c" d="M176.968 157.74a6.6 6.6 0 11-6.6 6.6 6.6 6.6 0 016.6-6.6z"/><path class="c" d="M189.509 159.406a4.778 4.778 0 11-4.778 4.778 4.778 4.778 0 014.778-4.778z"/><path class="c" d="M193.638 177.872a4.778 4.778 0 11-4.778 4.778 4.778 4.778 0 014.778-4.778z"/><path class="c" d="M267.326 192.871a7.481 7.481 0 11-7.48 7.48 7.481 7.481 0 017.48-7.48z"/><path class="c" d="M152.8 175.141a5.539 5.539 0 11-5.538 5.538 5.538 5.538 0 015.538-5.538z"/><path class="c" d="M121.381 170.4a5.538 5.538 0 11-5.538 5.538 5.538 5.538 0 015.538-5.538z"/><path class="c" d="M108.687 167.063a2.609 2.609 0 11-2.609 2.609 2.609 2.609 0 012.609-2.609z"/><path class="c" d="M116.8 161.572a2.609 2.609 0 11-2.609 2.608 2.609 2.609 0 012.609-2.608z"/><path class="c" d="M203.668 145.823a4.778 4.778 0 11-4.778 4.778 4.778 4.778 0 014.778-4.778z"/><path class="c" d="M194.534 169.475a3.4 3.4 0 11-3.4 3.4 3.4 3.4 0 013.4-3.4z"/><path class="c" d="M281.143 179.106a3.846 3.846 0 11-3.846 3.846 3.846 3.846 0 013.846-3.846z"/><path class="c" d="M270.194 185.831a2.609 2.609 0 11-2.609 2.609 2.609 2.609 0 012.609-2.609z"/><path class="c" d="M255.494 192.392a2.609 2.609 0 11-2.609 2.609 2.609 2.609 0 012.609-2.609z"/><path class="c" d="M256.544 199.714a2.609 2.609 0 11-2.608 2.608 2.608 2.608 0 012.608-2.608z"/><path class="c" d="M114.74 196.535a7.481 7.481 0 11-7.482 7.482 7.481 7.481 0 017.482-7.482z"/><path class="c" d="M204.661 227.373a7.482 7.482 0 11-7.48 7.482 7.482 7.482 0 017.48-7.482z"/><path class="c" d="M56.672 185.255a7.482 7.482 0 11-7.482 7.482 7.481 7.481 0 017.482-7.482z"/><path class="c" d="M79.154 152.873a6.363 6.363 0 11-6.363 6.363 6.363 6.363 0 016.363-6.363z"/><path class="c" d="M70.297 148.732a3.952 3.952 0 11-3.951 3.953 3.951 3.951 0 013.951-3.953z"/><path class="c" d="M32.631 186.724a4.778 4.778 0 11-4.778 4.778 4.778 4.778 0 014.778-4.778z"/><path class="c" d="M23.481 161.695a4.778 4.778 0 11-4.778 4.778 4.778 4.778 0 014.778-4.778z"/><path class="c" d="M181.811 204.779a7.481 7.481 0 11-7.48 7.48 7.481 7.481 0 017.48-7.48z"/><path class="c" d="M201.159 185.652a4.778 4.778 0 11-4.778 4.778 4.778 4.778 0 014.778-4.778z"/><path class="c" d="M217.823 212.974a4.778 4.778 0 11-4.778 4.778 4.778 4.778 0 014.778-4.778z"/><path class="c" d="M39.53 207.48a4.778 4.778 0 11-4.778 4.778 4.777 4.777 0 014.778-4.778z"/><path class="c" d="M21.532 191.914a4.778 4.778 0 11-4.778 4.778 4.777 4.777 0 014.778-4.778z"/><path class="c" d="M11.686 188.432a4.232 4.232 0 11-4.232 4.232 4.232 4.232 0 014.232-4.232z"/><path class="c" d="M43.88 237.423a6.6 6.6 0 11-6.6 6.6 6.6 6.6 0 016.6-6.6z"/><path class="c" d="M56.063 229.663a7.482 7.482 0 11-7.48 7.482 7.482 7.482 0 017.48-7.482z"/><path class="c" d="M151.904 210.236a5.538 5.538 0 11-5.538 5.538 5.538 5.538 0 015.538-5.538z"/><path class="c" d="M246.495 210.083a5.538 5.538 0 11-5.538 5.538 5.538 5.538 0 015.538-5.538z"/><path class="c" d="M108.858 231.153a5.388 5.388 0 11-5.388 5.388 5.388 5.388 0 015.388-5.388z"/><path class="c" d="M137.894 227.765a3.4 3.4 0 11-3.4 3.4 3.4 3.4 0 013.4-3.4z"/><path class="c" d="M83.496 246.556a5.538 5.538 0 11-5.538 5.538 5.538 5.538 0 015.538-5.538z"/><path class="c" d="M75.345 245.452a1.982 1.982 0 11-1.981 1.981 1.982 1.982 0 011.981-1.981z"/><path class="c" d="M77.117 256.251a1.982 1.982 0 11-1.983 1.984 1.981 1.981 0 011.983-1.981z"/><path class="c" d="M123.126 243.652a2.716 2.716 0 11-2.716 2.716 2.717 2.717 0 012.716-2.716z"/><path class="c" d="M67.387 234.398a2.716 2.716 0 11-2.716 2.716 2.714 2.714 0 012.716-2.716z"/><path class="c" d="M67.977 227.988a2.716 2.716 0 11-2.716 2.716 2.716 2.716 0 012.716-2.716z"/><path class="c" d="M71.093 257.955a4.778 4.778 0 11-4.778 4.778 4.776 4.776 0 014.778-4.778z"/><path class="c" d="M113.116 212.963a3.4 3.4 0 11-3.4 3.4 3.4 3.4 0 013.4-3.4z"/><path class="c" d="M133.016 244.734a7.481 7.481 0 11-7.482 7.482 7.482 7.482 0 017.482-7.482z"/><path class="c" d="M71.093 269.205a4.778 4.778 0 11-4.778 4.778 4.776 4.776 0 014.778-4.778z"/><path class="c" d="M104.959 262.178a4.1 4.1 0 11-4.1 4.1 4.1 4.1 0 014.1-4.1z"/><path class="c" d="M103.079 271.25a1.982 1.982 0 11-1.983 1.981 1.981 1.981 0 011.983-1.981z"/><path class="c" d="M199.256 242.752a1.982 1.982 0 11-1.981 1.981 1.982 1.982 0 011.981-1.981z"/><path class="c" d="M143.499 257.529a3.4 3.4 0 11-3.4 3.4 3.4 3.4 0 013.4-3.4z"/><path class="c" d="M161.783 255.083a6.6 6.6 0 11-6.6 6.6 6.6 6.6 0 016.6-6.6z"/><path class="c" d="M253.096 244.133a5.85 5.85 0 11-5.851 5.849 5.85 5.85 0 015.851-5.849z"/><path class="c" d="M99.405 277.281a7.482 7.482 0 11-7.482 7.482 7.48 7.48 0 017.482-7.482z"/><path class="c" d="M87.743 281.165a2.716 2.716 0 11-2.716 2.716 2.716 2.716 0 012.716-2.716z"/><path class="c" d="M130.666 282.577a3.4 3.4 0 11-3.4 3.4 3.4 3.4 0 013.4-3.4z"/><path class="c" d="M140.079 278.424a4.677 4.677 0 11-4.677 4.677 4.677 4.677 0 014.677-4.677z"/><path class="c" d="M125.804 289.254a4.677 4.677 0 11-4.677 4.677 4.676 4.676 0 014.677-4.677z"/><path class="c" d="M148.07 291.625a4.1 4.1 0 11-4.1 4.1 4.1 4.1 0 014.1-4.1z"/><path class="c" d="M160.46 269.527a3.4 3.4 0 11-3.405 3.405 3.4 3.4 0 013.405-3.405z"/><path class="c" d="M176.091 281.276a4.1 4.1 0 11-4.1 4.1 4.1 4.1 0 014.1-4.1z"/><path class="c" d="M184.94 288.926a4.1 4.1 0 11-4.1 4.1 4.1 4.1 0 014.1-4.1z"/><path class="c" d="M176.241 290.979a3.4 3.4 0 11-3.405 3.405 3.4 3.4 0 013.405-3.405z"/><path class="c" d="M157.215 292.864a2.717 2.717 0 11-2.716 2.716 2.716 2.716 0 012.716-2.716z"/><path class="c" d="M172.995 257.129a4.1 4.1 0 11-4.1 4.1 4.1 4.1 0 014.1-4.1z"/><path class="c" d="M187.155 261.279a3.4 3.4 0 11-3.4 3.4 3.4 3.4 0 013.4-3.4z"/><path class="c" d="M203.669 253.829a4.1 4.1 0 11-4.1 4.1 4.1 4.1 0 014.1-4.1z"/><path class="c" d="M213.244 249.995a5.538 5.538 0 11-5.538 5.538 5.538 5.538 0 015.538-5.538z"/><path class="c" d="M270.943 219.851a5.539 5.539 0 11-5.538 5.538 5.538 5.538 0 015.538-5.538z"/><path class="c" d="M220.322 274.143a5.538 5.538 0 11-5.538 5.538 5.538 5.538 0 015.538-5.538z"/><path class="c" d="M211.496 276.365a2.716 2.716 0 11-2.716 2.716 2.716 2.716 0 012.716-2.716z"/><path class="c" d="M216.068 233.787a2.716 2.716 0 11-2.716 2.716 2.715 2.715 0 012.716-2.716z"/><path class="c" d="M234.64 227.224a4.1 4.1 0 11-4.1 4.1 4.1 4.1 0 014.1-4.1z"/><path class="c" d="M224.618 237.989a3.4 3.4 0 11-3.4 3.4 3.4 3.4 0 013.4-3.4z"/><path class="c" d="M230.834 253.568a2.716 2.716 0 11-2.716 2.716 2.716 2.716 0 012.716-2.716z"/><path class="c" d="M265.094 214.642a3.4 3.4 0 11-3.4 3.405 3.4 3.4 0 013.4-3.405z"/><path class="c" d="M238.637 208.564a2.609 2.609 0 11-2.609 2.609 2.608 2.608 0 012.609-2.609z"/><path class="d" d="M225.25 102.294a6.363 6.363 0 11-6.363 6.363 6.363 6.363 0 016.363-6.363z"/><path class="d" d="M210.886 121.305a4.984 4.984 0 11-4.984 4.985 4.985 4.985 0 014.984-4.985z"/><path class="d" d="M216.925 130.413a2.492 2.492 0 11-2.492 2.491 2.493 2.493 0 012.492-2.491z"/><path class="d" d="M193.428 148.497a4.984 4.984 0 11-4.984 4.985 4.985 4.985 0 014.984-4.985z"/><path class="d" d="M204.962 156.069a2.492 2.492 0 11-2.492 2.491 2.491 2.491 0 012.492-2.491z"/><path class="d" d="M200.207 161.129a4.984 4.984 0 11-4.985 4.984 4.983 4.983 0 014.985-4.984z"/><path class="d" d="M209.199 165.889a2.493 2.493 0 11-2.491 2.493 2.492 2.492 0 012.491-2.493z"/><path class="d" d="M248.568 93.284a2.493 2.493 0 11-2.493 2.493 2.494 2.494 0 012.493-2.493z"/><path class="d" d="M179.79 180.92a7.358 7.358 0 11-7.358 7.358 7.357 7.357 0 017.358-7.358z"/><path class="d" d="M187.325 194.985a4.984 4.984 0 11-4.984 4.984 4.985 4.985 0 014.984-4.984z"/><path class="d" d="M169.521 211.821a4.984 4.984 0 11-4.984 4.984 4.983 4.983 0 014.984-4.984z"/><path class="d" d="M170.892 201.279a4.307 4.307 0 11-4.307 4.307 4.308 4.308 0 014.307-4.307z"/><path class="d" d="M155.792 202.433a2.758 2.758 0 11-2.758 2.758 2.758 2.758 0 012.758-2.758z"/><path class="d" d="M171.899 192.983a2.758 2.758 0 11-2.757 2.758 2.757 2.757 0 012.757-2.758z"/><path class="d" d="M125.784 217.186a2.758 2.758 0 11-2.757 2.757 2.757 2.757 0 012.757-2.757z"/><path class="d" d="M118.663 182.461a2.758 2.758 0 11-2.756 2.757 2.757 2.757 0 012.757-2.757z"/><path class="d" d="M131.04 179.304a2.758 2.758 0 11-2.757 2.757 2.758 2.758 0 012.757-2.757z"/><path class="d" d="M130.359 172.114a2.758 2.758 0 11-2.757 2.757 2.756 2.756 0 012.757-2.757z"/><path class="d" d="M173.595 236.478a2.757 2.757 0 11-2.758 2.757 2.756 2.756 0 012.758-2.757z"/><path class="d" d="M281.845 193.686a2.757 2.757 0 11-2.757 2.757 2.757 2.757 0 012.757-2.757z"/><path class="e" d="M128.744 67.062a3.033 3.033 0 11-3.031 3.033 3.033 3.033 0 013.031-3.033z"/><path class="e" d="M109.807 79.71a3.033 3.033 0 11-3.031 3.033 3.033 3.033 0 013.031-3.033z"/><path class="e" d="M98.923 95.753a3.032 3.032 0 11-3.031 3.033 3.033 3.033 0 013.031-3.033z"/><path class="e" d="M116.633 111.956a3.6 3.6 0 11-3.6 3.6 3.6 3.6 0 013.6-3.6z"/><path class="e" d="M100.716 118.476a3.6 3.6 0 11-3.6 3.6 3.6 3.6 0 013.6-3.6z"/><path class="e" d="M103.858 84.672a5.611 5.611 0 11-5.61 5.611 5.61 5.61 0 015.61-5.611z"/><path class="e" d="M80.841 99.346a6.9 6.9 0 11-6.9 6.9 6.9 6.9 0 016.9-6.9z"/><path class="e" d="M169.441 94.485a6.9 6.9 0 11-6.9 6.9 6.9 6.9 0 016.9-6.9z"/><path class="e" d="M227.567 79.053a6.9 6.9 0 11-6.9 6.9 6.9 6.9 0 016.9-6.9z"/><path class="e" d="M208.49 131.986a6.9 6.9 0 11-6.9 6.9 6.9 6.9 0 016.9-6.9z"/><path class="e" d="M100.217 141.786a6.9 6.9 0 11-6.9 6.9 6.9 6.9 0 016.9-6.9z"/><path class="e" d="M105.795 107.045a5.61 5.61 0 11-5.611 5.61 5.61 5.61 0 015.611-5.61z"/><path class="e" d="M118.095 91.619a6.141 6.141 0 11-6.141 6.141 6.141 6.141 0 016.141-6.141z"/><path class="e" d="M163.039 108.247a3.032 3.032 0 11-3.033 3.033 3.032 3.032 0 013.033-3.033z"/><path class="e" d="M175.972 72.003a3.6 3.6 0 11-3.6 3.6 3.6 3.6 0 013.6-3.6z"/><path class="e" d="M167.199 90.5a1.988 1.988 0 11-1.987 1.989 1.989 1.989 0 011.987-1.989z"/><path class="e" d="M191.673 81.38a1.988 1.988 0 11-1.989 1.989 1.988 1.988 0 011.989-1.989z"/><path class="e" d="M192.119 88.937a1.988 1.988 0 11-1.987 1.989 1.989 1.989 0 011.987-1.989z"/><path class="e" d="M221.794 74.285a1.988 1.988 0 11-1.987 1.989 1.989 1.989 0 011.987-1.989z"/><path class="e" d="M210.299 89.563a2.738 2.738 0 11-2.738 2.736 2.737 2.737 0 012.738-2.736z"/><path class="e" d="M245.908 75.85a3.566 3.566 0 11-3.566 3.567 3.566 3.566 0 013.566-3.567z"/><path class="e" d="M237.235 74.575a3.566 3.566 0 11-3.566 3.566 3.566 3.566 0 013.566-3.566z"/><path class="e" d="M167.224 126.476a2.738 2.738 0 11-2.738 2.738 2.738 2.738 0 012.738-2.738z"/><path class="e" d="M181.234 125.027a1.988 1.988 0 11-1.989 1.989 1.988 1.988 0 011.989-1.989z"/><path class="e" d="M185.192 83.161a4.908 4.908 0 11-4.908 4.908 4.908 4.908 0 014.908-4.908z"/><path class="e" d="M197.962 71.039a5.714 5.714 0 11-5.715 5.714 5.714 5.714 0 015.715-5.714z"/><path class="e" d="M167.805 132.709a5.714 5.714 0 11-5.715 5.715 5.714 5.714 0 015.715-5.715z"/><path class="e" d="M201.219 125.654a3.6 3.6 0 11-3.6 3.6 3.6 3.6 0 013.6-3.6z"/><path class="e" d="M219.112 136.903a1.988 1.988 0 11-1.989 1.987 1.987 1.987 0 011.989-1.987z"/><path class="e" d="M113.091 129.889a3.6 3.6 0 11-3.6 3.6 3.6 3.6 0 013.6-3.6z"/><path class="e" d="M107.716 139.371a1.988 1.988 0 11-1.989 1.989 1.988 1.988 0 011.989-1.989z"/><path class="e" d="M93.108 137.093a3.032 3.032 0 11-3.033 3.031 3.032 3.032 0 013.033-3.031z"/><path class="e" d="M227.448 149.017a3.6 3.6 0 11-3.6 3.6 3.6 3.6 0 013.6-3.6z"/><path class="e" d="M216.05 159.841a4.909 4.909 0 11-4.908 4.909 4.909 4.909 0 014.908-4.909z"/><path class="e" d="M222.093 167.595a1.988 1.988 0 11-1.987 1.989 1.989 1.989 0 011.987-1.989z"/><path class="e" d="M97.895 165.062a5.61 5.61 0 11-5.61 5.61 5.61 5.61 0 015.61-5.61z"/><path class="e" d="M87.894 164.136a3.6 3.6 0 11-3.6 3.6 3.6 3.6 0 013.6-3.6z"/><path class="e" d="M97.433 178.585a3.032 3.032 0 11-3.033 3.031 3.031 3.031 0 013.033-3.031z"/><path class="e" d="M217.293 178.381a5.714 5.714 0 11-5.714 5.715 5.714 5.714 0 015.714-5.715z"/><path class="e" d="M208.359 185.177a1.988 1.988 0 11-1.989 1.989 1.988 1.988 0 011.989-1.989z"/><path class="e" d="M227.006 182.596a3.032 3.032 0 11-3.033 3.031 3.032 3.032 0 013.033-3.031z"/><path class="e" d="M73.382 214.008a6.9 6.9 0 11-6.9 6.9 6.9 6.9 0 016.9-6.9z"/><path class="e" d="M53.54 218.14a5.61 5.61 0 11-5.61 5.61 5.61 5.61 0 015.61-5.61z"/><path class="e" d="M76.855 198.845a3.6 3.6 0 11-3.6 3.6 3.6 3.6 0 013.6-3.6z"/><path class="e" d="M84.763 214.269a3.6 3.6 0 11-3.6 3.6 3.6 3.6 0 013.6-3.6z"/><path class="e" d="M91.919 194.062a3.6 3.6 0 11-3.6 3.6 3.6 3.6 0 013.6-3.6z"/><path class="e" d="M132.622 213.96a3.6 3.6 0 11-3.6 3.6 3.6 3.6 0 013.6-3.6z"/><path class="e" d="M140.525 189.896a3.6 3.6 0 11-3.6 3.6 3.6 3.6 0 013.6-3.6z"/><path class="e" d="M186.446 227.999a3.6 3.6 0 11-3.6 3.6 3.6 3.6 0 013.6-3.6z"/><path class="e" d="M215.819 203.471a3.6 3.6 0 11-3.6 3.6 3.6 3.6 0 013.6-3.6z"/><path class="e" d="M180.124 220.316a4.757 4.757 0 11-4.757 4.757 4.757 4.757 0 014.757-4.757z"/><path class="e" d="M204.032 216.054a4.757 4.757 0 11-4.757 4.757 4.758 4.758 0 014.757-4.757z"/><path class="e" d="M130.686 186.277a4.757 4.757 0 11-4.756 4.759 4.757 4.757 0 014.757-4.759z"/><path class="e" d="M91.312 188.262a1.988 1.988 0 11-1.989 1.989 1.988 1.988 0 011.989-1.989z"/><path class="e" d="M144.401 181.938a1.988 1.988 0 11-1.989 1.989 1.988 1.988 0 011.989-1.989z"/><path class="e" d="M140.523 185.332a1.988 1.988 0 11-1.989 1.987 1.987 1.987 0 011.989-1.987z"/><path class="e" d="M137.391 210.317a1.988 1.988 0 11-1.987 1.989 1.989 1.989 0 011.987-1.989z"/><path class="e" d="M95.939 219.599a2.738 2.738 0 11-2.736 2.738 2.737 2.737 0 012.736-2.738z"/><path class="e" d="M146.638 220.455a5.61 5.61 0 11-5.61 5.61 5.61 5.61 0 015.61-5.61z"/><path class="e" d="M168.324 222.804a6.9 6.9 0 11-6.9 6.9 6.9 6.9 0 016.9-6.9z"/><path class="e" d="M153.496 195.648a1.988 1.988 0 11-1.987 1.989 1.989 1.989 0 011.987-1.989z"/><path class="e" d="M96.68 226.357a1.988 1.988 0 11-1.987 1.987 1.988 1.988 0 011.987-1.987z"/><path class="f" d="M121.204 67.981a2.877 2.877 0 11-2.876 2.877 2.877 2.877 0 012.876-2.877z"/><path class="f" d="M114.023 85.466a2.877 2.877 0 11-2.877 2.877 2.876 2.876 0 012.877-2.877z"/><path class="f" d="M91.318 104.075a2.877 2.877 0 11-2.877 2.877 2.876 2.876 0 012.877-2.877z"/><path class="f" d="M72.603 112.33a2.877 2.877 0 11-2.876 2.877 2.877 2.877 0 012.876-2.877z"/><path class="f" d="M95.756 92.167a1.9 1.9 0 11-1.9 1.9 1.9 1.9 0 011.9-1.9z"/><path class="f" d="M90.382 94.257a3.983 3.983 0 11-3.983 3.983 3.983 3.983 0 013.983-3.983z"/><path class="f" d="M106.808 96.974a3.983 3.983 0 11-3.983 3.983 3.983 3.983 0 013.983-3.983z"/><path class="f" d="M122.718 74.992a6.729 6.729 0 11-6.729 6.728 6.729 6.729 0 016.729-6.728z"/><path class="f" d="M101.489 126.576a6.729 6.729 0 11-6.73 6.73 6.73 6.73 0 016.73-6.73z"/><path class="f" d="M111.624 118.799a5.275 5.275 0 11-5.274 5.274 5.275 5.275 0 015.274-5.274z"/><path class="f" d="M162.726 115.553a5.275 5.275 0 11-5.276 5.276 5.275 5.275 0 015.276-5.276z"/><path class="f" d="M115.128 104.711a2.877 2.877 0 11-2.878 2.877 2.877 2.877 0 012.878-2.877z"/><path class="f" d="M178.63 91.573a2.877 2.877 0 11-2.876 2.877 2.878 2.878 0 012.876-2.877z"/><path class="f" d="M173.714 80.763a5.275 5.275 0 11-5.274 5.274 5.275 5.275 0 015.274-5.274z"/><path class="f" d="M200.818 84.41a5.275 5.275 0 11-5.276 5.274 5.274 5.274 0 015.276-5.274z"/><path class="f" d="M212.009 74.219a6.729 6.729 0 11-6.728 6.728 6.728 6.728 0 016.728-6.728z"/><path class="f" d="M217.8 87.819a2.877 2.877 0 11-2.876 2.877 2.877 2.877 0 012.876-2.877z"/><path class="f" d="M185.669 71.77a4.558 4.558 0 11-4.559 4.559 4.558 4.558 0 014.559-4.559z"/><path class="f" d="M231.297 73.241a2.328 2.328 0 11-2.328 2.329 2.329 2.329 0 012.328-2.329z"/><path class="f" d="M241.179 82.16a3.983 3.983 0 11-3.983 3.983 3.983 3.983 0 013.983-3.983z"/><path class="f" d="M171.324 109.764a3.983 3.983 0 11-3.983 3.983 3.984 3.984 0 013.983-3.983z"/><path class="f" d="M156.29 136.018a5.275 5.275 0 11-5.274 5.274 5.275 5.275 0 015.274-5.274z"/><path class="f" d="M159.272 126.419a4.641 4.641 0 11-4.64 4.64 4.642 4.642 0 014.64-4.64z"/><path class="f" d="M189.216 125.729a6.728 6.728 0 11-6.729 6.728 6.73 6.73 0 016.729-6.728z"/><path class="f" d="M174.417 127.125a3.639 3.639 0 11-3.64 3.639 3.639 3.639 0 013.64-3.639z"/><path class="f" d="M179.048 133.112a3.64 3.64 0 11-3.64 3.64 3.64 3.64 0 013.64-3.64z"/><path class="f" d="M198.129 135.152a2.329 2.329 0 11-2.329 2.329 2.329 2.329 0 012.329-2.329z"/><path class="f" d="M102.874 157.107a3.983 3.983 0 11-3.983 3.983 3.983 3.983 0 013.983-3.983z"/><path class="f" d="M92.464 154.508a4.521 4.521 0 11-4.522 4.521 4.522 4.522 0 014.522-4.521z"/><path class="f" d="M87.45 173.013a6.729 6.729 0 11-6.73 6.729 6.728 6.728 0 016.73-6.729z"/><path class="f" d="M213.212 147.846a4.4 4.4 0 11-4.4 4.4 4.4 4.4 0 014.4-4.4z"/><path class="f" d="M220.823 142.192a3.64 3.64 0 11-3.64 3.64 3.641 3.641 0 013.64-3.64z"/><path class="f" d="M220.712 153.63a2.856 2.856 0 11-2.855 2.856 2.857 2.857 0 012.856-2.856z"/><path class="f" d="M228.006 157.935a5.275 5.275 0 11-5.274 5.274 5.275 5.275 0 015.274-5.274z"/><path class="f" d="M226.839 171.256a5.275 5.275 0 11-5.274 5.274 5.275 5.275 0 015.274-5.274z"/><path class="f" d="M216.142 170.401a3.64 3.64 0 11-3.64 3.64 3.641 3.641 0 013.64-3.64z"/><path class="f" d="M82.82 187.483a5.274 5.274 0 11-5.275 5.274 5.274 5.274 0 015.276-5.274z"/><path class="f" d="M87.098 200.384a6.729 6.729 0 11-6.729 6.73 6.73 6.73 0 016.729-6.73z"/><path class="f" d="M74.902 206.537a3.094 3.094 0 11-3.093 3.094 3.094 3.094 0 013.093-3.094z"/><path class="f" d="M144.883 197.721a6.728 6.728 0 11-6.729 6.729 6.728 6.728 0 016.729-6.729z"/><path class="f" d="M149.444 186.359a4.879 4.879 0 11-4.878 4.88 4.879 4.879 0 014.878-4.88z"/><path class="f" d="M129.734 200.824a5.984 5.984 0 11-5.985 5.985 5.985 5.985 0 015.985-5.985z"/><path class="f" d="M125.22 195.635a2.856 2.856 0 11-2.856 2.856 2.857 2.857 0 012.856-2.856z"/><path class="f" d="M134.582 196.12a2.856 2.856 0 11-2.856 2.856 2.857 2.857 0 012.856-2.856z"/><path class="f" d="M136.806 181.513a2.329 2.329 0 11-2.329 2.329 2.328 2.328 0 012.329-2.329z"/><path class="f" d="M211.088 189.848a6.729 6.729 0 11-6.728 6.728 6.73 6.73 0 016.728-6.728z"/><path class="f" d="M223.509 189.981a4.4 4.4 0 11-4.4 4.4 4.4 4.4 0 014.4-4.4z"/><path class="f" d="M205.489 204.51a4.4 4.4 0 11-4.4 4.4 4.4 4.4 0 014.4-4.4z"/><path class="f" d="M210.295 212.407a2.547 2.547 0 11-2.547 2.547 2.547 2.547 0 012.547-2.547z"/><path class="f" d="M196.841 208.36a3.934 3.934 0 11-3.935 3.934 3.935 3.935 0 013.935-3.934z"/><path class="f" d="M192.14 215.767a6.728 6.728 0 11-6.73 6.728 6.728 6.728 0 016.73-6.728z"/><path class="f" d="M62.03 215.859a3.093 3.093 0 11-3.094 3.094 3.094 3.094 0 013.094-3.094z"/><path class="f" d="M62.732 223.728a3.094 3.094 0 11-3.094 3.094 3.093 3.093 0 013.094-3.094z"/><path class="f" d="M88.258 221.688a5.275 5.275 0 11-5.274 5.274 5.275 5.275 0 015.274-5.274z"/><path class="f" d="M104.051 221.204a5.275 5.275 0 11-5.274 5.274 5.275 5.275 0 015.274-5.274z"/><path class="f" d="M137.743 220.574a2.856 2.856 0 11-2.856 2.86 2.855 2.855 0 012.856-2.856z"/><path class="f" d="M141.954 213.208a3.447 3.447 0 11-3.448 3.448 3.447 3.447 0 013.448-3.448z"/><path class="f" d="M158.334 220.592a3.447 3.447 0 11-3.448 3.447 3.447 3.447 0 013.448-3.447z"/><path class="f" d="M155.763 228.222a3.935 3.935 0 11-3.935 3.935 3.936 3.936 0 013.935-3.935z"/><path class="f" d="M178.703 230.617a2.856 2.856 0 11-2.856 2.856 2.857 2.857 0 012.856-2.856z"/></svg>
